<svg width="1703" height="1120" viewBox="0 0 1703 1120" fill="none" xmlns="http://www.w3.org/2000/svg">
<rect width="1703" height="1120" fill="#F5F5F5"/>
<path d="M-12449 -78C-12449 -79.1046 -12448.1 -80 -12447 -80H1781C1782.1 -80 1783 -79.1046 1783 -78V1198C1783 1199.1 1782.1 1200 1781 1200H-12447C-12448.1 1200 -12449 1199.1 -12449 1198V-78Z" fill="#E8E8E8"/>
<path d="M-12447 -80V-79H1781V-80V-81H-12447V-80ZM1783 -78H1782V1198H1783H1784V-78H1783ZM1781 1200V1199H-12447V1200V1201H1781V1200ZM-12449 1198H-12448V-78H-12449H-12450V1198H-12449ZM-12447 1200V1199C-12447.6 1199 -12448 1198.55 -12448 1198H-12449H-12450C-12450 1199.66 -12448.7 1201 -12447 1201V1200ZM1783 1198H1782C1782 1198.55 1781.55 1199 1781 1199V1200V1201C1782.66 1201 1784 1199.66 1784 1198H1783ZM1781 -80V-79C1781.55 -79 1782 -78.5521 1782 -78H1783H1784C1784 -79.657 1782.66 -81 1781 -81V-80ZM-12447 -80V-81C-12448.7 -81 -12450 -79.6569 -12450 -78H-12449H-12448C-12448 -78.5523 -12447.6 -79 -12447 -79V-80Z" fill="black" fill-opacity="0.1"/>
<g clip-path="url(#clip0_17_2642)">
<rect width="1703" height="1120" fill="white"/>
<mask id="path-3-inside-1_17_2642" fill="white">
<path d="M32 32H390V172H32V32Z"/>
</mask>
<path d="M390 172V171H32V172V173H390V172Z" fill="#E0E0E0" mask="url(#path-3-inside-1_17_2642)"/>
<text fill="#161616" xml:space="preserve" style="white-space: pre" font-family="IBM Plex Sans" font-size="20" font-weight="600" letter-spacing="0px"><tspan x="48" y="104.5">Workload Migration</tspan></text>
<rect width="32" height="32" transform="translate(48 48)" fill="white" fill-opacity="0.01"/>
<path d="M70 78H58C56.9 78 56 77.1 56 76V73H58V76H70V73H72V76C72 77.1 71.1 78 70 78Z" fill="#161616"/>
<path d="M63 62.8V73H65V62.8L67.6 65.4L69 64L64 59L59 64L60.4 65.4L63 62.8Z" fill="#161616"/>
<path d="M72.8 57.1C71.9 53 68.3 50 64 50C59.7 50 56.1 53 55.2 57.1C52.2 57.7 50 60.4 50 63.5C50 67.1 52.9 70 56.5 70H60V68H56.5C54 68 52 66 52 63.5C52 61.2 53.8 59.2 56.1 59H57L57.1 58.2C57.5 54.6 60.5 52 64 52C67.5 52 70.5 54.6 70.9 58.1L71 59L71.8 59.1C74.1 59.3 75.9 61.3 75.9 63.6C75.9 66.1 73.9 68.1 71.4 68.1H68V70.1H71.5C75.1 70.1 78 67.2 78 63.6C78 60.4 75.8 57.7 72.8 57.1Z" fill="#161616"/>
<mask id="path-7-inside-2_17_2642" fill="white">
<path d="M32 180H390V320H32V180Z"/>
</mask>
<path d="M390 320V319H32V320V321H390V320Z" fill="#E0E0E0" mask="url(#path-7-inside-2_17_2642)"/>
<text fill="#161616" xml:space="preserve" style="white-space: pre" font-family="IBM Plex Sans" font-size="20" font-weight="600" letter-spacing="0px"><tspan x="48" y="252.5">Resiliency, backup and &#10;</tspan><tspan x="48" y="278.5">disaster recovery </tspan></text>
<rect width="32" height="32" transform="translate(48 196)" fill="white" fill-opacity="0.01"/>
<path d="M63 220V222H55.5C51.3 222 48 218.6 48 214.5C48 210.9 50.6 207.8 54.1 207.1C54.1 207.1 54.7 207 55 207H55.2L53.6 205.4L55 204L59 208L55 212L53.6 210.6L55.2 209H55C52.6 209.2 50.4 211.3 50.1 213.7C49.6 217.1 52.2 220 55.5 220H63ZM66 220C65.5 220 65 220.5 65 221C65 221.5 65.5 222 66 222C66.5 222 67 221.5 67 221C67 220.5 66.5 220 66 220ZM73.9 207.1L73.8 207C73 203 69.9 199.9 65.9 199.2C65.3 199 64.6 199 64 199C61.1 199 58.4 200.3 56.6 202.3L58.1 203.8C59.3 202.4 61 201.3 63 201.1C64 201 64.9 201 65.9 201.2C69.1 201.9 71.4 204.6 72 207.7L72.2 208.7C72.2 208.767 72.2333 208.8 72.3 208.8L73.4 209C74.6 209.2 75.7 209.7 76.5 210.5C77.8 211.8 78.4 213.6 78 215.4C77.5 217.9 75.5 219.7 73 219.9L74.5 218.3L73 217L69 221L73 225L74.4 223.6L72.8 222C76.3 221.8 79.2 219.3 79.9 215.9C80 215.4 80 215 80 214.6C80 210.9 77.5 207.8 73.9 207.1Z" fill="#161616"/>
<mask id="path-11-inside-3_17_2642" fill="white">
<path d="M32 328H390V468H32V328Z"/>
</mask>
<path d="M390 468V467H32V468V469H390V468Z" fill="#E0E0E0" mask="url(#path-11-inside-3_17_2642)"/>
<text fill="#161616" xml:space="preserve" style="white-space: pre" font-family="IBM Plex Sans" font-size="20" font-weight="600" letter-spacing="0px"><tspan x="48" y="400.5">Management and Observability</tspan></text>
<rect width="32" height="32" transform="translate(48 344)" fill="white" fill-opacity="0.01"/>
<path d="M76 360V366H52V350H59V348H52C51.4696 348 50.9609 348.211 50.5858 348.586C50.2107 348.961 50 349.47 50 350V366C50 366.531 50.2107 367.039 50.5858 367.414C50.9609 367.789 51.4696 368 52 368H60V372H56V374H72V372H68V368H76C76.5304 368 77.0391 367.789 77.4142 367.414C77.7893 367.039 78 366.531 78 366V360H76ZM66 372H62V368H66V372Z" fill="#161616"/>
<path d="M66 362H65.99C65.7745 361.998 65.5654 361.926 65.3941 361.795C65.2227 361.665 65.0981 361.482 65.0389 361.275L63.2456 355H59V353H64C64.2173 353 64.4287 353.071 64.6022 353.202C64.7756 353.333 64.9018 353.516 64.9615 353.725L66.0357 357.484L69.0445 347.706C69.1093 347.503 69.2366 347.325 69.4081 347.198C69.5796 347.072 69.7868 347.002 70 347C70.2106 346.997 70.4166 347.062 70.5875 347.185C70.7584 347.308 70.8851 347.483 70.9487 347.684L72.7207 353H78V355H72C71.7901 355 71.5855 354.934 71.4153 354.811C71.245 354.689 71.1177 354.515 71.0513 354.316L70.0381 351.276L66.9556 361.294C66.8927 361.499 66.766 361.677 66.594 361.804C66.422 361.932 66.2138 362 66 362Z" fill="#161616"/>
<mask id="path-15-inside-4_17_2642" fill="white">
<path d="M32 476H390V616H32V476Z"/>
</mask>
<path d="M390 616V615H32V616V617H390V616Z" fill="#E0E0E0" mask="url(#path-15-inside-4_17_2642)"/>
<text fill="#161616" xml:space="preserve" style="white-space: pre" font-family="IBM Plex Sans" font-size="20" font-weight="600" letter-spacing="0px"><tspan x="48" y="548.5">Storage</tspan></text>
<rect width="32" height="32" transform="translate(48 492)" fill="white" fill-opacity="0.01"/>
<path d="M57 504V502H52C51.4696 502 50.9609 502.211 50.5858 502.586C50.2107 502.961 50 503.47 50 504V520C50 520.53 50.2107 521.039 50.5858 521.414C50.9609 521.789 51.4696 522 52 522H68C68.5304 522 69.0391 521.789 69.4142 521.414C69.7893 521.039 70 520.53 70 520V511H68V520H52V504" fill="#161616"/>
<path d="M70 504H62V496H70V504ZM60 496V504C60 504.53 60.2107 505.039 60.5858 505.414C60.9609 505.789 61.4696 506 62 506H70C70.5304 506 71.0391 505.789 71.4142 505.414C71.7893 505.039 72 504.53 72 504V496C72 495.47 71.7893 494.961 71.4142 494.586C71.0391 494.211 70.5304 494 70 494H62C61.4696 494 60.9609 494.211 60.5858 494.586C60.2107 494.961 60 495.47 60 496Z" fill="#161616"/>
<path d="M62 510V514H58V510H62ZM56 510V514C56 514.53 56.2107 515.039 56.5858 515.414C56.9609 515.789 57.4696 516 58 516H62C62.5304 516 63.0391 515.789 63.4142 515.414C63.7893 515.039 64 514.53 64 514V510C64 509.47 63.7893 508.961 63.4142 508.586C63.0391 508.211 62.5304 508 62 508H58C57.4696 508 56.9609 508.211 56.5858 508.586C56.2107 508.961 56 509.47 56 510Z" fill="#161616"/>
<path d="M76 509V511H74V509H76ZM72 508V512C72 512.265 72.1054 512.52 72.2929 512.707C72.4804 512.895 72.7348 513 73 513H77C77.2652 513 77.5196 512.895 77.7071 512.707C77.8946 512.52 78 512.265 78 512V508C78 507.735 77.8946 507.48 77.7071 507.293C77.5196 507.105 77.2652 507 77 507H73C72.7348 507 72.4804 507.105 72.2929 507.293C72.1054 507.48 72 507.735 72 508Z" fill="#161616"/>
<mask id="path-19-inside-5_17_2642" fill="white">
<path d="M32 624H390V764H32V624Z"/>
</mask>
<path d="M390 764V763H32V764V765H390V764Z" fill="#E0E0E0" mask="url(#path-19-inside-5_17_2642)"/>
<text fill="#161616" xml:space="preserve" style="white-space: pre" font-family="IBM Plex Sans" font-size="20" font-weight="600" letter-spacing="0px"><tspan x="48" y="696.5">Compute</tspan></text>
<rect width="32" height="32" transform="translate(48 640)" fill="white" fill-opacity="0.01"/>
<path d="M59 651V661H69V651H59ZM67 659H61V653H67V659Z" fill="#161616"/>
<path d="M78 653V651H74V648C74 647.47 73.7893 646.961 73.4142 646.586C73.0391 646.211 72.5304 646 72 646H69V642H67V646H61V642H59V646H56C55.4696 646 54.9609 646.211 54.5858 646.586C54.2107 646.961 54 647.47 54 648V651H50V653H54V659H50V661H54V664C54 664.53 54.2107 665.039 54.5858 665.414C54.9609 665.789 55.4696 666 56 666H59V670H61V666H67V670H69V666H72C72.5304 666 73.0391 665.789 73.4142 665.414C73.7893 665.039 74 664.53 74 664V661H78V659H74V653H78ZM72 664H56V648H72V664Z" fill="#161616"/>
<text fill="#161616" xml:space="preserve" style="white-space: pre" font-family="IBM Plex Sans" font-size="20" font-weight="600" letter-spacing="0px"><tspan x="48" y="844.5">Network and Interconnectivity</tspan></text>
<rect width="32" height="32" transform="translate(48 788)" fill="white" fill-opacity="0.01"/>
<path d="M65.0004 805H70.1425C70.3859 805.943 70.9648 806.764 71.7705 807.311C72.5763 807.857 73.5537 808.091 74.5195 807.968C75.4853 807.845 76.3733 807.375 77.0169 806.644C77.6604 805.914 78.0155 804.974 78.0155 804C78.0155 803.026 77.6604 802.086 77.0169 801.356C76.3733 800.625 75.4853 800.155 74.5195 800.032C73.5537 799.909 72.5763 800.143 71.7705 800.689C70.9648 801.236 70.3859 802.057 70.1425 803H65.0004V795H70.1425C70.3859 795.943 70.9648 796.764 71.7705 797.311C72.5763 797.857 73.5537 798.091 74.5195 797.968C75.4853 797.845 76.3733 797.375 77.0169 796.644C77.6604 795.914 78.0155 794.974 78.0155 794C78.0155 793.026 77.6604 792.086 77.0169 791.356C76.3733 790.625 75.4853 790.155 74.5195 790.032C73.5537 789.909 72.5763 790.143 71.7705 790.689C70.9648 791.236 70.3859 792.057 70.1425 793H65.0004C64.4702 793.001 63.9618 793.212 63.5869 793.586C63.212 793.961 63.001 794.47 63.0004 795V803H57.8583C57.6149 802.057 57.0361 801.236 56.2303 800.689C55.4245 800.143 54.4471 799.909 53.4813 800.032C52.5155 800.155 51.6276 800.625 50.984 801.356C50.3404 802.086 49.9854 803.026 49.9854 804C49.9854 804.974 50.3404 805.914 50.984 806.644C51.6276 807.375 52.5155 807.845 53.4813 807.968C54.4471 808.091 55.4245 807.857 56.2303 807.311C57.0361 806.764 57.6149 805.943 57.8583 805H63.0004V813C63.001 813.53 63.212 814.039 63.5869 814.414C63.9618 814.788 64.4702 814.999 65.0004 815H70.1425C70.3859 815.943 70.9648 816.764 71.7705 817.311C72.5763 817.857 73.5537 818.091 74.5195 817.968C75.4853 817.845 76.3733 817.375 77.0169 816.644C77.6604 815.914 78.0155 814.974 78.0155 814C78.0155 813.026 77.6604 812.086 77.0169 811.356C76.3733 810.625 75.4853 810.155 74.5195 810.032C73.5537 809.909 72.5763 810.143 71.7705 810.689C70.9648 811.236 70.3859 812.057 70.1425 813H65.0004V805ZM74.0004 802C74.396 802 74.7827 802.117 75.1116 802.337C75.4405 802.557 75.6968 802.869 75.8482 803.235C75.9996 803.6 76.0392 804.002 75.962 804.39C75.8848 804.778 75.6944 805.135 75.4146 805.414C75.1349 805.694 74.7786 805.884 74.3906 805.962C74.0027 806.039 73.6005 805.999 73.2351 805.848C72.8696 805.696 72.5573 805.44 72.3375 805.111C72.1177 804.782 72.0004 804.396 72.0004 804C72.001 803.47 72.212 802.961 72.5869 802.586C72.9618 802.212 73.4702 802.001 74.0004 802V802ZM74.0004 792C74.396 792 74.7827 792.117 75.1116 792.337C75.4405 792.557 75.6968 792.869 75.8482 793.235C75.9996 793.6 76.0392 794.002 75.962 794.39C75.8848 794.778 75.6944 795.135 75.4146 795.414C75.1349 795.694 74.7786 795.884 74.3906 795.962C74.0027 796.039 73.6005 795.999 73.2351 795.848C72.8696 795.696 72.5573 795.44 72.3375 795.111C72.1177 794.782 72.0004 794.396 72.0004 794C72.001 793.47 72.212 792.961 72.5869 792.586C72.9618 792.212 73.4702 792.001 74.0004 792V792ZM54.0004 806C53.6049 806 53.2182 805.883 52.8893 805.663C52.5604 805.443 52.3041 805.131 52.1527 804.765C52.0013 804.4 51.9617 803.998 52.0389 803.61C52.116 803.222 52.3065 802.866 52.5862 802.586C52.8659 802.306 53.2223 802.116 53.6103 802.038C53.9982 801.961 54.4003 802.001 54.7658 802.152C55.1313 802.304 55.4436 802.56 55.6634 802.889C55.8831 803.218 56.0004 803.604 56.0004 804C55.9998 804.53 55.7889 805.039 55.414 805.414C55.039 805.788 54.5307 805.999 54.0004 806V806ZM74.0004 812C74.396 812 74.7827 812.117 75.1116 812.337C75.4405 812.557 75.6968 812.869 75.8482 813.235C75.9996 813.6 76.0392 814.002 75.962 814.39C75.8848 814.778 75.6944 815.135 75.4146 815.414C75.1349 815.694 74.7786 815.884 74.3906 815.962C74.0027 816.039 73.6005 815.999 73.2351 815.848C72.8696 815.696 72.5573 815.44 72.3375 815.111C72.1177 814.782 72.0004 814.396 72.0004 814C72.001 813.47 72.212 812.961 72.5869 812.586C72.9618 812.212 73.4702 812.001 74.0004 812Z" fill="#161616"/>
<rect x="407" y="33" width="423" height="130" rx="3" fill="#EDF5FF"/>
<rect x="407" y="33" width="423" height="130" rx="3" stroke="#A6C8FF" stroke-width="2"/>
<text fill="#161616" xml:space="preserve" style="white-space: pre" font-family="IBM Plex Sans" font-size="18" letter-spacing="0px"><tspan x="422" y="98.75">IBM Consulting / Expert Labs</tspan></text>
<g clip-path="url(#clip1_17_2642)">
<rect width="24" height="24" transform="translate(422 48)" fill="white" fill-opacity="0.01"/>
<path d="M440.436 58.2376C439.69 56.8409 438.511 55.7244 437.076 55.0564C435.64 54.3884 434.027 54.2051 432.478 54.5343C430.93 54.8635 429.53 55.6872 428.491 56.8813C427.451 58.0753 426.828 59.575 426.715 61.1542C425.427 61.2927 424.241 61.9195 423.402 62.9057C422.562 63.8919 422.132 65.1624 422.201 66.4558C422.269 67.7492 422.831 68.9671 423.771 69.859C424.71 70.7508 425.955 71.2487 427.25 71.2501H439.25C440.888 71.2511 442.467 70.6397 443.676 69.536C444.886 68.4323 445.639 66.9161 445.787 65.2854C445.936 63.6547 445.469 62.0274 444.479 60.7233C443.489 59.4191 442.047 58.5325 440.436 58.2376ZM439.25 70.1251H427.25C426.253 70.1274 425.291 69.7499 424.562 69.0692C423.832 68.3884 423.389 67.4556 423.322 66.46C423.255 65.4644 423.57 64.4807 424.202 63.7086C424.834 62.9366 425.737 62.4341 426.726 62.3032C426.805 63.2957 427.087 64.2615 427.554 65.141C427.587 65.2081 427.634 65.2677 427.692 65.3163C427.749 65.365 427.815 65.4017 427.887 65.4243C427.958 65.4469 428.034 65.4549 428.108 65.4479C428.183 65.4409 428.256 65.419 428.322 65.3835C428.388 65.348 428.447 65.2996 428.494 65.2412C428.541 65.1828 428.576 65.1155 428.597 65.0434C428.617 64.9712 428.623 64.8956 428.615 64.8211C428.606 64.7465 428.582 64.6745 428.545 64.6093C427.801 63.2194 427.616 61.5981 428.027 60.0764C428.439 58.5548 429.415 57.2474 430.758 56.4213C432.1 55.5951 433.707 55.3124 435.251 55.6309C436.795 55.9494 438.159 56.8451 439.064 58.1351C438.166 58.1599 437.281 58.3691 436.467 58.7497C435.652 59.1303 434.924 59.6741 434.328 60.3476C434.277 60.4027 434.238 60.4673 434.213 60.5378C434.187 60.6082 434.176 60.683 434.18 60.7578C434.184 60.8326 434.203 60.9059 434.235 60.9733C434.268 61.0407 434.314 61.101 434.37 61.1505C434.426 61.2001 434.491 61.2379 434.562 61.2618C434.633 61.2857 434.708 61.2952 434.783 61.2898C434.858 61.2843 434.931 61.2639 434.997 61.2299C435.064 61.196 435.123 61.149 435.172 61.0918C435.772 60.4102 436.535 59.89 437.388 59.5789C438.242 59.2677 439.16 59.1755 440.059 59.3106C440.957 59.4457 441.808 59.8038 442.532 60.3522C443.257 60.9006 443.832 61.6218 444.206 62.45C444.58 63.2781 444.74 64.1868 444.673 65.0929C444.605 65.999 444.311 66.8737 443.818 67.6371C443.326 68.4004 442.649 69.0281 441.851 69.4628C441.053 69.8974 440.159 70.1251 439.25 70.1251Z" fill="#0F62FE"/>
<path d="M445.924 55.6912C445.887 55.6265 445.837 55.5698 445.778 55.5242C445.719 55.4787 445.651 55.4454 445.579 55.426C445.507 55.4067 445.431 55.4018 445.357 55.4115C445.283 55.4213 445.212 55.4456 445.147 55.483L442.882 56.7909C442.815 56.8273 442.757 56.8766 442.71 56.9359C442.662 56.9953 442.628 57.0634 442.607 57.1364C442.587 57.2094 442.581 57.2858 442.59 57.361C442.6 57.4362 442.624 57.5088 442.662 57.5745C442.7 57.6401 442.751 57.6976 442.811 57.7434C442.871 57.7892 442.94 57.8225 443.014 57.8413C443.087 57.8602 443.164 57.8641 443.239 57.8529C443.314 57.8418 443.386 57.8158 443.45 57.7764L445.715 56.4685C445.846 56.3931 445.942 56.2689 445.981 56.1231C446.02 55.9773 446 55.822 445.924 55.6912Z" fill="#0F62FE"/>
<path d="M439.008 53.9026C439.072 53.9401 439.144 53.9643 439.218 53.9741C439.292 53.9839 439.367 53.979 439.44 53.9596C439.512 53.9403 439.579 53.9069 439.639 53.8614C439.698 53.8159 439.748 53.7592 439.785 53.6944L441.093 51.4294C441.167 51.2988 441.187 51.1442 441.147 50.9993C441.108 50.8544 441.013 50.7309 440.883 50.6558C440.753 50.5807 440.598 50.5601 440.453 50.5984C440.308 50.6367 440.183 50.7309 440.107 50.8603L438.8 53.1253C438.724 53.256 438.704 53.4113 438.743 53.5571C438.782 53.7029 438.877 53.8272 439.008 53.9026Z" fill="#0F62FE"/>
<path d="M434 52.561C434.151 52.5609 434.296 52.501 434.403 52.3942C434.51 52.2875 434.57 52.1428 434.57 51.9919V49.3762C434.57 49.3009 434.556 49.2262 434.528 49.1564C434.5 49.0866 434.458 49.0231 434.405 48.9695C434.352 48.916 434.289 48.8735 434.22 48.8445C434.15 48.8155 434.076 48.8005 434.001 48.8005C433.925 48.8005 433.851 48.8155 433.781 48.8445C433.712 48.8735 433.649 48.916 433.596 48.9695C433.543 49.0231 433.501 49.0866 433.473 49.1564C433.445 49.2262 433.431 49.3009 433.431 49.3762V51.9919C433.431 52.1428 433.491 52.2875 433.598 52.3942C433.705 52.501 433.85 52.5609 434 52.561Z" fill="#0F62FE"/>
<path d="M428.216 53.6943C428.292 53.8238 428.416 53.9179 428.561 53.9562C428.707 53.9946 428.861 53.9739 428.991 53.8988C429.121 53.8237 429.216 53.7003 429.256 53.5553C429.295 53.4104 429.276 53.2558 429.201 53.1252L427.894 50.8602C427.857 50.7949 427.807 50.7376 427.748 50.6915C427.688 50.6455 427.62 50.6117 427.548 50.592C427.476 50.5723 427.4 50.5671 427.325 50.5768C427.251 50.5864 427.179 50.6107 427.114 50.6483C427.049 50.6858 426.992 50.7359 426.947 50.7955C426.901 50.8552 426.868 50.9233 426.849 50.9959C426.829 51.0685 426.825 51.1442 426.835 51.2185C426.845 51.2929 426.87 51.3646 426.908 51.4293L428.216 53.6943Z" fill="#0F62FE"/>
<path d="M425.119 56.7909L422.854 55.483C422.79 55.445 422.718 55.4202 422.644 55.4099C422.569 55.3997 422.494 55.4043 422.421 55.4235C422.348 55.4426 422.28 55.476 422.221 55.5215C422.161 55.5671 422.111 55.6241 422.073 55.6891C422.036 55.7541 422.011 55.8259 422.002 55.9004C421.992 55.9749 421.997 56.0505 422.017 56.1229C422.037 56.1954 422.071 56.2632 422.117 56.3226C422.163 56.3819 422.22 56.4315 422.285 56.4685L424.55 57.7764C424.615 57.8144 424.687 57.8393 424.761 57.8495C424.836 57.8597 424.911 57.8551 424.984 57.836C425.056 57.8168 425.125 57.7835 425.184 57.7379C425.244 57.6923 425.294 57.6354 425.331 57.5703C425.369 57.5053 425.393 57.4335 425.403 57.359C425.413 57.2846 425.407 57.2089 425.388 57.1365C425.368 57.064 425.334 56.9962 425.288 56.9369C425.242 56.8776 425.185 56.828 425.119 56.7909Z" fill="#0F62FE"/>
</g>
<rect x="848" y="33" width="423" height="60" rx="3" fill="#F4F4F4"/>
<rect x="848" y="33" width="423" height="60" rx="3" stroke="#E0E0E0" stroke-width="2"/>
<text fill="#161616" xml:space="preserve" style="white-space: pre" font-family="IBM Plex Sans" font-size="18" letter-spacing="0px"><tspan x="863" y="66.75">Customer Self-Serve</tspan></text>
<rect x="848" y="103" width="423" height="60" rx="3" fill="#F4F4F4"/>
<rect x="848" y="103" width="423" height="60" rx="3" stroke="#E0E0E0" stroke-width="2"/>
<text fill="#161616" xml:space="preserve" style="white-space: pre" font-family="IBM Plex Sans" font-size="18" letter-spacing="0px"><tspan x="863" y="136.75">Migration Services Partners</tspan></text>
<rect x="407" y="181" width="423" height="130" rx="3" fill="#EDF5FF"/>
<rect x="407" y="181" width="423" height="130" rx="3" stroke="#A6C8FF" stroke-width="2"/>
<text fill="#161616" xml:space="preserve" style="white-space: pre" font-family="IBM Plex Sans" font-size="18" letter-spacing="0px"><tspan x="422" y="246.75">IBM Cloud&#10;</tspan><tspan x="422" y="270.75">Backup and Recovery Services / Backup for VPC</tspan></text>
<g clip-path="url(#clip2_17_2642)">
<rect width="24" height="24" transform="translate(422 196)" fill="white" fill-opacity="0.01"/>
<path d="M440.436 206.238C439.69 204.841 438.511 203.724 437.076 203.056C435.64 202.388 434.027 202.205 432.478 202.534C430.93 202.863 429.53 203.687 428.491 204.881C427.451 206.075 426.828 207.575 426.715 209.154C425.427 209.293 424.241 209.919 423.402 210.906C422.562 211.892 422.132 213.162 422.201 214.456C422.269 215.749 422.831 216.967 423.771 217.859C424.71 218.751 425.955 219.249 427.25 219.25H439.25C440.888 219.251 442.467 218.64 443.676 217.536C444.886 216.432 445.639 214.916 445.787 213.285C445.936 211.655 445.469 210.027 444.479 208.723C443.489 207.419 442.047 206.533 440.436 206.238ZM439.25 218.125H427.25C426.253 218.127 425.291 217.75 424.562 217.069C423.832 216.388 423.389 215.456 423.322 214.46C423.255 213.464 423.57 212.481 424.202 211.709C424.834 210.937 425.737 210.434 426.726 210.303C426.805 211.296 427.087 212.261 427.554 213.141C427.587 213.208 427.634 213.268 427.692 213.316C427.749 213.365 427.815 213.402 427.887 213.424C427.958 213.447 428.034 213.455 428.108 213.448C428.183 213.441 428.256 213.419 428.322 213.384C428.388 213.348 428.447 213.3 428.494 213.241C428.541 213.183 428.576 213.116 428.597 213.043C428.617 212.971 428.623 212.896 428.615 212.821C428.606 212.747 428.582 212.674 428.545 212.609C427.801 211.219 427.616 209.598 428.027 208.076C428.439 206.555 429.415 205.247 430.758 204.421C432.1 203.595 433.707 203.312 435.251 203.631C436.795 203.949 438.159 204.845 439.064 206.135C438.166 206.16 437.281 206.369 436.467 206.75C435.652 207.13 434.924 207.674 434.328 208.348C434.277 208.403 434.238 208.467 434.213 208.538C434.187 208.608 434.176 208.683 434.18 208.758C434.184 208.833 434.203 208.906 434.235 208.973C434.268 209.041 434.314 209.101 434.37 209.151C434.426 209.2 434.491 209.238 434.562 209.262C434.633 209.286 434.708 209.295 434.783 209.29C434.858 209.284 434.931 209.264 434.997 209.23C435.064 209.196 435.123 209.149 435.172 209.092C435.772 208.41 436.535 207.89 437.388 207.579C438.242 207.268 439.16 207.175 440.059 207.311C440.957 207.446 441.808 207.804 442.532 208.352C443.257 208.901 443.832 209.622 444.206 210.45C444.58 211.278 444.74 212.187 444.673 213.093C444.605 213.999 444.311 214.874 443.818 215.637C443.326 216.4 442.649 217.028 441.851 217.463C441.053 217.897 440.159 218.125 439.25 218.125Z" fill="#0F62FE"/>
<path d="M445.924 203.691C445.887 203.627 445.837 203.57 445.778 203.524C445.719 203.479 445.651 203.445 445.579 203.426C445.507 203.407 445.431 203.402 445.357 203.412C445.283 203.421 445.212 203.446 445.147 203.483L442.882 204.791C442.815 204.827 442.757 204.877 442.71 204.936C442.662 204.995 442.628 205.063 442.607 205.136C442.587 205.209 442.581 205.286 442.59 205.361C442.6 205.436 442.624 205.509 442.662 205.574C442.7 205.64 442.751 205.698 442.811 205.743C442.871 205.789 442.94 205.823 443.014 205.841C443.087 205.86 443.164 205.864 443.239 205.853C443.314 205.842 443.386 205.816 443.45 205.776L445.715 204.469C445.846 204.393 445.942 204.269 445.981 204.123C446.02 203.977 446 203.822 445.924 203.691Z" fill="#0F62FE"/>
<path d="M439.008 201.903C439.072 201.94 439.144 201.964 439.218 201.974C439.292 201.984 439.367 201.979 439.44 201.96C439.512 201.94 439.579 201.907 439.639 201.861C439.698 201.816 439.748 201.759 439.785 201.694L441.093 199.429C441.167 199.299 441.187 199.144 441.147 198.999C441.108 198.854 441.013 198.731 440.883 198.656C440.753 198.581 440.598 198.56 440.453 198.598C440.308 198.637 440.183 198.731 440.107 198.86L438.8 201.125C438.724 201.256 438.704 201.411 438.743 201.557C438.782 201.703 438.877 201.827 439.008 201.903Z" fill="#0F62FE"/>
<path d="M434 200.561C434.151 200.561 434.296 200.501 434.403 200.394C434.51 200.288 434.57 200.143 434.57 199.992V197.376C434.57 197.301 434.556 197.226 434.528 197.156C434.5 197.087 434.458 197.023 434.405 196.97C434.352 196.916 434.289 196.873 434.22 196.844C434.15 196.815 434.076 196.801 434.001 196.801C433.925 196.801 433.851 196.815 433.781 196.844C433.712 196.873 433.649 196.916 433.596 196.97C433.543 197.023 433.501 197.087 433.473 197.156C433.445 197.226 433.431 197.301 433.431 197.376V199.992C433.431 200.143 433.491 200.288 433.598 200.394C433.705 200.501 433.85 200.561 434 200.561Z" fill="#0F62FE"/>
<path d="M428.216 201.694C428.292 201.824 428.416 201.918 428.561 201.956C428.707 201.995 428.861 201.974 428.991 201.899C429.121 201.824 429.216 201.7 429.256 201.555C429.295 201.41 429.276 201.256 429.201 201.125L427.894 198.86C427.857 198.795 427.807 198.738 427.748 198.692C427.688 198.645 427.62 198.612 427.548 198.592C427.476 198.572 427.4 198.567 427.325 198.577C427.251 198.586 427.179 198.611 427.114 198.648C427.049 198.686 426.992 198.736 426.947 198.796C426.901 198.855 426.868 198.923 426.849 198.996C426.829 199.068 426.825 199.144 426.835 199.219C426.845 199.293 426.87 199.365 426.908 199.429L428.216 201.694Z" fill="#0F62FE"/>
<path d="M425.119 204.791L422.854 203.483C422.79 203.445 422.718 203.42 422.644 203.41C422.569 203.4 422.494 203.404 422.421 203.423C422.348 203.443 422.28 203.476 422.221 203.522C422.161 203.567 422.111 203.624 422.073 203.689C422.036 203.754 422.011 203.826 422.002 203.9C421.992 203.975 421.997 204.05 422.017 204.123C422.037 204.195 422.071 204.263 422.117 204.323C422.163 204.382 422.22 204.431 422.285 204.469L424.55 205.776C424.615 205.814 424.687 205.839 424.761 205.85C424.836 205.86 424.911 205.855 424.984 205.836C425.056 205.817 425.125 205.783 425.184 205.738C425.244 205.692 425.294 205.635 425.331 205.57C425.369 205.505 425.393 205.434 425.403 205.359C425.413 205.285 425.407 205.209 425.388 205.136C425.368 205.064 425.334 204.996 425.288 204.937C425.242 204.878 425.185 204.828 425.119 204.791Z" fill="#0F62FE"/>
</g>
<rect x="848" y="181" width="423" height="130" rx="3" fill="#F4F4F4"/>
<rect x="848" y="181" width="423" height="130" rx="3" stroke="#E0E0E0" stroke-width="2"/>
<text fill="#161616" xml:space="preserve" style="white-space: pre" font-family="IBM Plex Sans" font-size="18" letter-spacing="0px"><tspan x="863" y="214.75">3rd party Backup Solutions&#x2028;</tspan><tspan x="863" y="240.75">Self Serve &#x2028;</tspan><tspan x="863" y="266.75">RYO/BYOL</tspan></text>
<rect x="407" y="329" width="423" height="130" rx="3" fill="#EDF5FF"/>
<rect x="407" y="329" width="423" height="130" rx="3" stroke="#A6C8FF" stroke-width="2"/>
<text fill="#161616" xml:space="preserve" style="white-space: pre" font-family="IBM Plex Sans" font-size="18" letter-spacing="0px"><tspan x="422" y="394.75">IBM Cloud&#10;</tspan><tspan x="422" y="418.75">Monitoring and Logs</tspan></text>
<g clip-path="url(#clip3_17_2642)">
<rect width="24" height="24" transform="translate(422 344)" fill="white" fill-opacity="0.01"/>
<path d="M440.436 354.238C439.69 352.841 438.511 351.724 437.076 351.056C435.64 350.388 434.027 350.205 432.478 350.534C430.93 350.863 429.53 351.687 428.491 352.881C427.451 354.075 426.828 355.575 426.715 357.154C425.427 357.293 424.241 357.919 423.402 358.906C422.562 359.892 422.132 361.162 422.201 362.456C422.269 363.749 422.831 364.967 423.771 365.859C424.71 366.751 425.955 367.249 427.25 367.25H439.25C440.888 367.251 442.467 366.64 443.676 365.536C444.886 364.432 445.639 362.916 445.787 361.285C445.936 359.655 445.469 358.027 444.479 356.723C443.489 355.419 442.047 354.533 440.436 354.238ZM439.25 366.125H427.25C426.253 366.127 425.291 365.75 424.562 365.069C423.832 364.388 423.389 363.456 423.322 362.46C423.255 361.464 423.57 360.481 424.202 359.709C424.834 358.937 425.737 358.434 426.726 358.303C426.805 359.296 427.087 360.261 427.554 361.141C427.587 361.208 427.634 361.268 427.692 361.316C427.749 361.365 427.815 361.402 427.887 361.424C427.958 361.447 428.034 361.455 428.108 361.448C428.183 361.441 428.256 361.419 428.322 361.384C428.388 361.348 428.447 361.3 428.494 361.241C428.541 361.183 428.576 361.116 428.597 361.043C428.617 360.971 428.623 360.896 428.615 360.821C428.606 360.747 428.582 360.674 428.545 360.609C427.801 359.219 427.616 357.598 428.027 356.076C428.439 354.555 429.415 353.247 430.758 352.421C432.1 351.595 433.707 351.312 435.251 351.631C436.795 351.949 438.159 352.845 439.064 354.135C438.166 354.16 437.281 354.369 436.467 354.75C435.652 355.13 434.924 355.674 434.328 356.348C434.277 356.403 434.238 356.467 434.213 356.538C434.187 356.608 434.176 356.683 434.18 356.758C434.184 356.833 434.203 356.906 434.235 356.973C434.268 357.041 434.314 357.101 434.37 357.151C434.426 357.2 434.491 357.238 434.562 357.262C434.633 357.286 434.708 357.295 434.783 357.29C434.858 357.284 434.931 357.264 434.997 357.23C435.064 357.196 435.123 357.149 435.172 357.092C435.772 356.41 436.535 355.89 437.388 355.579C438.242 355.268 439.16 355.175 440.059 355.311C440.957 355.446 441.808 355.804 442.532 356.352C443.257 356.901 443.832 357.622 444.206 358.45C444.58 359.278 444.74 360.187 444.673 361.093C444.605 361.999 444.311 362.874 443.818 363.637C443.326 364.4 442.649 365.028 441.851 365.463C441.053 365.897 440.159 366.125 439.25 366.125Z" fill="#0F62FE"/>
<path d="M445.924 351.691C445.887 351.627 445.837 351.57 445.778 351.524C445.719 351.479 445.651 351.445 445.579 351.426C445.507 351.407 445.431 351.402 445.357 351.412C445.283 351.421 445.212 351.446 445.147 351.483L442.882 352.791C442.815 352.827 442.757 352.877 442.71 352.936C442.662 352.995 442.628 353.063 442.607 353.136C442.587 353.209 442.581 353.286 442.59 353.361C442.6 353.436 442.624 353.509 442.662 353.574C442.7 353.64 442.751 353.698 442.811 353.743C442.871 353.789 442.94 353.823 443.014 353.841C443.087 353.86 443.164 353.864 443.239 353.853C443.314 353.842 443.386 353.816 443.45 353.776L445.715 352.469C445.846 352.393 445.942 352.269 445.981 352.123C446.02 351.977 446 351.822 445.924 351.691Z" fill="#0F62FE"/>
<path d="M439.008 349.903C439.072 349.94 439.144 349.964 439.218 349.974C439.292 349.984 439.367 349.979 439.44 349.96C439.512 349.94 439.579 349.907 439.639 349.861C439.698 349.816 439.748 349.759 439.785 349.694L441.093 347.429C441.167 347.299 441.187 347.144 441.147 346.999C441.108 346.854 441.013 346.731 440.883 346.656C440.753 346.581 440.598 346.56 440.453 346.598C440.308 346.637 440.183 346.731 440.107 346.86L438.8 349.125C438.724 349.256 438.704 349.411 438.743 349.557C438.782 349.703 438.877 349.827 439.008 349.903Z" fill="#0F62FE"/>
<path d="M434 348.561C434.151 348.561 434.296 348.501 434.403 348.394C434.51 348.288 434.57 348.143 434.57 347.992V345.376C434.57 345.301 434.556 345.226 434.528 345.156C434.5 345.087 434.458 345.023 434.405 344.97C434.352 344.916 434.289 344.873 434.22 344.844C434.15 344.815 434.076 344.801 434.001 344.801C433.925 344.801 433.851 344.815 433.781 344.844C433.712 344.873 433.649 344.916 433.596 344.97C433.543 345.023 433.501 345.087 433.473 345.156C433.445 345.226 433.431 345.301 433.431 345.376V347.992C433.431 348.143 433.491 348.288 433.598 348.394C433.705 348.501 433.85 348.561 434 348.561Z" fill="#0F62FE"/>
<path d="M428.216 349.694C428.292 349.824 428.416 349.918 428.561 349.956C428.707 349.995 428.861 349.974 428.991 349.899C429.121 349.824 429.216 349.7 429.256 349.555C429.295 349.41 429.276 349.256 429.201 349.125L427.894 346.86C427.857 346.795 427.807 346.738 427.748 346.692C427.688 346.645 427.62 346.612 427.548 346.592C427.476 346.572 427.4 346.567 427.325 346.577C427.251 346.586 427.179 346.611 427.114 346.648C427.049 346.686 426.992 346.736 426.947 346.796C426.901 346.855 426.868 346.923 426.849 346.996C426.829 347.068 426.825 347.144 426.835 347.219C426.845 347.293 426.87 347.365 426.908 347.429L428.216 349.694Z" fill="#0F62FE"/>
<path d="M425.119 352.791L422.854 351.483C422.79 351.445 422.718 351.42 422.644 351.41C422.569 351.4 422.494 351.404 422.421 351.423C422.348 351.443 422.28 351.476 422.221 351.522C422.161 351.567 422.111 351.624 422.073 351.689C422.036 351.754 422.011 351.826 422.002 351.9C421.992 351.975 421.997 352.05 422.017 352.123C422.037 352.195 422.071 352.263 422.117 352.323C422.163 352.382 422.22 352.431 422.285 352.469L424.55 353.776C424.615 353.814 424.687 353.839 424.761 353.85C424.836 353.86 424.911 353.855 424.984 353.836C425.056 353.817 425.125 353.783 425.184 353.738C425.244 353.692 425.294 353.635 425.331 353.57C425.369 353.505 425.393 353.434 425.403 353.359C425.413 353.285 425.407 353.209 425.388 353.136C425.368 353.064 425.334 352.996 425.288 352.937C425.242 352.878 425.185 352.828 425.119 352.791Z" fill="#0F62FE"/>
</g>
<rect x="407" y="477" width="423" height="130" rx="3" fill="#EDF5FF"/>
<rect x="407" y="477" width="423" height="130" rx="3" stroke="#A6C8FF" stroke-width="2"/>
<text fill="#161616" xml:space="preserve" style="white-space: pre" font-family="IBM Plex Sans" font-size="18" letter-spacing="0px"><tspan x="422" y="542.75">IBM Cloud&#10;</tspan><tspan x="422" y="566.75">Object Storage</tspan></text>
<g clip-path="url(#clip4_17_2642)">
<rect width="24" height="24" transform="translate(422 492)" fill="white" fill-opacity="0.01"/>
<path d="M440.436 502.238C439.69 500.841 438.511 499.724 437.076 499.056C435.64 498.388 434.027 498.205 432.478 498.534C430.93 498.863 429.53 499.687 428.491 500.881C427.451 502.075 426.828 503.575 426.715 505.154C425.427 505.293 424.241 505.919 423.402 506.906C422.562 507.892 422.132 509.162 422.201 510.456C422.269 511.749 422.831 512.967 423.771 513.859C424.71 514.751 425.955 515.249 427.25 515.25H439.25C440.888 515.251 442.467 514.64 443.676 513.536C444.886 512.432 445.639 510.916 445.787 509.285C445.936 507.655 445.469 506.027 444.479 504.723C443.489 503.419 442.047 502.533 440.436 502.238ZM439.25 514.125H427.25C426.253 514.127 425.291 513.75 424.562 513.069C423.832 512.388 423.389 511.456 423.322 510.46C423.255 509.464 423.57 508.481 424.202 507.709C424.834 506.937 425.737 506.434 426.726 506.303C426.805 507.296 427.087 508.261 427.554 509.141C427.587 509.208 427.634 509.268 427.692 509.316C427.749 509.365 427.815 509.402 427.887 509.424C427.958 509.447 428.034 509.455 428.108 509.448C428.183 509.441 428.256 509.419 428.322 509.384C428.388 509.348 428.447 509.3 428.494 509.241C428.541 509.183 428.576 509.116 428.597 509.043C428.617 508.971 428.623 508.896 428.615 508.821C428.606 508.747 428.582 508.674 428.545 508.609C427.801 507.219 427.616 505.598 428.027 504.076C428.439 502.555 429.415 501.247 430.758 500.421C432.1 499.595 433.707 499.312 435.251 499.631C436.795 499.949 438.159 500.845 439.064 502.135C438.166 502.16 437.281 502.369 436.467 502.75C435.652 503.13 434.924 503.674 434.328 504.348C434.277 504.403 434.238 504.467 434.213 504.538C434.187 504.608 434.176 504.683 434.18 504.758C434.184 504.833 434.203 504.906 434.235 504.973C434.268 505.041 434.314 505.101 434.37 505.151C434.426 505.2 434.491 505.238 434.562 505.262C434.633 505.286 434.708 505.295 434.783 505.29C434.858 505.284 434.931 505.264 434.997 505.23C435.064 505.196 435.123 505.149 435.172 505.092C435.772 504.41 436.535 503.89 437.388 503.579C438.242 503.268 439.16 503.175 440.059 503.311C440.957 503.446 441.808 503.804 442.532 504.352C443.257 504.901 443.832 505.622 444.206 506.45C444.58 507.278 444.74 508.187 444.673 509.093C444.605 509.999 444.311 510.874 443.818 511.637C443.326 512.4 442.649 513.028 441.851 513.463C441.053 513.897 440.159 514.125 439.25 514.125Z" fill="#0F62FE"/>
<path d="M445.924 499.691C445.887 499.627 445.837 499.57 445.778 499.524C445.719 499.479 445.651 499.445 445.579 499.426C445.507 499.407 445.431 499.402 445.357 499.412C445.283 499.421 445.212 499.446 445.147 499.483L442.882 500.791C442.815 500.827 442.757 500.877 442.71 500.936C442.662 500.995 442.628 501.063 442.607 501.136C442.587 501.209 442.581 501.286 442.59 501.361C442.6 501.436 442.624 501.509 442.662 501.574C442.7 501.64 442.751 501.698 442.811 501.743C442.871 501.789 442.94 501.823 443.014 501.841C443.087 501.86 443.164 501.864 443.239 501.853C443.314 501.842 443.386 501.816 443.45 501.776L445.715 500.469C445.846 500.393 445.942 500.269 445.981 500.123C446.02 499.977 446 499.822 445.924 499.691Z" fill="#0F62FE"/>
<path d="M439.008 497.903C439.072 497.94 439.144 497.964 439.218 497.974C439.292 497.984 439.367 497.979 439.44 497.96C439.512 497.94 439.579 497.907 439.639 497.861C439.698 497.816 439.748 497.759 439.785 497.694L441.093 495.429C441.167 495.299 441.187 495.144 441.147 494.999C441.108 494.854 441.013 494.731 440.883 494.656C440.753 494.581 440.598 494.56 440.453 494.598C440.308 494.637 440.183 494.731 440.107 494.86L438.8 497.125C438.724 497.256 438.704 497.411 438.743 497.557C438.782 497.703 438.877 497.827 439.008 497.903Z" fill="#0F62FE"/>
<path d="M434 496.561C434.151 496.561 434.296 496.501 434.403 496.394C434.51 496.288 434.57 496.143 434.57 495.992V493.376C434.57 493.301 434.556 493.226 434.528 493.156C434.5 493.087 434.458 493.023 434.405 492.97C434.352 492.916 434.289 492.873 434.22 492.844C434.15 492.815 434.076 492.801 434.001 492.801C433.925 492.801 433.851 492.815 433.781 492.844C433.712 492.873 433.649 492.916 433.596 492.97C433.543 493.023 433.501 493.087 433.473 493.156C433.445 493.226 433.431 493.301 433.431 493.376V495.992C433.431 496.143 433.491 496.288 433.598 496.394C433.705 496.501 433.85 496.561 434 496.561Z" fill="#0F62FE"/>
<path d="M428.216 497.694C428.292 497.824 428.416 497.918 428.561 497.956C428.707 497.995 428.861 497.974 428.991 497.899C429.121 497.824 429.216 497.7 429.256 497.555C429.295 497.41 429.276 497.256 429.201 497.125L427.894 494.86C427.857 494.795 427.807 494.738 427.748 494.692C427.688 494.645 427.62 494.612 427.548 494.592C427.476 494.572 427.4 494.567 427.325 494.577C427.251 494.586 427.179 494.611 427.114 494.648C427.049 494.686 426.992 494.736 426.947 494.796C426.901 494.855 426.868 494.923 426.849 494.996C426.829 495.068 426.825 495.144 426.835 495.219C426.845 495.293 426.87 495.365 426.908 495.429L428.216 497.694Z" fill="#0F62FE"/>
<path d="M425.119 500.791L422.854 499.483C422.79 499.445 422.718 499.42 422.644 499.41C422.569 499.4 422.494 499.404 422.421 499.423C422.348 499.443 422.28 499.476 422.221 499.522C422.161 499.567 422.111 499.624 422.073 499.689C422.036 499.754 422.011 499.826 422.002 499.9C421.992 499.975 421.997 500.05 422.017 500.123C422.037 500.195 422.071 500.263 422.117 500.323C422.163 500.382 422.22 500.431 422.285 500.469L424.55 501.776C424.615 501.814 424.687 501.839 424.761 501.85C424.836 501.86 424.911 501.855 424.984 501.836C425.056 501.817 425.125 501.783 425.184 501.738C425.244 501.692 425.294 501.635 425.331 501.57C425.369 501.505 425.393 501.434 425.403 501.359C425.413 501.285 425.407 501.209 425.388 501.136C425.368 501.064 425.334 500.996 425.288 500.937C425.242 500.878 425.185 500.828 425.119 500.791Z" fill="#0F62FE"/>
</g>
<rect x="848" y="477" width="423" height="130" rx="3" fill="#EDF5FF"/>
<rect x="848" y="477" width="423" height="130" rx="3" stroke="#A6C8FF" stroke-width="2"/>
<text fill="#161616" xml:space="preserve" style="white-space: pre" font-family="IBM Plex Sans" font-size="18" letter-spacing="0px"><tspan x="863" y="542.75">IBM Cloud&#10;</tspan><tspan x="863" y="566.75">File Storage for VPC</tspan></text>
<g clip-path="url(#clip5_17_2642)">
<rect width="24" height="24" transform="translate(863 492)" fill="white" fill-opacity="0.01"/>
<path d="M881.436 502.238C880.69 500.841 879.511 499.724 878.076 499.056C876.64 498.388 875.027 498.205 873.478 498.534C871.93 498.863 870.53 499.687 869.491 500.881C868.451 502.075 867.828 503.575 867.715 505.154C866.427 505.293 865.241 505.919 864.402 506.906C863.562 507.892 863.132 509.162 863.201 510.456C863.269 511.749 863.831 512.967 864.771 513.859C865.71 514.751 866.955 515.249 868.25 515.25H880.25C881.888 515.251 883.467 514.64 884.676 513.536C885.886 512.432 886.639 510.916 886.787 509.285C886.936 507.655 886.469 506.027 885.479 504.723C884.489 503.419 883.047 502.533 881.436 502.238ZM880.25 514.125H868.25C867.253 514.127 866.291 513.75 865.562 513.069C864.832 512.388 864.389 511.456 864.322 510.46C864.255 509.464 864.57 508.481 865.202 507.709C865.834 506.937 866.737 506.434 867.726 506.303C867.805 507.296 868.087 508.261 868.554 509.141C868.587 509.208 868.634 509.268 868.692 509.316C868.749 509.365 868.815 509.402 868.887 509.424C868.958 509.447 869.034 509.455 869.108 509.448C869.183 509.441 869.256 509.419 869.322 509.384C869.388 509.348 869.447 509.3 869.494 509.241C869.541 509.183 869.576 509.116 869.597 509.043C869.617 508.971 869.623 508.896 869.615 508.821C869.606 508.747 869.582 508.674 869.545 508.609C868.801 507.219 868.616 505.598 869.027 504.076C869.439 502.555 870.415 501.247 871.758 500.421C873.1 499.595 874.707 499.312 876.251 499.631C877.795 499.949 879.159 500.845 880.064 502.135C879.166 502.16 878.281 502.369 877.467 502.75C876.652 503.13 875.924 503.674 875.328 504.348C875.277 504.403 875.238 504.467 875.213 504.538C875.187 504.608 875.176 504.683 875.18 504.758C875.184 504.833 875.203 504.906 875.235 504.973C875.268 505.041 875.314 505.101 875.37 505.151C875.426 505.2 875.491 505.238 875.562 505.262C875.633 505.286 875.708 505.295 875.783 505.29C875.858 505.284 875.931 505.264 875.997 505.23C876.064 505.196 876.123 505.149 876.172 505.092C876.772 504.41 877.535 503.89 878.388 503.579C879.242 503.268 880.16 503.175 881.059 503.311C881.957 503.446 882.808 503.804 883.532 504.352C884.257 504.901 884.832 505.622 885.206 506.45C885.58 507.278 885.74 508.187 885.673 509.093C885.605 509.999 885.311 510.874 884.818 511.637C884.326 512.4 883.649 513.028 882.851 513.463C882.053 513.897 881.159 514.125 880.25 514.125Z" fill="#0F62FE"/>
<path d="M886.924 499.691C886.887 499.627 886.837 499.57 886.778 499.524C886.719 499.479 886.651 499.445 886.579 499.426C886.507 499.407 886.431 499.402 886.357 499.412C886.283 499.421 886.212 499.446 886.147 499.483L883.882 500.791C883.815 500.827 883.757 500.877 883.71 500.936C883.662 500.995 883.628 501.063 883.607 501.136C883.587 501.209 883.581 501.286 883.59 501.361C883.6 501.436 883.624 501.509 883.662 501.574C883.7 501.64 883.751 501.698 883.811 501.743C883.871 501.789 883.94 501.823 884.014 501.841C884.087 501.86 884.164 501.864 884.239 501.853C884.314 501.842 884.386 501.816 884.45 501.776L886.715 500.469C886.846 500.393 886.942 500.269 886.981 500.123C887.02 499.977 887 499.822 886.924 499.691Z" fill="#0F62FE"/>
<path d="M880.008 497.903C880.072 497.94 880.144 497.964 880.218 497.974C880.292 497.984 880.367 497.979 880.44 497.96C880.512 497.94 880.579 497.907 880.639 497.861C880.698 497.816 880.748 497.759 880.785 497.694L882.093 495.429C882.167 495.299 882.187 495.144 882.147 494.999C882.108 494.854 882.013 494.731 881.883 494.656C881.753 494.581 881.598 494.56 881.453 494.598C881.308 494.637 881.183 494.731 881.107 494.86L879.8 497.125C879.724 497.256 879.704 497.411 879.743 497.557C879.782 497.703 879.877 497.827 880.008 497.903Z" fill="#0F62FE"/>
<path d="M875 496.561C875.151 496.561 875.296 496.501 875.403 496.394C875.51 496.288 875.57 496.143 875.57 495.992V493.376C875.57 493.301 875.556 493.226 875.528 493.156C875.5 493.087 875.458 493.023 875.405 492.97C875.352 492.916 875.289 492.873 875.22 492.844C875.15 492.815 875.076 492.801 875.001 492.801C874.925 492.801 874.851 492.815 874.781 492.844C874.712 492.873 874.649 492.916 874.596 492.97C874.543 493.023 874.501 493.087 874.473 493.156C874.445 493.226 874.431 493.301 874.431 493.376V495.992C874.431 496.143 874.491 496.288 874.598 496.394C874.705 496.501 874.85 496.561 875 496.561Z" fill="#0F62FE"/>
<path d="M869.216 497.694C869.292 497.824 869.416 497.918 869.561 497.956C869.707 497.995 869.861 497.974 869.991 497.899C870.121 497.824 870.216 497.7 870.256 497.555C870.295 497.41 870.276 497.256 870.201 497.125L868.894 494.86C868.857 494.795 868.807 494.738 868.748 494.692C868.688 494.645 868.62 494.612 868.548 494.592C868.476 494.572 868.4 494.567 868.325 494.577C868.251 494.586 868.179 494.611 868.114 494.648C868.049 494.686 867.992 494.736 867.947 494.796C867.901 494.855 867.868 494.923 867.849 494.996C867.829 495.068 867.825 495.144 867.835 495.219C867.845 495.293 867.87 495.365 867.908 495.429L869.216 497.694Z" fill="#0F62FE"/>
<path d="M866.119 500.791L863.854 499.483C863.79 499.445 863.718 499.42 863.644 499.41C863.569 499.4 863.494 499.404 863.421 499.423C863.348 499.443 863.28 499.476 863.221 499.522C863.161 499.567 863.111 499.624 863.073 499.689C863.036 499.754 863.011 499.826 863.002 499.9C862.992 499.975 862.997 500.05 863.017 500.123C863.037 500.195 863.071 500.263 863.117 500.323C863.163 500.382 863.22 500.431 863.285 500.469L865.55 501.776C865.615 501.814 865.687 501.839 865.761 501.85C865.836 501.86 865.911 501.855 865.984 501.836C866.056 501.817 866.125 501.783 866.184 501.738C866.244 501.692 866.294 501.635 866.331 501.57C866.369 501.505 866.393 501.434 866.403 501.359C866.413 501.285 866.407 501.209 866.388 501.136C866.368 501.064 866.334 500.996 866.288 500.937C866.242 500.878 866.185 500.828 866.119 500.791Z" fill="#0F62FE"/>
</g>
<rect x="407" y="625" width="423" height="130" rx="3" fill="#EDF5FF"/>
<rect x="407" y="625" width="423" height="130" rx="3" stroke="#A6C8FF" stroke-width="2"/>
<text fill="#161616" xml:space="preserve" style="white-space: pre" font-family="IBM Plex Sans" font-size="18" letter-spacing="0px"><tspan x="422" y="690.75">IBM Cloud &#x2028;</tspan><tspan x="422" y="714.75">VPC Virtual Server Instances </tspan></text>
<g clip-path="url(#clip6_17_2642)">
<rect width="24" height="24" transform="translate(422 640)" fill="white" fill-opacity="0.01"/>
<path d="M440.436 650.238C439.69 648.841 438.511 647.724 437.076 647.056C435.64 646.388 434.027 646.205 432.478 646.534C430.93 646.863 429.53 647.687 428.491 648.881C427.451 650.075 426.828 651.575 426.715 653.154C425.427 653.293 424.241 653.919 423.402 654.906C422.562 655.892 422.132 657.162 422.201 658.456C422.269 659.749 422.831 660.967 423.771 661.859C424.71 662.751 425.955 663.249 427.25 663.25H439.25C440.888 663.251 442.467 662.64 443.676 661.536C444.886 660.432 445.639 658.916 445.787 657.285C445.936 655.655 445.469 654.027 444.479 652.723C443.489 651.419 442.047 650.533 440.436 650.238ZM439.25 662.125H427.25C426.253 662.127 425.291 661.75 424.562 661.069C423.832 660.388 423.389 659.456 423.322 658.46C423.255 657.464 423.57 656.481 424.202 655.709C424.834 654.937 425.737 654.434 426.726 654.303C426.805 655.296 427.087 656.261 427.554 657.141C427.587 657.208 427.634 657.268 427.692 657.316C427.749 657.365 427.815 657.402 427.887 657.424C427.958 657.447 428.034 657.455 428.108 657.448C428.183 657.441 428.256 657.419 428.322 657.384C428.388 657.348 428.447 657.3 428.494 657.241C428.541 657.183 428.576 657.116 428.597 657.043C428.617 656.971 428.623 656.896 428.615 656.821C428.606 656.747 428.582 656.674 428.545 656.609C427.801 655.219 427.616 653.598 428.027 652.076C428.439 650.555 429.415 649.247 430.758 648.421C432.1 647.595 433.707 647.312 435.251 647.631C436.795 647.949 438.159 648.845 439.064 650.135C438.166 650.16 437.281 650.369 436.467 650.75C435.652 651.13 434.924 651.674 434.328 652.348C434.277 652.403 434.238 652.467 434.213 652.538C434.187 652.608 434.176 652.683 434.18 652.758C434.184 652.833 434.203 652.906 434.235 652.973C434.268 653.041 434.314 653.101 434.37 653.151C434.426 653.2 434.491 653.238 434.562 653.262C434.633 653.286 434.708 653.295 434.783 653.29C434.858 653.284 434.931 653.264 434.997 653.23C435.064 653.196 435.123 653.149 435.172 653.092C435.772 652.41 436.535 651.89 437.388 651.579C438.242 651.268 439.16 651.175 440.059 651.311C440.957 651.446 441.808 651.804 442.532 652.352C443.257 652.901 443.832 653.622 444.206 654.45C444.58 655.278 444.74 656.187 444.673 657.093C444.605 657.999 444.311 658.874 443.818 659.637C443.326 660.4 442.649 661.028 441.851 661.463C441.053 661.897 440.159 662.125 439.25 662.125Z" fill="#0F62FE"/>
<path d="M445.924 647.691C445.887 647.627 445.837 647.57 445.778 647.524C445.719 647.479 445.651 647.445 445.579 647.426C445.507 647.407 445.431 647.402 445.357 647.412C445.283 647.421 445.212 647.446 445.147 647.483L442.882 648.791C442.815 648.827 442.757 648.877 442.71 648.936C442.662 648.995 442.628 649.063 442.607 649.136C442.587 649.209 442.581 649.286 442.59 649.361C442.6 649.436 442.624 649.509 442.662 649.574C442.7 649.64 442.751 649.698 442.811 649.743C442.871 649.789 442.94 649.823 443.014 649.841C443.087 649.86 443.164 649.864 443.239 649.853C443.314 649.842 443.386 649.816 443.45 649.776L445.715 648.469C445.846 648.393 445.942 648.269 445.981 648.123C446.02 647.977 446 647.822 445.924 647.691Z" fill="#0F62FE"/>
<path d="M439.008 645.903C439.072 645.94 439.144 645.964 439.218 645.974C439.292 645.984 439.367 645.979 439.44 645.96C439.512 645.94 439.579 645.907 439.639 645.861C439.698 645.816 439.748 645.759 439.785 645.694L441.093 643.429C441.167 643.299 441.187 643.144 441.147 642.999C441.108 642.854 441.013 642.731 440.883 642.656C440.753 642.581 440.598 642.56 440.453 642.598C440.308 642.637 440.183 642.731 440.107 642.86L438.8 645.125C438.724 645.256 438.704 645.411 438.743 645.557C438.782 645.703 438.877 645.827 439.008 645.903Z" fill="#0F62FE"/>
<path d="M434 644.561C434.151 644.561 434.296 644.501 434.403 644.394C434.51 644.288 434.57 644.143 434.57 643.992V641.376C434.57 641.301 434.556 641.226 434.528 641.156C434.5 641.087 434.458 641.023 434.405 640.97C434.352 640.916 434.289 640.873 434.22 640.844C434.15 640.815 434.076 640.801 434.001 640.801C433.925 640.801 433.851 640.815 433.781 640.844C433.712 640.873 433.649 640.916 433.596 640.97C433.543 641.023 433.501 641.087 433.473 641.156C433.445 641.226 433.431 641.301 433.431 641.376V643.992C433.431 644.143 433.491 644.288 433.598 644.394C433.705 644.501 433.85 644.561 434 644.561Z" fill="#0F62FE"/>
<path d="M428.216 645.694C428.292 645.824 428.416 645.918 428.561 645.956C428.707 645.995 428.861 645.974 428.991 645.899C429.121 645.824 429.216 645.7 429.256 645.555C429.295 645.41 429.276 645.256 429.201 645.125L427.894 642.86C427.857 642.795 427.807 642.738 427.748 642.692C427.688 642.645 427.62 642.612 427.548 642.592C427.476 642.572 427.4 642.567 427.325 642.577C427.251 642.586 427.179 642.611 427.114 642.648C427.049 642.686 426.992 642.736 426.947 642.796C426.901 642.855 426.868 642.923 426.849 642.996C426.829 643.068 426.825 643.144 426.835 643.219C426.845 643.293 426.87 643.365 426.908 643.429L428.216 645.694Z" fill="#0F62FE"/>
<path d="M425.119 648.791L422.854 647.483C422.79 647.445 422.718 647.42 422.644 647.41C422.569 647.4 422.494 647.404 422.421 647.423C422.348 647.443 422.28 647.476 422.221 647.522C422.161 647.567 422.111 647.624 422.073 647.689C422.036 647.754 422.011 647.826 422.002 647.9C421.992 647.975 421.997 648.05 422.017 648.123C422.037 648.195 422.071 648.263 422.117 648.323C422.163 648.382 422.22 648.431 422.285 648.469L424.55 649.776C424.615 649.814 424.687 649.839 424.761 649.85C424.836 649.86 424.911 649.855 424.984 649.836C425.056 649.817 425.125 649.783 425.184 649.738C425.244 649.692 425.294 649.635 425.331 649.57C425.369 649.505 425.393 649.434 425.403 649.359C425.413 649.285 425.407 649.209 425.388 649.136C425.368 649.064 425.334 648.996 425.288 648.937C425.242 648.878 425.185 648.828 425.119 648.791Z" fill="#0F62FE"/>
</g>
<rect x="848" y="625" width="423" height="130" rx="3" fill="#EDF5FF"/>
<rect x="848" y="625" width="423" height="130" rx="3" stroke="#A6C8FF" stroke-width="2"/>
<text fill="#161616" xml:space="preserve" style="white-space: pre" font-family="IBM Plex Sans" font-size="18" letter-spacing="0px"><tspan x="863" y="690.75">IBM Cloud &#x2028;</tspan><tspan x="863" y="714.75">VPC Bare Metal Servers</tspan></text>
<g clip-path="url(#clip7_17_2642)">
<rect width="24" height="24" transform="translate(863 640)" fill="white" fill-opacity="0.01"/>
<path d="M881.436 650.238C880.69 648.841 879.511 647.724 878.076 647.056C876.64 646.388 875.027 646.205 873.478 646.534C871.93 646.863 870.53 647.687 869.491 648.881C868.451 650.075 867.828 651.575 867.715 653.154C866.427 653.293 865.241 653.919 864.402 654.906C863.562 655.892 863.132 657.162 863.201 658.456C863.269 659.749 863.831 660.967 864.771 661.859C865.71 662.751 866.955 663.249 868.25 663.25H880.25C881.888 663.251 883.467 662.64 884.676 661.536C885.886 660.432 886.639 658.916 886.787 657.285C886.936 655.655 886.469 654.027 885.479 652.723C884.489 651.419 883.047 650.533 881.436 650.238ZM880.25 662.125H868.25C867.253 662.127 866.291 661.75 865.562 661.069C864.832 660.388 864.389 659.456 864.322 658.46C864.255 657.464 864.57 656.481 865.202 655.709C865.834 654.937 866.737 654.434 867.726 654.303C867.805 655.296 868.087 656.261 868.554 657.141C868.587 657.208 868.634 657.268 868.692 657.316C868.749 657.365 868.815 657.402 868.887 657.424C868.958 657.447 869.034 657.455 869.108 657.448C869.183 657.441 869.256 657.419 869.322 657.384C869.388 657.348 869.447 657.3 869.494 657.241C869.541 657.183 869.576 657.116 869.597 657.043C869.617 656.971 869.623 656.896 869.615 656.821C869.606 656.747 869.582 656.674 869.545 656.609C868.801 655.219 868.616 653.598 869.027 652.076C869.439 650.555 870.415 649.247 871.758 648.421C873.1 647.595 874.707 647.312 876.251 647.631C877.795 647.949 879.159 648.845 880.064 650.135C879.166 650.16 878.281 650.369 877.467 650.75C876.652 651.13 875.924 651.674 875.328 652.348C875.277 652.403 875.238 652.467 875.213 652.538C875.187 652.608 875.176 652.683 875.18 652.758C875.184 652.833 875.203 652.906 875.235 652.973C875.268 653.041 875.314 653.101 875.37 653.151C875.426 653.2 875.491 653.238 875.562 653.262C875.633 653.286 875.708 653.295 875.783 653.29C875.858 653.284 875.931 653.264 875.997 653.23C876.064 653.196 876.123 653.149 876.172 653.092C876.772 652.41 877.535 651.89 878.388 651.579C879.242 651.268 880.16 651.175 881.059 651.311C881.957 651.446 882.808 651.804 883.532 652.352C884.257 652.901 884.832 653.622 885.206 654.45C885.58 655.278 885.74 656.187 885.673 657.093C885.605 657.999 885.311 658.874 884.818 659.637C884.326 660.4 883.649 661.028 882.851 661.463C882.053 661.897 881.159 662.125 880.25 662.125Z" fill="#0F62FE"/>
<path d="M886.924 647.691C886.887 647.627 886.837 647.57 886.778 647.524C886.719 647.479 886.651 647.445 886.579 647.426C886.507 647.407 886.431 647.402 886.357 647.412C886.283 647.421 886.212 647.446 886.147 647.483L883.882 648.791C883.815 648.827 883.757 648.877 883.71 648.936C883.662 648.995 883.628 649.063 883.607 649.136C883.587 649.209 883.581 649.286 883.59 649.361C883.6 649.436 883.624 649.509 883.662 649.574C883.7 649.64 883.751 649.698 883.811 649.743C883.871 649.789 883.94 649.823 884.014 649.841C884.087 649.86 884.164 649.864 884.239 649.853C884.314 649.842 884.386 649.816 884.45 649.776L886.715 648.469C886.846 648.393 886.942 648.269 886.981 648.123C887.02 647.977 887 647.822 886.924 647.691Z" fill="#0F62FE"/>
<path d="M880.008 645.903C880.072 645.94 880.144 645.964 880.218 645.974C880.292 645.984 880.367 645.979 880.44 645.96C880.512 645.94 880.579 645.907 880.639 645.861C880.698 645.816 880.748 645.759 880.785 645.694L882.093 643.429C882.167 643.299 882.187 643.144 882.147 642.999C882.108 642.854 882.013 642.731 881.883 642.656C881.753 642.581 881.598 642.56 881.453 642.598C881.308 642.637 881.183 642.731 881.107 642.86L879.8 645.125C879.724 645.256 879.704 645.411 879.743 645.557C879.782 645.703 879.877 645.827 880.008 645.903Z" fill="#0F62FE"/>
<path d="M875 644.561C875.151 644.561 875.296 644.501 875.403 644.394C875.51 644.288 875.57 644.143 875.57 643.992V641.376C875.57 641.301 875.556 641.226 875.528 641.156C875.5 641.087 875.458 641.023 875.405 640.97C875.352 640.916 875.289 640.873 875.22 640.844C875.15 640.815 875.076 640.801 875.001 640.801C874.925 640.801 874.851 640.815 874.781 640.844C874.712 640.873 874.649 640.916 874.596 640.97C874.543 641.023 874.501 641.087 874.473 641.156C874.445 641.226 874.431 641.301 874.431 641.376V643.992C874.431 644.143 874.491 644.288 874.598 644.394C874.705 644.501 874.85 644.561 875 644.561Z" fill="#0F62FE"/>
<path d="M869.216 645.694C869.292 645.824 869.416 645.918 869.561 645.956C869.707 645.995 869.861 645.974 869.991 645.899C870.121 645.824 870.216 645.7 870.256 645.555C870.295 645.41 870.276 645.256 870.201 645.125L868.894 642.86C868.857 642.795 868.807 642.738 868.748 642.692C868.688 642.645 868.62 642.612 868.548 642.592C868.476 642.572 868.4 642.567 868.325 642.577C868.251 642.586 868.179 642.611 868.114 642.648C868.049 642.686 867.992 642.736 867.947 642.796C867.901 642.855 867.868 642.923 867.849 642.996C867.829 643.068 867.825 643.144 867.835 643.219C867.845 643.293 867.87 643.365 867.908 643.429L869.216 645.694Z" fill="#0F62FE"/>
<path d="M866.119 648.791L863.854 647.483C863.79 647.445 863.718 647.42 863.644 647.41C863.569 647.4 863.494 647.404 863.421 647.423C863.348 647.443 863.28 647.476 863.221 647.522C863.161 647.567 863.111 647.624 863.073 647.689C863.036 647.754 863.011 647.826 863.002 647.9C862.992 647.975 862.997 648.05 863.017 648.123C863.037 648.195 863.071 648.263 863.117 648.323C863.163 648.382 863.22 648.431 863.285 648.469L865.55 649.776C865.615 649.814 865.687 649.839 865.761 649.85C865.836 649.86 865.911 649.855 865.984 649.836C866.056 649.817 866.125 649.783 866.184 649.738C866.244 649.692 866.294 649.635 866.331 649.57C866.369 649.505 866.393 649.434 866.403 649.359C866.413 649.285 866.407 649.209 866.388 649.136C866.368 649.064 866.334 648.996 866.288 648.937C866.242 648.878 866.185 648.828 866.119 648.791Z" fill="#0F62FE"/>
</g>
<rect x="407" y="773" width="423" height="314" rx="3" fill="#EDF5FF"/>
<rect x="407" y="773" width="423" height="314" rx="3" stroke="#A6C8FF" stroke-width="2"/>
<text fill="#161616" xml:space="preserve" style="white-space: pre" font-family="IBM Plex Sans" font-size="18" letter-spacing="0px"><tspan x="422" y="838.75">IBM Cloud Networking&#10;</tspan><tspan x="449" y="862.75">VPC Networking&#10;</tspan><tspan x="476" y="886.75">Floating IP&#10;</tspan><tspan x="476" y="910.75">Publick Address Range&#10;</tspan><tspan x="476" y="934.75">BYOIP&#10;</tspan><tspan x="449" y="958.75">Direct Link&#10;</tspan><tspan x="449" y="982.75">Transit Gateway&#10;</tspan><tspan x="449" y="1006.75">VPNaaS&#10;</tspan><tspan x="476" y="1030.75">Site to Site&#10;</tspan><tspan x="476" y="1054.75">Client to Site&#10;</tspan></text>
<g clip-path="url(#clip8_17_2642)">
<rect width="24" height="24" transform="translate(422 788)" fill="white" fill-opacity="0.01"/>
<path d="M440.436 798.237C439.69 796.841 438.511 795.724 437.076 795.056C435.64 794.388 434.027 794.205 432.478 794.534C430.93 794.863 429.53 795.687 428.491 796.881C427.451 798.075 426.828 799.575 426.715 801.154C425.427 801.292 424.241 801.919 423.402 802.905C422.562 803.892 422.132 805.162 422.201 806.456C422.269 807.749 422.831 808.967 423.771 809.859C424.71 810.751 425.955 811.248 427.25 811.25H439.25C440.888 811.251 442.467 810.639 443.676 809.536C444.886 808.432 445.639 806.916 445.787 805.285C445.936 803.654 445.469 802.027 444.479 800.723C443.489 799.419 442.047 798.532 440.436 798.237ZM439.25 810.125H427.25C426.253 810.127 425.291 809.75 424.562 809.069C423.832 808.388 423.389 807.455 423.322 806.46C423.255 805.464 423.57 804.48 424.202 803.708C424.834 802.936 425.737 802.434 426.726 802.303C426.805 803.295 427.087 804.261 427.554 805.141C427.587 805.208 427.634 805.267 427.692 805.316C427.749 805.365 427.815 805.401 427.887 805.424C427.958 805.447 428.034 805.455 428.108 805.448C428.183 805.441 428.256 805.419 428.322 805.383C428.388 805.348 428.447 805.299 428.494 805.241C428.541 805.183 428.576 805.115 428.597 805.043C428.617 804.971 428.623 804.895 428.615 804.821C428.606 804.746 428.582 804.674 428.545 804.609C427.801 803.219 427.616 801.598 428.027 800.076C428.439 798.555 429.415 797.247 430.758 796.421C432.1 795.595 433.707 795.312 435.251 795.631C436.795 795.949 438.159 796.845 439.064 798.135C438.166 798.16 437.281 798.369 436.467 798.749C435.652 799.13 434.924 799.674 434.328 800.347C434.277 800.402 434.238 800.467 434.213 800.538C434.187 800.608 434.176 800.683 434.18 800.758C434.184 800.832 434.203 800.906 434.235 800.973C434.268 801.04 434.314 801.101 434.37 801.15C434.426 801.2 434.491 801.238 434.562 801.262C434.633 801.285 434.708 801.295 434.783 801.29C434.858 801.284 434.931 801.264 434.997 801.23C435.064 801.196 435.123 801.149 435.172 801.092C435.772 800.41 436.535 799.89 437.388 799.579C438.242 799.267 439.16 799.175 440.059 799.31C440.957 799.445 441.808 799.804 442.532 800.352C443.257 800.9 443.832 801.622 444.206 802.45C444.58 803.278 444.74 804.187 444.673 805.093C444.605 805.999 444.311 806.873 443.818 807.637C443.326 808.4 442.649 809.028 441.851 809.463C441.053 809.897 440.159 810.125 439.25 810.125Z" fill="#0F62FE"/>
<path d="M445.924 795.691C445.887 795.626 445.837 795.57 445.778 795.524C445.719 795.478 445.651 795.445 445.579 795.426C445.507 795.406 445.431 795.402 445.357 795.411C445.283 795.421 445.212 795.445 445.147 795.483L442.882 796.791C442.815 796.827 442.757 796.876 442.71 796.936C442.662 796.995 442.628 797.063 442.607 797.136C442.587 797.209 442.581 797.286 442.59 797.361C442.6 797.436 442.624 797.509 442.662 797.574C442.7 797.64 442.751 797.697 442.811 797.743C442.871 797.789 442.94 797.822 443.014 797.841C443.087 797.86 443.164 797.864 443.239 797.853C443.314 797.842 443.386 797.816 443.45 797.776L445.715 796.468C445.846 796.393 445.942 796.269 445.981 796.123C446.02 795.977 446 795.822 445.924 795.691Z" fill="#0F62FE"/>
<path d="M439.008 793.902C439.072 793.94 439.144 793.964 439.218 793.974C439.292 793.984 439.367 793.979 439.44 793.959C439.512 793.94 439.579 793.907 439.639 793.861C439.698 793.816 439.748 793.759 439.785 793.694L441.093 791.429C441.167 791.299 441.187 791.144 441.147 790.999C441.108 790.854 441.013 790.731 440.883 790.656C440.753 790.58 440.598 790.56 440.453 790.598C440.308 790.636 440.183 790.731 440.107 790.86L438.8 793.125C438.724 793.256 438.704 793.411 438.743 793.557C438.782 793.703 438.877 793.827 439.008 793.902Z" fill="#0F62FE"/>
<path d="M434 792.561C434.151 792.561 434.296 792.501 434.403 792.394C434.51 792.287 434.57 792.143 434.57 791.992V789.376C434.57 789.301 434.556 789.226 434.528 789.156C434.5 789.086 434.458 789.023 434.405 788.969C434.352 788.916 434.289 788.873 434.22 788.844C434.15 788.815 434.076 788.8 434.001 788.8C433.925 788.8 433.851 788.815 433.781 788.844C433.712 788.873 433.649 788.916 433.596 788.969C433.543 789.023 433.501 789.086 433.473 789.156C433.445 789.226 433.431 789.301 433.431 789.376V791.992C433.431 792.143 433.491 792.287 433.598 792.394C433.705 792.501 433.85 792.561 434 792.561Z" fill="#0F62FE"/>
<path d="M428.216 793.694C428.292 793.824 428.416 793.918 428.561 793.956C428.707 793.994 428.861 793.974 428.991 793.899C429.121 793.823 429.216 793.7 429.256 793.555C429.295 793.41 429.276 793.256 429.201 793.125L427.894 790.86C427.857 790.795 427.807 790.737 427.748 790.691C427.688 790.645 427.62 790.611 427.548 790.592C427.476 790.572 427.4 790.567 427.325 790.577C427.251 790.586 427.179 790.61 427.114 790.648C427.049 790.686 426.992 790.736 426.947 790.795C426.901 790.855 426.868 790.923 426.849 790.996C426.829 791.068 426.825 791.144 426.835 791.218C426.845 791.293 426.87 791.364 426.908 791.429L428.216 793.694Z" fill="#0F62FE"/>
<path d="M425.119 796.791L422.854 795.483C422.79 795.445 422.718 795.42 422.644 795.41C422.569 795.399 422.494 795.404 422.421 795.423C422.348 795.442 422.28 795.476 422.221 795.521C422.161 795.567 422.111 795.624 422.073 795.689C422.036 795.754 422.011 795.826 422.002 795.9C421.992 795.975 421.997 796.05 422.017 796.123C422.037 796.195 422.071 796.263 422.117 796.322C422.163 796.382 422.22 796.431 422.285 796.468L424.55 797.776C424.615 797.814 424.687 797.839 424.761 797.849C424.836 797.859 424.911 797.855 424.984 797.836C425.056 797.817 425.125 797.783 425.184 797.738C425.244 797.692 425.294 797.635 425.331 797.57C425.369 797.505 425.393 797.433 425.403 797.359C425.413 797.284 425.407 797.209 425.388 797.136C425.368 797.064 425.334 796.996 425.288 796.937C425.242 796.877 425.185 796.828 425.119 796.791Z" fill="#0F62FE"/>
</g>
<circle cx="435.5" cy="857.5" r="2.5" fill="#161616"/>
<circle cx="462.5" cy="881.5" r="2.5" fill="#161616"/>
<circle cx="462.5" cy="905.5" r="2.5" fill="#161616"/>
<circle cx="462.5" cy="929.5" r="2.5" fill="#161616"/>
<circle cx="435.5" cy="953.5" r="2.5" fill="#161616"/>
<circle cx="435.5" cy="977.5" r="2.5" fill="#161616"/>
<circle cx="435.5" cy="1001.5" r="2.5" fill="#161616"/>
<circle cx="462.5" cy="1025.5" r="2.5" fill="#161616"/>
<circle cx="462.5" cy="1049.5" r="2.5" fill="#161616"/>
<text fill="#161616" xml:space="preserve" style="white-space: pre" font-family="IBM Plex Sans" font-size="20" font-weight="600" letter-spacing="0px"><tspan x="1337" y="104.5">Security and Compliance</tspan></text>
<rect width="32" height="32" transform="translate(1337 48)" fill="white" fill-opacity="0.01"/>
<path d="M1367 66V71.5C1367 73 1366.1 74.3 1364.7 75L1363 75.8L1361.3 75C1359.9 74.4 1359 73 1359 71.5V66H1367ZM1369 64H1357V71.5C1357 73.7 1358.3 75.8 1360.4 76.8L1363 78L1365.6 76.8C1367.7 75.8 1369 73.8 1369 71.5V64Z" fill="#161616"/>
<path d="M1353 73H1344.5C1340.4 73 1337 69.6 1337 65.5C1337 61.8 1339.7 58.8 1343.2 58.1C1344.1 53.4 1348.2 50 1353 50C1358.5 50 1363 54.5 1363 60H1361C1361 55.6 1357.4 52 1353 52C1348.9 52 1345.5 55.1 1345 59.1V60H1344.1C1341.2 60.2 1339 62.6 1339 65.5C1339 68.5 1341.5 71 1344.5 71H1353V73Z" fill="#161616"/>
<rect x="1322" y="329" width="348" height="130" rx="3" fill="#EDF5FF"/>
<rect x="1322" y="329" width="348" height="130" rx="3" stroke="#A6C8FF" stroke-width="2"/>
<text fill="#161616" xml:space="preserve" style="white-space: pre" font-family="IBM Plex Sans" font-size="18" letter-spacing="0px"><tspan x="1337" y="394.75">IBM Cloud&#x2028;</tspan><tspan x="1337" y="418.75">Security and Compliance Center </tspan><tspan x="1337" y="442.75">Workload Protection</tspan></text>
<g clip-path="url(#clip9_17_2642)">
<rect width="24" height="24" transform="translate(1337 344)" fill="white" fill-opacity="0.01"/>
<path d="M1355.44 354.238C1354.69 352.841 1353.51 351.724 1352.08 351.056C1350.64 350.388 1349.03 350.205 1347.48 350.534C1345.93 350.863 1344.53 351.687 1343.49 352.881C1342.45 354.075 1341.83 355.575 1341.71 357.154C1340.43 357.293 1339.24 357.919 1338.4 358.906C1337.56 359.892 1337.13 361.162 1337.2 362.456C1337.27 363.749 1337.83 364.967 1338.77 365.859C1339.71 366.751 1340.96 367.249 1342.25 367.25H1354.25C1355.89 367.251 1357.47 366.64 1358.68 365.536C1359.89 364.432 1360.64 362.916 1360.79 361.285C1360.94 359.655 1360.47 358.027 1359.48 356.723C1358.49 355.419 1357.05 354.533 1355.44 354.238ZM1354.25 366.125H1342.25C1341.25 366.127 1340.29 365.75 1339.56 365.069C1338.83 364.388 1338.39 363.456 1338.32 362.46C1338.26 361.464 1338.57 360.481 1339.2 359.709C1339.83 358.937 1340.74 358.434 1341.73 358.303C1341.81 359.296 1342.09 360.261 1342.55 361.141C1342.59 361.208 1342.63 361.268 1342.69 361.316C1342.75 361.365 1342.82 361.402 1342.89 361.424C1342.96 361.447 1343.03 361.455 1343.11 361.448C1343.18 361.441 1343.26 361.419 1343.32 361.384C1343.39 361.348 1343.45 361.3 1343.49 361.241C1343.54 361.183 1343.58 361.116 1343.6 361.043C1343.62 360.971 1343.62 360.896 1343.61 360.821C1343.61 360.747 1343.58 360.674 1343.54 360.609C1342.8 359.219 1342.62 357.598 1343.03 356.076C1343.44 354.555 1344.42 353.247 1345.76 352.421C1347.1 351.595 1348.71 351.312 1350.25 351.631C1351.79 351.949 1353.16 352.845 1354.06 354.135C1353.17 354.16 1352.28 354.369 1351.47 354.75C1350.65 355.13 1349.92 355.674 1349.33 356.348C1349.28 356.403 1349.24 356.467 1349.21 356.538C1349.19 356.608 1349.18 356.683 1349.18 356.758C1349.18 356.833 1349.2 356.906 1349.24 356.973C1349.27 357.041 1349.31 357.101 1349.37 357.151C1349.43 357.2 1349.49 357.238 1349.56 357.262C1349.63 357.286 1349.71 357.295 1349.78 357.29C1349.86 357.284 1349.93 357.264 1350 357.23C1350.06 357.196 1350.12 357.149 1350.17 357.092C1350.77 356.41 1351.53 355.89 1352.39 355.579C1353.24 355.268 1354.16 355.175 1355.06 355.311C1355.96 355.446 1356.81 355.804 1357.53 356.352C1358.26 356.901 1358.83 357.622 1359.21 358.45C1359.58 359.278 1359.74 360.187 1359.67 361.093C1359.6 361.999 1359.31 362.874 1358.82 363.637C1358.33 364.4 1357.65 365.028 1356.85 365.463C1356.05 365.897 1355.16 366.125 1354.25 366.125Z" fill="#0F62FE"/>
<path d="M1360.92 351.691C1360.89 351.627 1360.84 351.57 1360.78 351.524C1360.72 351.479 1360.65 351.445 1360.58 351.426C1360.51 351.407 1360.43 351.402 1360.36 351.412C1360.28 351.421 1360.21 351.446 1360.15 351.483L1357.88 352.791C1357.82 352.827 1357.76 352.877 1357.71 352.936C1357.66 352.995 1357.63 353.063 1357.61 353.136C1357.59 353.209 1357.58 353.286 1357.59 353.361C1357.6 353.436 1357.62 353.509 1357.66 353.574C1357.7 353.64 1357.75 353.698 1357.81 353.743C1357.87 353.789 1357.94 353.823 1358.01 353.841C1358.09 353.86 1358.16 353.864 1358.24 353.853C1358.31 353.842 1358.39 353.816 1358.45 353.776L1360.72 352.469C1360.85 352.393 1360.94 352.269 1360.98 352.123C1361.02 351.977 1361 351.822 1360.92 351.691Z" fill="#0F62FE"/>
<path d="M1354.01 349.903C1354.07 349.94 1354.14 349.964 1354.22 349.974C1354.29 349.984 1354.37 349.979 1354.44 349.96C1354.51 349.94 1354.58 349.907 1354.64 349.861C1354.7 349.816 1354.75 349.759 1354.79 349.694L1356.09 347.429C1356.17 347.299 1356.19 347.144 1356.15 346.999C1356.11 346.854 1356.01 346.731 1355.88 346.656C1355.75 346.581 1355.6 346.56 1355.45 346.598C1355.31 346.637 1355.18 346.731 1355.11 346.86L1353.8 349.125C1353.72 349.256 1353.7 349.411 1353.74 349.557C1353.78 349.703 1353.88 349.827 1354.01 349.903Z" fill="#0F62FE"/>
<path d="M1349 348.561C1349.15 348.561 1349.3 348.501 1349.4 348.394C1349.51 348.288 1349.57 348.143 1349.57 347.992V345.376C1349.57 345.301 1349.56 345.226 1349.53 345.156C1349.5 345.087 1349.46 345.023 1349.41 344.97C1349.35 344.916 1349.29 344.873 1349.22 344.844C1349.15 344.815 1349.08 344.801 1349 344.801C1348.93 344.801 1348.85 344.815 1348.78 344.844C1348.71 344.873 1348.65 344.916 1348.6 344.97C1348.54 345.023 1348.5 345.087 1348.47 345.156C1348.44 345.226 1348.43 345.301 1348.43 345.376V347.992C1348.43 348.143 1348.49 348.288 1348.6 348.394C1348.7 348.501 1348.85 348.561 1349 348.561Z" fill="#0F62FE"/>
<path d="M1343.22 349.694C1343.29 349.824 1343.42 349.918 1343.56 349.956C1343.71 349.995 1343.86 349.974 1343.99 349.899C1344.12 349.824 1344.22 349.7 1344.26 349.555C1344.3 349.41 1344.28 349.256 1344.2 349.125L1342.89 346.86C1342.86 346.795 1342.81 346.738 1342.75 346.692C1342.69 346.645 1342.62 346.612 1342.55 346.592C1342.48 346.572 1342.4 346.567 1342.33 346.577C1342.25 346.586 1342.18 346.611 1342.11 346.648C1342.05 346.686 1341.99 346.736 1341.95 346.796C1341.9 346.855 1341.87 346.923 1341.85 346.996C1341.83 347.068 1341.82 347.144 1341.83 347.219C1341.85 347.293 1341.87 347.365 1341.91 347.429L1343.22 349.694Z" fill="#0F62FE"/>
<path d="M1340.12 352.791L1337.85 351.483C1337.79 351.445 1337.72 351.42 1337.64 351.41C1337.57 351.4 1337.49 351.404 1337.42 351.423C1337.35 351.443 1337.28 351.476 1337.22 351.522C1337.16 351.567 1337.11 351.624 1337.07 351.689C1337.04 351.754 1337.01 351.826 1337 351.9C1336.99 351.975 1337 352.05 1337.02 352.123C1337.04 352.195 1337.07 352.263 1337.12 352.323C1337.16 352.382 1337.22 352.431 1337.29 352.469L1339.55 353.776C1339.62 353.814 1339.69 353.839 1339.76 353.85C1339.84 353.86 1339.91 353.855 1339.98 353.836C1340.06 353.817 1340.12 353.783 1340.18 353.738C1340.24 353.692 1340.29 353.635 1340.33 353.57C1340.37 353.505 1340.39 353.434 1340.4 353.359C1340.41 353.285 1340.41 353.209 1340.39 353.136C1340.37 353.064 1340.33 352.996 1340.29 352.937C1340.24 352.878 1340.18 352.828 1340.12 352.791Z" fill="#0F62FE"/>
</g>
<rect x="1322" y="477" width="348" height="130" rx="3" fill="#EDF5FF"/>
<rect x="1322" y="477" width="348" height="130" rx="3" stroke="#A6C8FF" stroke-width="2"/>
<text fill="#161616" xml:space="preserve" style="white-space: pre" font-family="IBM Plex Sans" font-size="18" letter-spacing="0px"><tspan x="1337" y="542.75">IBM Cloud&#x2028;</tspan><tspan x="1337" y="566.75">Key Protect (BYOK/ KYOK)</tspan></text>
<g clip-path="url(#clip10_17_2642)">
<rect width="24" height="24" transform="translate(1337 492)" fill="white" fill-opacity="0.01"/>
<path d="M1355.44 502.238C1354.69 500.841 1353.51 499.724 1352.08 499.056C1350.64 498.388 1349.03 498.205 1347.48 498.534C1345.93 498.863 1344.53 499.687 1343.49 500.881C1342.45 502.075 1341.83 503.575 1341.71 505.154C1340.43 505.293 1339.24 505.919 1338.4 506.906C1337.56 507.892 1337.13 509.162 1337.2 510.456C1337.27 511.749 1337.83 512.967 1338.77 513.859C1339.71 514.751 1340.96 515.249 1342.25 515.25H1354.25C1355.89 515.251 1357.47 514.64 1358.68 513.536C1359.89 512.432 1360.64 510.916 1360.79 509.285C1360.94 507.655 1360.47 506.027 1359.48 504.723C1358.49 503.419 1357.05 502.533 1355.44 502.238ZM1354.25 514.125H1342.25C1341.25 514.127 1340.29 513.75 1339.56 513.069C1338.83 512.388 1338.39 511.456 1338.32 510.46C1338.26 509.464 1338.57 508.481 1339.2 507.709C1339.83 506.937 1340.74 506.434 1341.73 506.303C1341.81 507.296 1342.09 508.261 1342.55 509.141C1342.59 509.208 1342.63 509.268 1342.69 509.316C1342.75 509.365 1342.82 509.402 1342.89 509.424C1342.96 509.447 1343.03 509.455 1343.11 509.448C1343.18 509.441 1343.26 509.419 1343.32 509.384C1343.39 509.348 1343.45 509.3 1343.49 509.241C1343.54 509.183 1343.58 509.116 1343.6 509.043C1343.62 508.971 1343.62 508.896 1343.61 508.821C1343.61 508.747 1343.58 508.674 1343.54 508.609C1342.8 507.219 1342.62 505.598 1343.03 504.076C1343.44 502.555 1344.42 501.247 1345.76 500.421C1347.1 499.595 1348.71 499.312 1350.25 499.631C1351.79 499.949 1353.16 500.845 1354.06 502.135C1353.17 502.16 1352.28 502.369 1351.47 502.75C1350.65 503.13 1349.92 503.674 1349.33 504.348C1349.28 504.403 1349.24 504.467 1349.21 504.538C1349.19 504.608 1349.18 504.683 1349.18 504.758C1349.18 504.833 1349.2 504.906 1349.24 504.973C1349.27 505.041 1349.31 505.101 1349.37 505.151C1349.43 505.2 1349.49 505.238 1349.56 505.262C1349.63 505.286 1349.71 505.295 1349.78 505.29C1349.86 505.284 1349.93 505.264 1350 505.23C1350.06 505.196 1350.12 505.149 1350.17 505.092C1350.77 504.41 1351.53 503.89 1352.39 503.579C1353.24 503.268 1354.16 503.175 1355.06 503.311C1355.96 503.446 1356.81 503.804 1357.53 504.352C1358.26 504.901 1358.83 505.622 1359.21 506.45C1359.58 507.278 1359.74 508.187 1359.67 509.093C1359.6 509.999 1359.31 510.874 1358.82 511.637C1358.33 512.4 1357.65 513.028 1356.85 513.463C1356.05 513.897 1355.16 514.125 1354.25 514.125Z" fill="#0F62FE"/>
<path d="M1360.92 499.691C1360.89 499.627 1360.84 499.57 1360.78 499.524C1360.72 499.479 1360.65 499.445 1360.58 499.426C1360.51 499.407 1360.43 499.402 1360.36 499.412C1360.28 499.421 1360.21 499.446 1360.15 499.483L1357.88 500.791C1357.82 500.827 1357.76 500.877 1357.71 500.936C1357.66 500.995 1357.63 501.063 1357.61 501.136C1357.59 501.209 1357.58 501.286 1357.59 501.361C1357.6 501.436 1357.62 501.509 1357.66 501.574C1357.7 501.64 1357.75 501.698 1357.81 501.743C1357.87 501.789 1357.94 501.823 1358.01 501.841C1358.09 501.86 1358.16 501.864 1358.24 501.853C1358.31 501.842 1358.39 501.816 1358.45 501.776L1360.72 500.469C1360.85 500.393 1360.94 500.269 1360.98 500.123C1361.02 499.977 1361 499.822 1360.92 499.691Z" fill="#0F62FE"/>
<path d="M1354.01 497.903C1354.07 497.94 1354.14 497.964 1354.22 497.974C1354.29 497.984 1354.37 497.979 1354.44 497.96C1354.51 497.94 1354.58 497.907 1354.64 497.861C1354.7 497.816 1354.75 497.759 1354.79 497.694L1356.09 495.429C1356.17 495.299 1356.19 495.144 1356.15 494.999C1356.11 494.854 1356.01 494.731 1355.88 494.656C1355.75 494.581 1355.6 494.56 1355.45 494.598C1355.31 494.637 1355.18 494.731 1355.11 494.86L1353.8 497.125C1353.72 497.256 1353.7 497.411 1353.74 497.557C1353.78 497.703 1353.88 497.827 1354.01 497.903Z" fill="#0F62FE"/>
<path d="M1349 496.561C1349.15 496.561 1349.3 496.501 1349.4 496.394C1349.51 496.288 1349.57 496.143 1349.57 495.992V493.376C1349.57 493.301 1349.56 493.226 1349.53 493.156C1349.5 493.087 1349.46 493.023 1349.41 492.97C1349.35 492.916 1349.29 492.873 1349.22 492.844C1349.15 492.815 1349.08 492.801 1349 492.801C1348.93 492.801 1348.85 492.815 1348.78 492.844C1348.71 492.873 1348.65 492.916 1348.6 492.97C1348.54 493.023 1348.5 493.087 1348.47 493.156C1348.44 493.226 1348.43 493.301 1348.43 493.376V495.992C1348.43 496.143 1348.49 496.288 1348.6 496.394C1348.7 496.501 1348.85 496.561 1349 496.561Z" fill="#0F62FE"/>
<path d="M1343.22 497.694C1343.29 497.824 1343.42 497.918 1343.56 497.956C1343.71 497.995 1343.86 497.974 1343.99 497.899C1344.12 497.824 1344.22 497.7 1344.26 497.555C1344.3 497.41 1344.28 497.256 1344.2 497.125L1342.89 494.86C1342.86 494.795 1342.81 494.738 1342.75 494.692C1342.69 494.645 1342.62 494.612 1342.55 494.592C1342.48 494.572 1342.4 494.567 1342.33 494.577C1342.25 494.586 1342.18 494.611 1342.11 494.648C1342.05 494.686 1341.99 494.736 1341.95 494.796C1341.9 494.855 1341.87 494.923 1341.85 494.996C1341.83 495.068 1341.82 495.144 1341.83 495.219C1341.85 495.293 1341.87 495.365 1341.91 495.429L1343.22 497.694Z" fill="#0F62FE"/>
<path d="M1340.12 500.791L1337.85 499.483C1337.79 499.445 1337.72 499.42 1337.64 499.41C1337.57 499.4 1337.49 499.404 1337.42 499.423C1337.35 499.443 1337.28 499.476 1337.22 499.522C1337.16 499.567 1337.11 499.624 1337.07 499.689C1337.04 499.754 1337.01 499.826 1337 499.9C1336.99 499.975 1337 500.05 1337.02 500.123C1337.04 500.195 1337.07 500.263 1337.12 500.323C1337.16 500.382 1337.22 500.431 1337.29 500.469L1339.55 501.776C1339.62 501.814 1339.69 501.839 1339.76 501.85C1339.84 501.86 1339.91 501.855 1339.98 501.836C1340.06 501.817 1340.12 501.783 1340.18 501.738C1340.24 501.692 1340.29 501.635 1340.33 501.57C1340.37 501.505 1340.39 501.434 1340.4 501.359C1340.41 501.285 1340.41 501.209 1340.39 501.136C1340.37 501.064 1340.33 500.996 1340.29 500.937C1340.24 500.878 1340.18 500.828 1340.12 500.791Z" fill="#0F62FE"/>
</g>
<rect x="1322" y="773" width="348" height="130" rx="3" fill="#F4F4F4"/>
<rect x="1322" y="773" width="348" height="130" rx="3" stroke="#E0E0E0" stroke-width="2"/>
<text fill="#161616" xml:space="preserve" style="white-space: pre" font-family="IBM Plex Sans" font-size="18" letter-spacing="0px"><tspan x="1337" y="806.75">3rd Party&#xa0;Virtual&#xa0;Network&#xa0;&#10;</tspan><tspan x="1337" y="832.75">Functions (VNFs)&#x2028;</tspan><tspan x="1337" y="858.75">RYO / BYOL</tspan></text>
<rect width="1" height="1056" transform="translate(1296 32)" fill="#E0E0E0"/>
<path opacity="0.7" d="M1703 1120H0V0H1703V1120ZM20 20V169H1286V20H20Z" fill="white"/>
</g>
<defs>
<clipPath id="clip0_17_2642">
<rect width="1703" height="1120" fill="white"/>
</clipPath>
<clipPath id="clip1_17_2642">
<rect width="24" height="24" fill="white" transform="translate(422 48)"/>
</clipPath>
<clipPath id="clip2_17_2642">
<rect width="24" height="24" fill="white" transform="translate(422 196)"/>
</clipPath>
<clipPath id="clip3_17_2642">
<rect width="24" height="24" fill="white" transform="translate(422 344)"/>
</clipPath>
<clipPath id="clip4_17_2642">
<rect width="24" height="24" fill="white" transform="translate(422 492)"/>
</clipPath>
<clipPath id="clip5_17_2642">
<rect width="24" height="24" fill="white" transform="translate(863 492)"/>
</clipPath>
<clipPath id="clip6_17_2642">
<rect width="24" height="24" fill="white" transform="translate(422 640)"/>
</clipPath>
<clipPath id="clip7_17_2642">
<rect width="24" height="24" fill="white" transform="translate(863 640)"/>
</clipPath>
<clipPath id="clip8_17_2642">
<rect width="24" height="24" fill="white" transform="translate(422 788)"/>
</clipPath>
<clipPath id="clip9_17_2642">
<rect width="24" height="24" fill="white" transform="translate(1337 344)"/>
</clipPath>
<clipPath id="clip10_17_2642">
<rect width="24" height="24" fill="white" transform="translate(1337 492)"/>
</clipPath>
</defs>
</svg>
