<svg width="1703" height="1120" viewBox="0 0 1703 1120" fill="none" xmlns="http://www.w3.org/2000/svg">
<rect width="1703" height="1120" fill="#F5F5F5"/>
<g clip-path="url(#clip0_17_2642)">
<rect width="1703" height="1120" fill="white"/>
<mask id="path-1-inside-1_17_2642" fill="white">
<path d="M32 32H390V172H32V32Z"/>
</mask>
<path d="M390 172V171H32V172V173H390V172Z" fill="#E0E0E0" mask="url(#path-1-inside-1_17_2642)"/>
<text fill="#161616" xml:space="preserve" style="white-space: pre" font-family="IBM Plex Sans" font-size="20" font-weight="600" letter-spacing="0px"><tspan x="48" y="104.5">Workload Migration</tspan></text>
<rect width="32" height="32" transform="translate(48 48)" fill="white" fill-opacity="0.01"/>
<path d="M70 78H58C56.9 78 56 77.1 56 76V73H58V76H70V73H72V76C72 77.1 71.1 78 70 78Z" fill="#161616"/>
<path d="M63 62.8V73H65V62.8L67.6 65.4L69 64L64 59L59 64L60.4 65.4L63 62.8Z" fill="#161616"/>
<path d="M72.8 57.1C71.9 53 68.3 50 64 50C59.7 50 56.1 53 55.2 57.1C52.2 57.7 50 60.4 50 63.5C50 67.1 52.9 70 56.5 70H60V68H56.5C54 68 52 66 52 63.5C52 61.2 53.8 59.2 56.1 59H57L57.1 58.2C57.5 54.6 60.5 52 64 52C67.5 52 70.5 54.6 70.9 58.1L71 59L71.8 59.1C74.1 59.3 75.9 61.3 75.9 63.6C75.9 66.1 73.9 68.1 71.4 68.1H68V70.1H71.5C75.1 70.1 78 67.2 78 63.6C78 60.4 75.8 57.7 72.8 57.1Z" fill="#161616"/>
<mask id="path-5-inside-2_17_2642" fill="white">
<path d="M32 180H390V320H32V180Z"/>
</mask>
<path d="M390 320V319H32V320V321H390V320Z" fill="#E0E0E0" mask="url(#path-5-inside-2_17_2642)"/>
<text fill="#161616" xml:space="preserve" style="white-space: pre" font-family="IBM Plex Sans" font-size="20" font-weight="600" letter-spacing="0px"><tspan x="48" y="252.5">Resiliency, backup and &#10;</tspan><tspan x="48" y="278.5">disaster recovery </tspan></text>
<rect width="32" height="32" transform="translate(48 196)" fill="white" fill-opacity="0.01"/>
<path d="M63 220V222H55.5C51.3 222 48 218.6 48 214.5C48 210.9 50.6 207.8 54.1 207.1C54.1 207.1 54.7 207 55 207H55.2L53.6 205.4L55 204L59 208L55 212L53.6 210.6L55.2 209H55C52.6 209.2 50.4 211.3 50.1 213.7C49.6 217.1 52.2 220 55.5 220H63ZM66 220C65.5 220 65 220.5 65 221C65 221.5 65.5 222 66 222C66.5 222 67 221.5 67 221C67 220.5 66.5 220 66 220ZM73.9 207.1L73.8 207C73 203 69.9 199.9 65.9 199.2C65.3 199 64.6 199 64 199C61.1 199 58.4 200.3 56.6 202.3L58.1 203.8C59.3 202.4 61 201.3 63 201.1C64 201 64.9 201 65.9 201.2C69.1 201.9 71.4 204.6 72 207.7L72.2 208.7C72.2 208.767 72.2333 208.8 72.3 208.8L73.4 209C74.6 209.2 75.7 209.7 76.5 210.5C77.8 211.8 78.4 213.6 78 215.4C77.5 217.9 75.5 219.7 73 219.9L74.5 218.3L73 217L69 221L73 225L74.4 223.6L72.8 222C76.3 221.8 79.2 219.3 79.9 215.9C80 215.4 80 215 80 214.6C80 210.9 77.5 207.8 73.9 207.1Z" fill="#161616"/>
<mask id="path-9-inside-3_17_2642" fill="white">
<path d="M32 328H390V468H32V328Z"/>
</mask>
<path d="M390 468V467H32V468V469H390V468Z" fill="#E0E0E0" mask="url(#path-9-inside-3_17_2642)"/>
<text fill="#161616" xml:space="preserve" style="white-space: pre" font-family="IBM Plex Sans" font-size="20" font-weight="600" letter-spacing="0px"><tspan x="48" y="400.5">Management and Observability</tspan></text>
<rect width="32" height="32" transform="translate(48 344)" fill="white" fill-opacity="0.01"/>
<path d="M76 360V366H52V350H59V348H52C51.4696 348 50.9609 348.211 50.5858 348.586C50.2107 348.961 50 349.47 50 350V366C50 366.531 50.2107 367.039 50.5858 367.414C50.9609 367.789 51.4696 368 52 368H60V372H56V374H72V372H68V368H76C76.5304 368 77.0391 367.789 77.4142 367.414C77.7893 367.039 78 366.531 78 366V360H76ZM66 372H62V368H66V372Z" fill="#161616"/>
<path d="M66 362H65.99C65.7745 361.998 65.5654 361.926 65.3941 361.795C65.2227 361.665 65.0981 361.482 65.0389 361.275L63.2456 355H59V353H64C64.2173 353 64.4287 353.071 64.6022 353.202C64.7756 353.333 64.9018 353.516 64.9615 353.725L66.0357 357.484L69.0445 347.706C69.1093 347.503 69.2366 347.325 69.4081 347.198C69.5796 347.072 69.7868 347.002 70 347C70.2106 346.997 70.4166 347.062 70.5875 347.185C70.7584 347.308 70.8851 347.483 70.9487 347.684L72.7207 353H78V355H72C71.7901 355 71.5855 354.934 71.4153 354.811C71.245 354.689 71.1177 354.515 71.0513 354.316L70.0381 351.276L66.9556 361.294C66.8927 361.499 66.766 361.677 66.594 361.804C66.422 361.932 66.2138 362 66 362Z" fill="#161616"/>
<mask id="path-13-inside-4_17_2642" fill="white">
<path d="M32 476H390V616H32V476Z"/>
</mask>
<path d="M390 616V615H32V616V617H390V616Z" fill="#E0E0E0" mask="url(#path-13-inside-4_17_2642)"/>
<text fill="#161616" xml:space="preserve" style="white-space: pre" font-family="IBM Plex Sans" font-size="20" font-weight="600" letter-spacing="0px"><tspan x="48" y="548.5">Storage</tspan></text>
<rect width="32" height="32" transform="translate(48 492)" fill="white" fill-opacity="0.01"/>
<path d="M57 504V502H52C51.4696 502 50.9609 502.211 50.5858 502.586C50.2107 502.961 50 503.47 50 504V520C50 520.53 50.2107 521.039 50.5858 521.414C50.9609 521.789 51.4696 522 52 522H68C68.5304 522 69.0391 521.789 69.4142 521.414C69.7893 521.039 70 520.53 70 520V511H68V520H52V504" fill="#161616"/>
<path d="M70 504H62V496H70V504ZM60 496V504C60 504.53 60.2107 505.039 60.5858 505.414C60.9609 505.789 61.4696 506 62 506H70C70.5304 506 71.0391 505.789 71.4142 505.414C71.7893 505.039 72 504.53 72 504V496C72 495.47 71.7893 494.961 71.4142 494.586C71.0391 494.211 70.5304 494 70 494H62C61.4696 494 60.9609 494.211 60.5858 494.586C60.2107 494.961 60 495.47 60 496Z" fill="#161616"/>
<path d="M62 510V514H58V510H62ZM56 510V514C56 514.53 56.2107 515.039 56.5858 515.414C56.9609 515.789 57.4696 516 58 516H62C62.5304 516 63.0391 515.789 63.4142 515.414C63.7893 515.039 64 514.53 64 514V510C64 509.47 63.7893 508.961 63.4142 508.586C63.0391 508.211 62.5304 508 62 508H58C57.4696 508 56.9609 508.211 56.5858 508.586C56.2107 508.961 56 509.47 56 510Z" fill="#161616"/>
<path d="M76 509V511H74V509H76ZM72 508V512C72 512.265 72.1054 512.52 72.2929 512.707C72.4804 512.895 72.7348 513 73 513H77C77.2652 513 77.5196 512.895 77.7071 512.707C77.8946 512.52 78 512.265 78 512V508C78 507.735 77.8946 507.48 77.7071 507.293C77.5196 507.105 77.2652 507 77 507H73C72.7348 507 72.4804 507.105 72.2929 507.293C72.1054 507.48 72 507.735 72 508Z" fill="#161616"/>
<mask id="path-17-inside-5_17_2642" fill="white">
<path d="M32 624H390V764H32V624Z"/>
</mask>
<path d="M390 764V763H32V764V765H390V764Z" fill="#E0E0E0" mask="url(#path-17-inside-5_17_2642)"/>
<text fill="#161616" xml:space="preserve" style="white-space: pre" font-family="IBM Plex Sans" font-size="20" font-weight="600" letter-spacing="0px"><tspan x="48" y="696.5">Compute</tspan></text>
<rect width="32" height="32" transform="translate(48 640)" fill="white" fill-opacity="0.01"/>
<path d="M59 651V661H69V651H59ZM67 659H61V653H67V659Z" fill="#161616"/>
<path d="M78 653V651H74V648C74 647.47 73.7893 646.961 73.4142 646.586C73.0391 646.211 72.5304 646 72 646H69V642H67V646H61V642H59V646H56C55.4696 646 54.9609 646.211 54.5858 646.586C54.2107 646.961 54 647.47 54 648V651H50V653H54V659H50V661H54V664C54 664.53 54.2107 665.039 54.5858 665.414C54.9609 665.789 55.4696 666 56 666H59V670H61V666H67V670H69V666H72C72.5304 666 73.0391 665.789 73.4142 665.414C73.7893 665.039 74 664.53 74 664V661H78V659H74V653H78ZM72 664H56V648H72V664Z" fill="#161616"/>
<text fill="#161616" xml:space="preserve" style="white-space: pre" font-family="IBM Plex Sans" font-size="20" font-weight="600" letter-spacing="0px"><tspan x="48" y="844.5">Network and Interconnectivity</tspan></text>
<rect width="32" height="32" transform="translate(48 788)" fill="white" fill-opacity="0.01"/>
<path d="M64.9999 805H70.142C70.3854 805.943 70.9643 806.764 71.7701 807.311C72.5758 807.857 73.5532 808.091 74.519 807.968C75.4849 807.845 76.3728 807.375 77.0164 806.644C77.66 805.914 78.015 804.974 78.015 804C78.015 803.026 77.66 802.086 77.0164 801.356C76.3728 800.625 75.4849 800.155 74.519 800.032C73.5532 799.909 72.5758 800.143 71.7701 800.689C70.9643 801.236 70.3854 802.057 70.142 803H64.9999V795H70.142C70.3854 795.943 70.9643 796.764 71.7701 797.311C72.5758 797.857 73.5532 798.091 74.519 797.968C75.4849 797.845 76.3728 797.375 77.0164 796.644C77.66 795.914 78.015 794.974 78.015 794C78.015 793.026 77.66 792.086 77.0164 791.356C76.3728 790.625 75.4849 790.155 74.519 790.032C73.5532 789.909 72.5758 790.143 71.7701 790.689C70.9643 791.236 70.3854 792.057 70.142 793H64.9999C64.4697 793.001 63.9613 793.212 63.5864 793.586C63.2115 793.961 63.0006 794.47 62.9999 795V803H57.8578C57.6145 802.057 57.0356 801.236 56.2298 800.689C55.4241 800.143 54.4467 799.909 53.4808 800.032C52.515 800.155 51.6271 800.625 50.9835 801.356C50.3399 802.086 49.9849 803.026 49.9849 804C49.9849 804.974 50.3399 805.914 50.9835 806.644C51.6271 807.375 52.515 807.845 53.4808 807.968C54.4467 808.091 55.4241 807.857 56.2298 807.311C57.0356 806.764 57.6145 805.943 57.8578 805H62.9999V813C63.0006 813.53 63.2115 814.039 63.5864 814.414C63.9613 814.788 64.4697 814.999 64.9999 815H70.142C70.3854 815.943 70.9643 816.764 71.7701 817.311C72.5758 817.857 73.5532 818.091 74.519 817.968C75.4849 817.845 76.3728 817.375 77.0164 816.644C77.66 815.914 78.015 814.974 78.015 814C78.015 813.026 77.66 812.086 77.0164 811.356C76.3728 810.625 75.4849 810.155 74.519 810.032C73.5532 809.909 72.5758 810.143 71.7701 810.689C70.9643 811.236 70.3854 812.057 70.142 813H64.9999V805ZM73.9999 802C74.3955 802 74.7822 802.117 75.1111 802.337C75.44 802.557 75.6963 802.869 75.8477 803.235C75.9991 803.6 76.0387 804.002 75.9615 804.39C75.8843 804.778 75.6939 805.135 75.4142 805.414C75.1345 805.694 74.7781 805.884 74.3901 805.962C74.0022 806.039 73.6 805.999 73.2346 805.848C72.8691 805.696 72.5568 805.44 72.337 805.111C72.1172 804.782 71.9999 804.396 71.9999 804C72.0006 803.47 72.2115 802.961 72.5864 802.586C72.9613 802.212 73.4697 802.001 73.9999 802V802ZM73.9999 792C74.3955 792 74.7822 792.117 75.1111 792.337C75.44 792.557 75.6963 792.869 75.8477 793.235C75.9991 793.6 76.0387 794.002 75.9615 794.39C75.8843 794.778 75.6939 795.135 75.4142 795.414C75.1345 795.694 74.7781 795.884 74.3901 795.962C74.0022 796.039 73.6 795.999 73.2346 795.848C72.8691 795.696 72.5568 795.44 72.337 795.111C72.1172 794.782 71.9999 794.396 71.9999 794C72.0006 793.47 72.2115 792.961 72.5864 792.586C72.9613 792.212 73.4697 792.001 73.9999 792V792ZM53.9999 806C53.6044 806 53.2177 805.883 52.8888 805.663C52.5599 805.443 52.3036 805.131 52.1522 804.765C52.0008 804.4 51.9612 803.998 52.0384 803.61C52.1155 803.222 52.306 802.866 52.5857 802.586C52.8654 802.306 53.2218 802.116 53.6098 802.038C53.9977 801.961 54.3999 802.001 54.7653 802.152C55.1308 802.304 55.4431 802.56 55.6629 802.889C55.8826 803.218 55.9999 803.604 55.9999 804C55.9993 804.53 55.7884 805.039 55.4135 805.414C55.0385 805.788 54.5302 805.999 53.9999 806V806ZM73.9999 812C74.3955 812 74.7822 812.117 75.1111 812.337C75.44 812.557 75.6963 812.869 75.8477 813.235C75.9991 813.6 76.0387 814.002 75.9615 814.39C75.8843 814.778 75.6939 815.135 75.4142 815.414C75.1345 815.694 74.7781 815.884 74.3901 815.962C74.0022 816.039 73.6 815.999 73.2346 815.848C72.8691 815.696 72.5568 815.44 72.337 815.111C72.1172 814.782 71.9999 814.396 71.9999 814C72.0006 813.47 72.2115 812.961 72.5864 812.586C72.9613 812.212 73.4697 812.001 73.9999 812Z" fill="#161616"/>
<rect x="407" y="33" width="423" height="130" rx="3" fill="#EDF5FF"/>
<rect x="407" y="33" width="423" height="130" rx="3" stroke="#A6C8FF" stroke-width="2"/>
<text fill="#161616" xml:space="preserve" style="white-space: pre" font-family="IBM Plex Sans" font-size="18" letter-spacing="0px"><tspan x="422" y="98.75">IBM Consulting / Expert Labs</tspan></text>
<g clip-path="url(#clip1_17_2642)">
<rect width="24" height="24" transform="translate(422 48)" fill="white" fill-opacity="0.01"/>
<path d="M440.435 58.2376C439.69 56.8409 438.511 55.7244 437.075 55.0564C435.64 54.3884 434.026 54.2051 432.478 54.5343C430.929 54.8635 429.53 55.6872 428.49 56.8813C427.45 58.0753 426.827 59.575 426.714 61.1542C425.427 61.2927 424.241 61.9195 423.401 62.9057C422.562 63.8919 422.132 65.1624 422.2 66.4558C422.269 67.7492 422.831 68.9671 423.77 69.859C424.709 70.7508 425.955 71.2487 427.25 71.2501H439.25C440.887 71.2511 442.466 70.6397 443.676 69.536C444.885 68.4323 445.638 66.9161 445.787 65.2854C445.935 63.6547 445.469 62.0274 444.478 60.7233C443.488 59.4191 442.046 58.5325 440.435 58.2376ZM439.25 70.1251H427.25C426.252 70.1274 425.291 69.7499 424.561 69.0692C423.832 68.3884 423.389 67.4556 423.322 66.46C423.255 65.4644 423.57 64.4807 424.202 63.7086C424.834 62.9366 425.736 62.4341 426.725 62.3032C426.805 63.2957 427.087 64.2615 427.553 65.141C427.587 65.2081 427.634 65.2677 427.691 65.3163C427.748 65.365 427.815 65.4017 427.886 65.4243C427.958 65.4469 428.033 65.4549 428.108 65.4479C428.183 65.4409 428.255 65.419 428.321 65.3835C428.388 65.348 428.446 65.2996 428.493 65.2412C428.54 65.1828 428.575 65.1155 428.596 65.0434C428.617 64.9712 428.623 64.8956 428.614 64.8211C428.605 64.7465 428.581 64.6745 428.544 64.6093C427.801 63.2194 427.616 61.5981 428.027 60.0764C428.438 58.5548 429.415 57.2474 430.757 56.4213C432.1 55.5951 433.707 55.3124 435.25 55.6309C436.794 55.9494 438.158 56.8451 439.064 58.1351C438.165 58.1599 437.281 58.3691 436.466 58.7497C435.651 59.1303 434.924 59.6741 434.328 60.3476C434.277 60.4027 434.238 60.4673 434.212 60.5378C434.187 60.6082 434.176 60.683 434.18 60.7578C434.184 60.8326 434.202 60.9059 434.235 60.9733C434.267 61.0407 434.313 61.101 434.369 61.1505C434.425 61.2001 434.491 61.2379 434.562 61.2618C434.633 61.2857 434.708 61.2952 434.783 61.2898C434.857 61.2843 434.93 61.2639 434.997 61.2299C435.064 61.196 435.123 61.149 435.171 61.0918C435.772 60.4102 436.534 59.89 437.388 59.5789C438.242 59.2677 439.16 59.1755 440.058 59.3106C440.957 59.4457 441.807 59.8038 442.532 60.3522C443.256 60.9006 443.832 61.6218 444.206 62.45C444.579 63.2781 444.74 64.1868 444.672 65.0929C444.604 65.999 444.311 66.8737 443.818 67.6371C443.325 68.4004 442.649 69.0281 441.851 69.4628C441.053 69.8974 440.159 70.1251 439.25 70.1251Z" fill="#0F62FE"/>
<path d="M445.924 55.6912C445.886 55.6265 445.837 55.5698 445.777 55.5242C445.718 55.4787 445.65 55.4454 445.578 55.426C445.506 55.4067 445.431 55.4018 445.357 55.4115C445.283 55.4213 445.211 55.4456 445.146 55.483L442.881 56.7909C442.815 56.8273 442.756 56.8766 442.709 56.9359C442.662 56.9953 442.627 57.0634 442.607 57.1364C442.586 57.2094 442.58 57.2858 442.59 57.361C442.599 57.4362 442.624 57.5088 442.662 57.5745C442.699 57.6401 442.75 57.6976 442.811 57.7434C442.871 57.7892 442.94 57.8225 443.013 57.8413C443.087 57.8602 443.163 57.8641 443.238 57.8529C443.313 57.8418 443.385 57.8158 443.45 57.7764L445.715 56.4685C445.846 56.3931 445.941 56.2689 445.98 56.1231C446.019 55.9773 445.999 55.822 445.924 55.6912Z" fill="#0F62FE"/>
<path d="M439.007 53.9026C439.072 53.9401 439.143 53.9643 439.218 53.9741C439.292 53.9839 439.367 53.979 439.439 53.9596C439.511 53.9403 439.579 53.9069 439.638 53.8614C439.698 53.8159 439.747 53.7592 439.785 53.6944L441.092 51.4294C441.167 51.2988 441.186 51.1442 441.147 50.9993C441.107 50.8544 441.012 50.7309 440.882 50.6558C440.752 50.5807 440.598 50.5601 440.452 50.5984C440.307 50.6367 440.183 50.7309 440.107 50.8603L438.799 53.1253C438.724 53.256 438.703 53.4113 438.742 53.5571C438.781 53.7029 438.877 53.8272 439.007 53.9026Z" fill="#0F62FE"/>
<path d="M434 52.561C434.151 52.5609 434.296 52.501 434.402 52.3942C434.509 52.2875 434.569 52.1428 434.569 51.9919V49.3762C434.57 49.3009 434.556 49.2262 434.528 49.1564C434.499 49.0866 434.458 49.0231 434.405 48.9695C434.352 48.916 434.289 48.8735 434.219 48.8445C434.15 48.8155 434.075 48.8005 434 48.8005C433.925 48.8005 433.85 48.8155 433.781 48.8445C433.711 48.8735 433.648 48.916 433.595 48.9695C433.542 49.0231 433.501 49.0866 433.472 49.1564C433.444 49.2262 433.43 49.3009 433.431 49.3762V51.9919C433.431 52.1428 433.491 52.2875 433.598 52.3942C433.704 52.501 433.849 52.5609 434 52.561Z" fill="#0F62FE"/>
<path d="M428.215 53.6943C428.292 53.8238 428.416 53.9179 428.561 53.9562C428.706 53.9946 428.861 53.9739 428.991 53.8988C429.121 53.8237 429.216 53.7003 429.255 53.5553C429.295 53.4104 429.275 53.2558 429.201 53.1252L427.893 50.8602C427.856 50.7949 427.806 50.7376 427.747 50.6915C427.688 50.6455 427.62 50.6117 427.548 50.592C427.475 50.5723 427.399 50.5671 427.325 50.5768C427.25 50.5864 427.179 50.6107 427.114 50.6483C427.049 50.6858 426.992 50.7359 426.946 50.7955C426.901 50.8552 426.867 50.9233 426.848 50.9959C426.829 51.0685 426.824 51.1442 426.834 51.2185C426.845 51.2929 426.87 51.3646 426.908 51.4293L428.215 53.6943Z" fill="#0F62FE"/>
<path d="M425.119 56.7909L422.854 55.483C422.789 55.445 422.717 55.4202 422.643 55.4099C422.569 55.3997 422.493 55.4043 422.42 55.4235C422.348 55.4426 422.28 55.476 422.22 55.5215C422.16 55.5671 422.11 55.6241 422.073 55.6891C422.035 55.7541 422.011 55.8259 422.001 55.9004C421.992 55.9749 421.997 56.0505 422.017 56.1229C422.036 56.1954 422.07 56.2632 422.116 56.3226C422.162 56.3819 422.219 56.4315 422.285 56.4685L424.55 57.7764C424.615 57.8144 424.686 57.8393 424.761 57.8495C424.835 57.8597 424.911 57.8551 424.983 57.836C425.056 57.8168 425.124 57.7835 425.184 57.7379C425.243 57.6923 425.293 57.6354 425.331 57.5703C425.369 57.5053 425.393 57.4335 425.403 57.359C425.412 57.2846 425.407 57.2089 425.387 57.1365C425.368 57.064 425.334 56.9962 425.288 56.9369C425.242 56.8776 425.184 56.828 425.119 56.7909Z" fill="#0F62FE"/>
</g>
<rect x="848" y="33" width="423" height="60" rx="3" fill="#F4F4F4"/>
<rect x="848" y="33" width="423" height="60" rx="3" stroke="#E0E0E0" stroke-width="2"/>
<text fill="#161616" xml:space="preserve" style="white-space: pre" font-family="IBM Plex Sans" font-size="18" letter-spacing="0px"><tspan x="863" y="66.75">Customer Self-Serve</tspan></text>
<rect x="848" y="103" width="423" height="60" rx="3" fill="#F4F4F4"/>
<rect x="848" y="103" width="423" height="60" rx="3" stroke="#E0E0E0" stroke-width="2"/>
<text fill="#161616" xml:space="preserve" style="white-space: pre" font-family="IBM Plex Sans" font-size="18" letter-spacing="0px"><tspan x="863" y="136.75">Migration Services Partners</tspan></text>
<rect x="407" y="181" width="423" height="130" rx="3" fill="#EDF5FF"/>
<rect x="407" y="181" width="423" height="130" rx="3" stroke="#A6C8FF" stroke-width="2"/>
<text fill="#161616" xml:space="preserve" style="white-space: pre" font-family="IBM Plex Sans" font-size="18" letter-spacing="0px"><tspan x="422" y="246.75">IBM Cloud&#10;</tspan><tspan x="422" y="270.75">Backup and Recovery Services / Backup for VPC</tspan></text>
<g clip-path="url(#clip2_17_2642)">
<rect width="24" height="24" transform="translate(422 196)" fill="white" fill-opacity="0.01"/>
<path d="M440.435 206.238C439.69 204.841 438.511 203.724 437.075 203.056C435.64 202.388 434.026 202.205 432.478 202.534C430.929 202.863 429.53 203.687 428.49 204.881C427.45 206.075 426.827 207.575 426.714 209.154C425.427 209.293 424.241 209.919 423.401 210.906C422.562 211.892 422.132 213.162 422.2 214.456C422.269 215.749 422.831 216.967 423.77 217.859C424.709 218.751 425.955 219.249 427.25 219.25H439.25C440.887 219.251 442.466 218.64 443.676 217.536C444.885 216.432 445.638 214.916 445.787 213.285C445.935 211.655 445.469 210.027 444.478 208.723C443.488 207.419 442.046 206.533 440.435 206.238ZM439.25 218.125H427.25C426.252 218.127 425.291 217.75 424.561 217.069C423.832 216.388 423.389 215.456 423.322 214.46C423.255 213.464 423.57 212.481 424.202 211.709C424.834 210.937 425.736 210.434 426.725 210.303C426.805 211.296 427.087 212.261 427.553 213.141C427.587 213.208 427.634 213.268 427.691 213.316C427.748 213.365 427.815 213.402 427.886 213.424C427.958 213.447 428.033 213.455 428.108 213.448C428.183 213.441 428.255 213.419 428.321 213.384C428.388 213.348 428.446 213.3 428.493 213.241C428.54 213.183 428.575 213.116 428.596 213.043C428.617 212.971 428.623 212.896 428.614 212.821C428.605 212.747 428.581 212.674 428.544 212.609C427.801 211.219 427.616 209.598 428.027 208.076C428.438 206.555 429.415 205.247 430.757 204.421C432.1 203.595 433.707 203.312 435.25 203.631C436.794 203.949 438.158 204.845 439.064 206.135C438.165 206.16 437.281 206.369 436.466 206.75C435.651 207.13 434.924 207.674 434.328 208.348C434.277 208.403 434.238 208.467 434.212 208.538C434.187 208.608 434.176 208.683 434.18 208.758C434.184 208.833 434.202 208.906 434.235 208.973C434.267 209.041 434.313 209.101 434.369 209.151C434.425 209.2 434.491 209.238 434.562 209.262C434.633 209.286 434.708 209.295 434.783 209.29C434.857 209.284 434.93 209.264 434.997 209.23C435.064 209.196 435.123 209.149 435.171 209.092C435.772 208.41 436.534 207.89 437.388 207.579C438.242 207.268 439.16 207.175 440.058 207.311C440.957 207.446 441.807 207.804 442.532 208.352C443.256 208.901 443.832 209.622 444.206 210.45C444.579 211.278 444.74 212.187 444.672 213.093C444.604 213.999 444.311 214.874 443.818 215.637C443.325 216.4 442.649 217.028 441.851 217.463C441.053 217.897 440.159 218.125 439.25 218.125Z" fill="#0F62FE"/>
<path d="M445.924 203.691C445.886 203.627 445.837 203.57 445.777 203.524C445.718 203.479 445.65 203.445 445.578 203.426C445.506 203.407 445.431 203.402 445.357 203.412C445.283 203.421 445.211 203.446 445.146 203.483L442.881 204.791C442.815 204.827 442.756 204.877 442.709 204.936C442.662 204.995 442.627 205.063 442.607 205.136C442.586 205.209 442.58 205.286 442.59 205.361C442.599 205.436 442.624 205.509 442.662 205.574C442.699 205.64 442.75 205.698 442.811 205.743C442.871 205.789 442.94 205.823 443.013 205.841C443.087 205.86 443.163 205.864 443.238 205.853C443.313 205.842 443.385 205.816 443.45 205.776L445.715 204.469C445.846 204.393 445.941 204.269 445.98 204.123C446.019 203.977 445.999 203.822 445.924 203.691Z" fill="#0F62FE"/>
<path d="M439.007 201.903C439.072 201.94 439.143 201.964 439.218 201.974C439.292 201.984 439.367 201.979 439.439 201.96C439.511 201.94 439.579 201.907 439.638 201.861C439.698 201.816 439.747 201.759 439.785 201.694L441.092 199.429C441.167 199.299 441.186 199.144 441.147 198.999C441.107 198.854 441.012 198.731 440.882 198.656C440.752 198.581 440.598 198.56 440.452 198.598C440.307 198.637 440.183 198.731 440.107 198.86L438.799 201.125C438.724 201.256 438.703 201.411 438.742 201.557C438.781 201.703 438.877 201.827 439.007 201.903Z" fill="#0F62FE"/>
<path d="M434 200.561C434.151 200.561 434.296 200.501 434.402 200.394C434.509 200.288 434.569 200.143 434.569 199.992V197.376C434.57 197.301 434.556 197.226 434.528 197.156C434.499 197.087 434.458 197.023 434.405 196.97C434.352 196.916 434.289 196.873 434.219 196.844C434.15 196.815 434.075 196.801 434 196.801C433.925 196.801 433.85 196.815 433.781 196.844C433.711 196.873 433.648 196.916 433.595 196.97C433.542 197.023 433.501 197.087 433.472 197.156C433.444 197.226 433.43 197.301 433.431 197.376V199.992C433.431 200.143 433.491 200.288 433.598 200.394C433.704 200.501 433.849 200.561 434 200.561Z" fill="#0F62FE"/>
<path d="M428.215 201.694C428.292 201.824 428.416 201.918 428.561 201.956C428.706 201.995 428.861 201.974 428.991 201.899C429.121 201.824 429.216 201.7 429.255 201.555C429.295 201.41 429.275 201.256 429.201 201.125L427.893 198.86C427.856 198.795 427.806 198.738 427.747 198.692C427.688 198.645 427.62 198.612 427.548 198.592C427.475 198.572 427.399 198.567 427.325 198.577C427.25 198.586 427.179 198.611 427.114 198.648C427.049 198.686 426.992 198.736 426.946 198.796C426.901 198.855 426.867 198.923 426.848 198.996C426.829 199.068 426.824 199.144 426.834 199.219C426.845 199.293 426.87 199.365 426.908 199.429L428.215 201.694Z" fill="#0F62FE"/>
<path d="M425.119 204.791L422.854 203.483C422.789 203.445 422.717 203.42 422.643 203.41C422.569 203.4 422.493 203.404 422.42 203.423C422.348 203.443 422.28 203.476 422.22 203.522C422.16 203.567 422.11 203.624 422.073 203.689C422.035 203.754 422.011 203.826 422.001 203.9C421.992 203.975 421.997 204.05 422.017 204.123C422.036 204.195 422.07 204.263 422.116 204.323C422.162 204.382 422.219 204.431 422.285 204.469L424.55 205.776C424.615 205.814 424.686 205.839 424.761 205.85C424.835 205.86 424.911 205.855 424.983 205.836C425.056 205.817 425.124 205.783 425.184 205.738C425.243 205.692 425.293 205.635 425.331 205.57C425.369 205.505 425.393 205.434 425.403 205.359C425.412 205.285 425.407 205.209 425.387 205.136C425.368 205.064 425.334 204.996 425.288 204.937C425.242 204.878 425.184 204.828 425.119 204.791Z" fill="#0F62FE"/>
</g>
<rect x="848" y="181" width="423" height="130" rx="3" fill="#F4F4F4"/>
<rect x="848" y="181" width="423" height="130" rx="3" stroke="#E0E0E0" stroke-width="2"/>
<text fill="#161616" xml:space="preserve" style="white-space: pre" font-family="IBM Plex Sans" font-size="18" letter-spacing="0px"><tspan x="863" y="214.75">3rd party Backup Solutions&#x2028;</tspan><tspan x="863" y="240.75">Self Serve &#x2028;</tspan><tspan x="863" y="266.75">RYO/BYOL</tspan></text>
<rect x="407" y="329" width="423" height="130" rx="3" fill="#EDF5FF"/>
<rect x="407" y="329" width="423" height="130" rx="3" stroke="#A6C8FF" stroke-width="2"/>
<text fill="#161616" xml:space="preserve" style="white-space: pre" font-family="IBM Plex Sans" font-size="18" letter-spacing="0px"><tspan x="422" y="394.75">IBM Cloud&#10;</tspan><tspan x="422" y="418.75">Monitoring and Logs</tspan></text>
<g clip-path="url(#clip3_17_2642)">
<rect width="24" height="24" transform="translate(422 344)" fill="white" fill-opacity="0.01"/>
<path d="M440.435 354.238C439.69 352.841 438.511 351.724 437.075 351.056C435.64 350.388 434.026 350.205 432.478 350.534C430.929 350.863 429.53 351.687 428.49 352.881C427.45 354.075 426.827 355.575 426.714 357.154C425.427 357.293 424.241 357.919 423.401 358.906C422.562 359.892 422.132 361.162 422.2 362.456C422.269 363.749 422.831 364.967 423.77 365.859C424.709 366.751 425.955 367.249 427.25 367.25H439.25C440.887 367.251 442.466 366.64 443.676 365.536C444.885 364.432 445.638 362.916 445.787 361.285C445.935 359.655 445.469 358.027 444.478 356.723C443.488 355.419 442.046 354.533 440.435 354.238ZM439.25 366.125H427.25C426.252 366.127 425.291 365.75 424.561 365.069C423.832 364.388 423.389 363.456 423.322 362.46C423.255 361.464 423.57 360.481 424.202 359.709C424.834 358.937 425.736 358.434 426.725 358.303C426.805 359.296 427.087 360.261 427.553 361.141C427.587 361.208 427.634 361.268 427.691 361.316C427.748 361.365 427.815 361.402 427.886 361.424C427.958 361.447 428.033 361.455 428.108 361.448C428.183 361.441 428.255 361.419 428.321 361.384C428.388 361.348 428.446 361.3 428.493 361.241C428.54 361.183 428.575 361.116 428.596 361.043C428.617 360.971 428.623 360.896 428.614 360.821C428.605 360.747 428.581 360.674 428.544 360.609C427.801 359.219 427.616 357.598 428.027 356.076C428.438 354.555 429.415 353.247 430.757 352.421C432.1 351.595 433.707 351.312 435.25 351.631C436.794 351.949 438.158 352.845 439.064 354.135C438.165 354.16 437.281 354.369 436.466 354.75C435.651 355.13 434.924 355.674 434.328 356.348C434.277 356.403 434.238 356.467 434.212 356.538C434.187 356.608 434.176 356.683 434.18 356.758C434.184 356.833 434.202 356.906 434.235 356.973C434.267 357.041 434.313 357.101 434.369 357.151C434.425 357.2 434.491 357.238 434.562 357.262C434.633 357.286 434.708 357.295 434.783 357.29C434.857 357.284 434.93 357.264 434.997 357.23C435.064 357.196 435.123 357.149 435.171 357.092C435.772 356.41 436.534 355.89 437.388 355.579C438.242 355.268 439.16 355.175 440.058 355.311C440.957 355.446 441.807 355.804 442.532 356.352C443.256 356.901 443.832 357.622 444.206 358.45C444.579 359.278 444.74 360.187 444.672 361.093C444.604 361.999 444.311 362.874 443.818 363.637C443.325 364.4 442.649 365.028 441.851 365.463C441.053 365.897 440.159 366.125 439.25 366.125Z" fill="#0F62FE"/>
<path d="M445.924 351.691C445.886 351.627 445.837 351.57 445.777 351.524C445.718 351.479 445.65 351.445 445.578 351.426C445.506 351.407 445.431 351.402 445.357 351.412C445.283 351.421 445.211 351.446 445.146 351.483L442.881 352.791C442.815 352.827 442.756 352.877 442.709 352.936C442.662 352.995 442.627 353.063 442.607 353.136C442.586 353.209 442.58 353.286 442.59 353.361C442.599 353.436 442.624 353.509 442.662 353.574C442.699 353.64 442.75 353.698 442.811 353.743C442.871 353.789 442.94 353.823 443.013 353.841C443.087 353.86 443.163 353.864 443.238 353.853C443.313 353.842 443.385 353.816 443.45 353.776L445.715 352.469C445.846 352.393 445.941 352.269 445.98 352.123C446.019 351.977 445.999 351.822 445.924 351.691Z" fill="#0F62FE"/>
<path d="M439.007 349.903C439.072 349.94 439.143 349.964 439.218 349.974C439.292 349.984 439.367 349.979 439.439 349.96C439.511 349.94 439.579 349.907 439.638 349.861C439.698 349.816 439.747 349.759 439.785 349.694L441.092 347.429C441.167 347.299 441.186 347.144 441.147 346.999C441.107 346.854 441.012 346.731 440.882 346.656C440.752 346.581 440.598 346.56 440.452 346.598C440.307 346.637 440.183 346.731 440.107 346.86L438.799 349.125C438.724 349.256 438.703 349.411 438.742 349.557C438.781 349.703 438.877 349.827 439.007 349.903Z" fill="#0F62FE"/>
<path d="M434 348.561C434.151 348.561 434.296 348.501 434.402 348.394C434.509 348.288 434.569 348.143 434.569 347.992V345.376C434.57 345.301 434.556 345.226 434.528 345.156C434.499 345.087 434.458 345.023 434.405 344.97C434.352 344.916 434.289 344.873 434.219 344.844C434.15 344.815 434.075 344.801 434 344.801C433.925 344.801 433.85 344.815 433.781 344.844C433.711 344.873 433.648 344.916 433.595 344.97C433.542 345.023 433.501 345.087 433.472 345.156C433.444 345.226 433.43 345.301 433.431 345.376V347.992C433.431 348.143 433.491 348.288 433.598 348.394C433.704 348.501 433.849 348.561 434 348.561Z" fill="#0F62FE"/>
<path d="M428.215 349.694C428.292 349.824 428.416 349.918 428.561 349.956C428.706 349.995 428.861 349.974 428.991 349.899C429.121 349.824 429.216 349.7 429.255 349.555C429.295 349.41 429.275 349.256 429.201 349.125L427.893 346.86C427.856 346.795 427.806 346.738 427.747 346.692C427.688 346.645 427.62 346.612 427.548 346.592C427.475 346.572 427.399 346.567 427.325 346.577C427.25 346.586 427.179 346.611 427.114 346.648C427.049 346.686 426.992 346.736 426.946 346.796C426.901 346.855 426.867 346.923 426.848 346.996C426.829 347.068 426.824 347.144 426.834 347.219C426.845 347.293 426.87 347.365 426.908 347.429L428.215 349.694Z" fill="#0F62FE"/>
<path d="M425.119 352.791L422.854 351.483C422.789 351.445 422.717 351.42 422.643 351.41C422.569 351.4 422.493 351.404 422.42 351.423C422.348 351.443 422.28 351.476 422.22 351.522C422.16 351.567 422.11 351.624 422.073 351.689C422.035 351.754 422.011 351.826 422.001 351.9C421.992 351.975 421.997 352.05 422.017 352.123C422.036 352.195 422.07 352.263 422.116 352.323C422.162 352.382 422.219 352.431 422.285 352.469L424.55 353.776C424.615 353.814 424.686 353.839 424.761 353.85C424.835 353.86 424.911 353.855 424.983 353.836C425.056 353.817 425.124 353.783 425.184 353.738C425.243 353.692 425.293 353.635 425.331 353.57C425.369 353.505 425.393 353.434 425.403 353.359C425.412 353.285 425.407 353.209 425.387 353.136C425.368 353.064 425.334 352.996 425.288 352.937C425.242 352.878 425.184 352.828 425.119 352.791Z" fill="#0F62FE"/>
</g>
<rect x="407" y="477" width="423" height="130" rx="3" fill="#EDF5FF"/>
<rect x="407" y="477" width="423" height="130" rx="3" stroke="#A6C8FF" stroke-width="2"/>
<text fill="#161616" xml:space="preserve" style="white-space: pre" font-family="IBM Plex Sans" font-size="18" letter-spacing="0px"><tspan x="422" y="542.75">IBM Cloud&#10;</tspan><tspan x="422" y="566.75">Object Storage</tspan></text>
<g clip-path="url(#clip4_17_2642)">
<rect width="24" height="24" transform="translate(422 492)" fill="white" fill-opacity="0.01"/>
<path d="M440.435 502.238C439.69 500.841 438.511 499.724 437.075 499.056C435.64 498.388 434.026 498.205 432.478 498.534C430.929 498.863 429.53 499.687 428.49 500.881C427.45 502.075 426.827 503.575 426.714 505.154C425.427 505.293 424.241 505.919 423.401 506.906C422.562 507.892 422.132 509.162 422.2 510.456C422.269 511.749 422.831 512.967 423.77 513.859C424.709 514.751 425.955 515.249 427.25 515.25H439.25C440.887 515.251 442.466 514.64 443.676 513.536C444.885 512.432 445.638 510.916 445.787 509.285C445.935 507.655 445.469 506.027 444.478 504.723C443.488 503.419 442.046 502.533 440.435 502.238ZM439.25 514.125H427.25C426.252 514.127 425.291 513.75 424.561 513.069C423.832 512.388 423.389 511.456 423.322 510.46C423.255 509.464 423.57 508.481 424.202 507.709C424.834 506.937 425.736 506.434 426.725 506.303C426.805 507.296 427.087 508.261 427.553 509.141C427.587 509.208 427.634 509.268 427.691 509.316C427.748 509.365 427.815 509.402 427.886 509.424C427.958 509.447 428.033 509.455 428.108 509.448C428.183 509.441 428.255 509.419 428.321 509.384C428.388 509.348 428.446 509.3 428.493 509.241C428.54 509.183 428.575 509.116 428.596 509.043C428.617 508.971 428.623 508.896 428.614 508.821C428.605 508.747 428.581 508.674 428.544 508.609C427.801 507.219 427.616 505.598 428.027 504.076C428.438 502.555 429.415 501.247 430.757 500.421C432.1 499.595 433.707 499.312 435.25 499.631C436.794 499.949 438.158 500.845 439.064 502.135C438.165 502.16 437.281 502.369 436.466 502.75C435.651 503.13 434.924 503.674 434.328 504.348C434.277 504.403 434.238 504.467 434.212 504.538C434.187 504.608 434.176 504.683 434.18 504.758C434.184 504.833 434.202 504.906 434.235 504.973C434.267 505.041 434.313 505.101 434.369 505.151C434.425 505.2 434.491 505.238 434.562 505.262C434.633 505.286 434.708 505.295 434.783 505.29C434.857 505.284 434.93 505.264 434.997 505.23C435.064 505.196 435.123 505.149 435.171 505.092C435.772 504.41 436.534 503.89 437.388 503.579C438.242 503.268 439.16 503.175 440.058 503.311C440.957 503.446 441.807 503.804 442.532 504.352C443.256 504.901 443.832 505.622 444.206 506.45C444.579 507.278 444.74 508.187 444.672 509.093C444.604 509.999 444.311 510.874 443.818 511.637C443.325 512.4 442.649 513.028 441.851 513.463C441.053 513.897 440.159 514.125 439.25 514.125Z" fill="#0F62FE"/>
<path d="M445.924 499.691C445.886 499.627 445.837 499.57 445.777 499.524C445.718 499.479 445.65 499.445 445.578 499.426C445.506 499.407 445.431 499.402 445.357 499.412C445.283 499.421 445.211 499.446 445.146 499.483L442.881 500.791C442.815 500.827 442.756 500.877 442.709 500.936C442.662 500.995 442.627 501.063 442.607 501.136C442.586 501.209 442.58 501.286 442.59 501.361C442.599 501.436 442.624 501.509 442.662 501.574C442.699 501.64 442.75 501.698 442.811 501.743C442.871 501.789 442.94 501.823 443.013 501.841C443.087 501.86 443.163 501.864 443.238 501.853C443.313 501.842 443.385 501.816 443.45 501.776L445.715 500.469C445.846 500.393 445.941 500.269 445.98 500.123C446.019 499.977 445.999 499.822 445.924 499.691Z" fill="#0F62FE"/>
<path d="M439.007 497.903C439.072 497.94 439.143 497.964 439.218 497.974C439.292 497.984 439.367 497.979 439.439 497.96C439.511 497.94 439.579 497.907 439.638 497.861C439.698 497.816 439.747 497.759 439.785 497.694L441.092 495.429C441.167 495.299 441.186 495.144 441.147 494.999C441.107 494.854 441.012 494.731 440.882 494.656C440.752 494.581 440.598 494.56 440.452 494.598C440.307 494.637 440.183 494.731 440.107 494.86L438.799 497.125C438.724 497.256 438.703 497.411 438.742 497.557C438.781 497.703 438.877 497.827 439.007 497.903Z" fill="#0F62FE"/>
<path d="M434 496.561C434.151 496.561 434.296 496.501 434.402 496.394C434.509 496.288 434.569 496.143 434.569 495.992V493.376C434.57 493.301 434.556 493.226 434.528 493.156C434.499 493.087 434.458 493.023 434.405 492.97C434.352 492.916 434.289 492.873 434.219 492.844C434.15 492.815 434.075 492.801 434 492.801C433.925 492.801 433.85 492.815 433.781 492.844C433.711 492.873 433.648 492.916 433.595 492.97C433.542 493.023 433.501 493.087 433.472 493.156C433.444 493.226 433.43 493.301 433.431 493.376V495.992C433.431 496.143 433.491 496.288 433.598 496.394C433.704 496.501 433.849 496.561 434 496.561Z" fill="#0F62FE"/>
<path d="M428.215 497.694C428.292 497.824 428.416 497.918 428.561 497.956C428.706 497.995 428.861 497.974 428.991 497.899C429.121 497.824 429.216 497.7 429.255 497.555C429.295 497.41 429.275 497.256 429.201 497.125L427.893 494.86C427.856 494.795 427.806 494.738 427.747 494.692C427.688 494.645 427.62 494.612 427.548 494.592C427.475 494.572 427.399 494.567 427.325 494.577C427.25 494.586 427.179 494.611 427.114 494.648C427.049 494.686 426.992 494.736 426.946 494.796C426.901 494.855 426.867 494.923 426.848 494.996C426.829 495.068 426.824 495.144 426.834 495.219C426.845 495.293 426.87 495.365 426.908 495.429L428.215 497.694Z" fill="#0F62FE"/>
<path d="M425.119 500.791L422.854 499.483C422.789 499.445 422.717 499.42 422.643 499.41C422.569 499.4 422.493 499.404 422.42 499.423C422.348 499.443 422.28 499.476 422.22 499.522C422.16 499.567 422.11 499.624 422.073 499.689C422.035 499.754 422.011 499.826 422.001 499.9C421.992 499.975 421.997 500.05 422.017 500.123C422.036 500.195 422.07 500.263 422.116 500.323C422.162 500.382 422.219 500.431 422.285 500.469L424.55 501.776C424.615 501.814 424.686 501.839 424.761 501.85C424.835 501.86 424.911 501.855 424.983 501.836C425.056 501.817 425.124 501.783 425.184 501.738C425.243 501.692 425.293 501.635 425.331 501.57C425.369 501.505 425.393 501.434 425.403 501.359C425.412 501.285 425.407 501.209 425.387 501.136C425.368 501.064 425.334 500.996 425.288 500.937C425.242 500.878 425.184 500.828 425.119 500.791Z" fill="#0F62FE"/>
</g>
<rect x="848" y="477" width="423" height="130" rx="3" fill="#EDF5FF"/>
<rect x="848" y="477" width="423" height="130" rx="3" stroke="#A6C8FF" stroke-width="2"/>
<text fill="#161616" xml:space="preserve" style="white-space: pre" font-family="IBM Plex Sans" font-size="18" letter-spacing="0px"><tspan x="863" y="542.75">IBM Cloud&#10;</tspan><tspan x="863" y="566.75">File Storage for VPC</tspan></text>
<g clip-path="url(#clip5_17_2642)">
<rect width="24" height="24" transform="translate(863 492)" fill="white" fill-opacity="0.01"/>
<path d="M881.435 502.238C880.69 500.841 879.511 499.724 878.075 499.056C876.64 498.388 875.026 498.205 873.478 498.534C871.929 498.863 870.53 499.687 869.49 500.881C868.45 502.075 867.827 503.575 867.714 505.154C866.427 505.293 865.241 505.919 864.401 506.906C863.562 507.892 863.132 509.162 863.2 510.456C863.269 511.749 863.831 512.967 864.77 513.859C865.709 514.751 866.955 515.249 868.25 515.25H880.25C881.887 515.251 883.466 514.64 884.676 513.536C885.885 512.432 886.638 510.916 886.787 509.285C886.935 507.655 886.469 506.027 885.478 504.723C884.488 503.419 883.046 502.533 881.435 502.238ZM880.25 514.125H868.25C867.252 514.127 866.291 513.75 865.561 513.069C864.832 512.388 864.389 511.456 864.322 510.46C864.255 509.464 864.57 508.481 865.202 507.709C865.834 506.937 866.736 506.434 867.725 506.303C867.805 507.296 868.087 508.261 868.553 509.141C868.587 509.208 868.634 509.268 868.691 509.316C868.748 509.365 868.815 509.402 868.886 509.424C868.958 509.447 869.033 509.455 869.108 509.448C869.183 509.441 869.255 509.419 869.321 509.384C869.388 509.348 869.446 509.3 869.493 509.241C869.54 509.183 869.575 509.116 869.596 509.043C869.617 508.971 869.623 508.896 869.614 508.821C869.605 508.747 869.581 508.674 869.544 508.609C868.801 507.219 868.616 505.598 869.027 504.076C869.438 502.555 870.415 501.247 871.757 500.421C873.1 499.595 874.707 499.312 876.25 499.631C877.794 499.949 879.158 500.845 880.064 502.135C879.165 502.16 878.281 502.369 877.466 502.75C876.651 503.13 875.924 503.674 875.328 504.348C875.277 504.403 875.238 504.467 875.212 504.538C875.187 504.608 875.176 504.683 875.18 504.758C875.184 504.833 875.202 504.906 875.235 504.973C875.267 505.041 875.313 505.101 875.369 505.151C875.425 505.2 875.491 505.238 875.562 505.262C875.633 505.286 875.708 505.295 875.783 505.29C875.857 505.284 875.93 505.264 875.997 505.23C876.064 505.196 876.123 505.149 876.171 505.092C876.772 504.41 877.534 503.89 878.388 503.579C879.242 503.268 880.16 503.175 881.058 503.311C881.957 503.446 882.807 503.804 883.532 504.352C884.256 504.901 884.832 505.622 885.206 506.45C885.579 507.278 885.74 508.187 885.672 509.093C885.604 509.999 885.311 510.874 884.818 511.637C884.325 512.4 883.649 513.028 882.851 513.463C882.053 513.897 881.159 514.125 880.25 514.125Z" fill="#0F62FE"/>
<path d="M886.924 499.691C886.886 499.627 886.837 499.57 886.777 499.524C886.718 499.479 886.65 499.445 886.578 499.426C886.506 499.407 886.431 499.402 886.357 499.412C886.283 499.421 886.211 499.446 886.146 499.483L883.881 500.791C883.815 500.827 883.756 500.877 883.709 500.936C883.662 500.995 883.627 501.063 883.607 501.136C883.586 501.209 883.58 501.286 883.59 501.361C883.599 501.436 883.624 501.509 883.662 501.574C883.699 501.64 883.75 501.698 883.811 501.743C883.871 501.789 883.94 501.823 884.013 501.841C884.087 501.86 884.163 501.864 884.238 501.853C884.313 501.842 884.385 501.816 884.45 501.776L886.715 500.469C886.846 500.393 886.941 500.269 886.98 500.123C887.019 499.977 886.999 499.822 886.924 499.691Z" fill="#0F62FE"/>
<path d="M880.007 497.903C880.072 497.94 880.143 497.964 880.218 497.974C880.292 497.984 880.367 497.979 880.439 497.96C880.511 497.94 880.579 497.907 880.638 497.861C880.698 497.816 880.747 497.759 880.785 497.694L882.092 495.429C882.167 495.299 882.186 495.144 882.147 494.999C882.107 494.854 882.012 494.731 881.882 494.656C881.752 494.581 881.598 494.56 881.452 494.598C881.307 494.637 881.183 494.731 881.107 494.86L879.799 497.125C879.724 497.256 879.703 497.411 879.742 497.557C879.781 497.703 879.877 497.827 880.007 497.903Z" fill="#0F62FE"/>
<path d="M875 496.561C875.151 496.561 875.296 496.501 875.402 496.394C875.509 496.288 875.569 496.143 875.569 495.992V493.376C875.57 493.301 875.556 493.226 875.528 493.156C875.499 493.087 875.458 493.023 875.405 492.97C875.352 492.916 875.289 492.873 875.219 492.844C875.15 492.815 875.075 492.801 875 492.801C874.925 492.801 874.85 492.815 874.781 492.844C874.711 492.873 874.648 492.916 874.595 492.97C874.542 493.023 874.501 493.087 874.472 493.156C874.444 493.226 874.43 493.301 874.431 493.376V495.992C874.431 496.143 874.491 496.288 874.598 496.394C874.704 496.501 874.849 496.561 875 496.561Z" fill="#0F62FE"/>
<path d="M869.215 497.694C869.292 497.824 869.416 497.918 869.561 497.956C869.706 497.995 869.861 497.974 869.991 497.899C870.121 497.824 870.216 497.7 870.255 497.555C870.295 497.41 870.275 497.256 870.201 497.125L868.893 494.86C868.856 494.795 868.806 494.738 868.747 494.692C868.688 494.645 868.62 494.612 868.548 494.592C868.475 494.572 868.399 494.567 868.325 494.577C868.25 494.586 868.179 494.611 868.114 494.648C868.049 494.686 867.992 494.736 867.946 494.796C867.901 494.855 867.867 494.923 867.848 494.996C867.829 495.068 867.824 495.144 867.834 495.219C867.845 495.293 867.87 495.365 867.908 495.429L869.215 497.694Z" fill="#0F62FE"/>
<path d="M866.119 500.791L863.854 499.483C863.789 499.445 863.717 499.42 863.643 499.41C863.569 499.4 863.493 499.404 863.42 499.423C863.348 499.443 863.28 499.476 863.22 499.522C863.16 499.567 863.11 499.624 863.073 499.689C863.035 499.754 863.011 499.826 863.001 499.9C862.992 499.975 862.997 500.05 863.017 500.123C863.036 500.195 863.07 500.263 863.116 500.323C863.162 500.382 863.219 500.431 863.285 500.469L865.55 501.776C865.615 501.814 865.686 501.839 865.761 501.85C865.835 501.86 865.911 501.855 865.983 501.836C866.056 501.817 866.124 501.783 866.184 501.738C866.243 501.692 866.293 501.635 866.331 501.57C866.369 501.505 866.393 501.434 866.403 501.359C866.412 501.285 866.407 501.209 866.387 501.136C866.368 501.064 866.334 500.996 866.288 500.937C866.242 500.878 866.184 500.828 866.119 500.791Z" fill="#0F62FE"/>
</g>
<rect x="407" y="625" width="423" height="130" rx="3" fill="#EDF5FF"/>
<rect x="407" y="625" width="423" height="130" rx="3" stroke="#A6C8FF" stroke-width="2"/>
<text fill="#161616" xml:space="preserve" style="white-space: pre" font-family="IBM Plex Sans" font-size="18" letter-spacing="0px"><tspan x="422" y="690.75">IBM Cloud &#x2028;</tspan><tspan x="422" y="714.75">VPC Virtual Server Instances </tspan></text>
<g clip-path="url(#clip6_17_2642)">
<rect width="24" height="24" transform="translate(422 640)" fill="white" fill-opacity="0.01"/>
<path d="M440.435 650.238C439.69 648.841 438.511 647.724 437.075 647.056C435.64 646.388 434.026 646.205 432.478 646.534C430.929 646.863 429.53 647.687 428.49 648.881C427.45 650.075 426.827 651.575 426.714 653.154C425.427 653.293 424.241 653.919 423.401 654.906C422.562 655.892 422.132 657.162 422.2 658.456C422.269 659.749 422.831 660.967 423.77 661.859C424.709 662.751 425.955 663.249 427.25 663.25H439.25C440.887 663.251 442.466 662.64 443.676 661.536C444.885 660.432 445.638 658.916 445.787 657.285C445.935 655.655 445.469 654.027 444.478 652.723C443.488 651.419 442.046 650.533 440.435 650.238ZM439.25 662.125H427.25C426.252 662.127 425.291 661.75 424.561 661.069C423.832 660.388 423.389 659.456 423.322 658.46C423.255 657.464 423.57 656.481 424.202 655.709C424.834 654.937 425.736 654.434 426.725 654.303C426.805 655.296 427.087 656.261 427.553 657.141C427.587 657.208 427.634 657.268 427.691 657.316C427.748 657.365 427.815 657.402 427.886 657.424C427.958 657.447 428.033 657.455 428.108 657.448C428.183 657.441 428.255 657.419 428.321 657.384C428.388 657.348 428.446 657.3 428.493 657.241C428.54 657.183 428.575 657.116 428.596 657.043C428.617 656.971 428.623 656.896 428.614 656.821C428.605 656.747 428.581 656.674 428.544 656.609C427.801 655.219 427.616 653.598 428.027 652.076C428.438 650.555 429.415 649.247 430.757 648.421C432.1 647.595 433.707 647.312 435.25 647.631C436.794 647.949 438.158 648.845 439.064 650.135C438.165 650.16 437.281 650.369 436.466 650.75C435.651 651.13 434.924 651.674 434.328 652.348C434.277 652.403 434.238 652.467 434.212 652.538C434.187 652.608 434.176 652.683 434.18 652.758C434.184 652.833 434.202 652.906 434.235 652.973C434.267 653.041 434.313 653.101 434.369 653.151C434.425 653.2 434.491 653.238 434.562 653.262C434.633 653.286 434.708 653.295 434.783 653.29C434.857 653.284 434.93 653.264 434.997 653.23C435.064 653.196 435.123 653.149 435.171 653.092C435.772 652.41 436.534 651.89 437.388 651.579C438.242 651.268 439.16 651.175 440.058 651.311C440.957 651.446 441.807 651.804 442.532 652.352C443.256 652.901 443.832 653.622 444.206 654.45C444.579 655.278 444.74 656.187 444.672 657.093C444.604 657.999 444.311 658.874 443.818 659.637C443.325 660.4 442.649 661.028 441.851 661.463C441.053 661.897 440.159 662.125 439.25 662.125Z" fill="#0F62FE"/>
<path d="M445.924 647.691C445.886 647.627 445.837 647.57 445.777 647.524C445.718 647.479 445.65 647.445 445.578 647.426C445.506 647.407 445.431 647.402 445.357 647.412C445.283 647.421 445.211 647.446 445.146 647.483L442.881 648.791C442.815 648.827 442.756 648.877 442.709 648.936C442.662 648.995 442.627 649.063 442.607 649.136C442.586 649.209 442.58 649.286 442.59 649.361C442.599 649.436 442.624 649.509 442.662 649.574C442.699 649.64 442.75 649.698 442.811 649.743C442.871 649.789 442.94 649.823 443.013 649.841C443.087 649.86 443.163 649.864 443.238 649.853C443.313 649.842 443.385 649.816 443.45 649.776L445.715 648.469C445.846 648.393 445.941 648.269 445.98 648.123C446.019 647.977 445.999 647.822 445.924 647.691Z" fill="#0F62FE"/>
<path d="M439.007 645.903C439.072 645.94 439.143 645.964 439.218 645.974C439.292 645.984 439.367 645.979 439.439 645.96C439.511 645.94 439.579 645.907 439.638 645.861C439.698 645.816 439.747 645.759 439.785 645.694L441.092 643.429C441.167 643.299 441.186 643.144 441.147 642.999C441.107 642.854 441.012 642.731 440.882 642.656C440.752 642.581 440.598 642.56 440.452 642.598C440.307 642.637 440.183 642.731 440.107 642.86L438.799 645.125C438.724 645.256 438.703 645.411 438.742 645.557C438.781 645.703 438.877 645.827 439.007 645.903Z" fill="#0F62FE"/>
<path d="M434 644.561C434.151 644.561 434.296 644.501 434.402 644.394C434.509 644.288 434.569 644.143 434.569 643.992V641.376C434.57 641.301 434.556 641.226 434.528 641.156C434.499 641.087 434.458 641.023 434.405 640.97C434.352 640.916 434.289 640.873 434.219 640.844C434.15 640.815 434.075 640.801 434 640.801C433.925 640.801 433.85 640.815 433.781 640.844C433.711 640.873 433.648 640.916 433.595 640.97C433.542 641.023 433.501 641.087 433.472 641.156C433.444 641.226 433.43 641.301 433.431 641.376V643.992C433.431 644.143 433.491 644.288 433.598 644.394C433.704 644.501 433.849 644.561 434 644.561Z" fill="#0F62FE"/>
<path d="M428.215 645.694C428.292 645.824 428.416 645.918 428.561 645.956C428.706 645.995 428.861 645.974 428.991 645.899C429.121 645.824 429.216 645.7 429.255 645.555C429.295 645.41 429.275 645.256 429.201 645.125L427.893 642.86C427.856 642.795 427.806 642.738 427.747 642.692C427.688 642.645 427.62 642.612 427.548 642.592C427.475 642.572 427.399 642.567 427.325 642.577C427.25 642.586 427.179 642.611 427.114 642.648C427.049 642.686 426.992 642.736 426.946 642.796C426.901 642.855 426.867 642.923 426.848 642.996C426.829 643.068 426.824 643.144 426.834 643.219C426.845 643.293 426.87 643.365 426.908 643.429L428.215 645.694Z" fill="#0F62FE"/>
<path d="M425.119 648.791L422.854 647.483C422.789 647.445 422.717 647.42 422.643 647.41C422.569 647.4 422.493 647.404 422.42 647.423C422.348 647.443 422.28 647.476 422.22 647.522C422.16 647.567 422.11 647.624 422.073 647.689C422.035 647.754 422.011 647.826 422.001 647.9C421.992 647.975 421.997 648.05 422.017 648.123C422.036 648.195 422.07 648.263 422.116 648.323C422.162 648.382 422.219 648.431 422.285 648.469L424.55 649.776C424.615 649.814 424.686 649.839 424.761 649.85C424.835 649.86 424.911 649.855 424.983 649.836C425.056 649.817 425.124 649.783 425.184 649.738C425.243 649.692 425.293 649.635 425.331 649.57C425.369 649.505 425.393 649.434 425.403 649.359C425.412 649.285 425.407 649.209 425.387 649.136C425.368 649.064 425.334 648.996 425.288 648.937C425.242 648.878 425.184 648.828 425.119 648.791Z" fill="#0F62FE"/>
</g>
<rect x="848" y="625" width="423" height="130" rx="3" fill="#EDF5FF"/>
<rect x="848" y="625" width="423" height="130" rx="3" stroke="#A6C8FF" stroke-width="2"/>
<text fill="#161616" xml:space="preserve" style="white-space: pre" font-family="IBM Plex Sans" font-size="18" letter-spacing="0px"><tspan x="863" y="690.75">IBM Cloud &#x2028;</tspan><tspan x="863" y="714.75">VPC Bare Metal Servers</tspan></text>
<g clip-path="url(#clip7_17_2642)">
<rect width="24" height="24" transform="translate(863 640)" fill="white" fill-opacity="0.01"/>
<path d="M881.435 650.238C880.69 648.841 879.511 647.724 878.075 647.056C876.64 646.388 875.026 646.205 873.478 646.534C871.929 646.863 870.53 647.687 869.49 648.881C868.45 650.075 867.827 651.575 867.714 653.154C866.427 653.293 865.241 653.919 864.401 654.906C863.562 655.892 863.132 657.162 863.2 658.456C863.269 659.749 863.831 660.967 864.77 661.859C865.709 662.751 866.955 663.249 868.25 663.25H880.25C881.887 663.251 883.466 662.64 884.676 661.536C885.885 660.432 886.638 658.916 886.787 657.285C886.935 655.655 886.469 654.027 885.478 652.723C884.488 651.419 883.046 650.533 881.435 650.238ZM880.25 662.125H868.25C867.252 662.127 866.291 661.75 865.561 661.069C864.832 660.388 864.389 659.456 864.322 658.46C864.255 657.464 864.57 656.481 865.202 655.709C865.834 654.937 866.736 654.434 867.725 654.303C867.805 655.296 868.087 656.261 868.553 657.141C868.587 657.208 868.634 657.268 868.691 657.316C868.748 657.365 868.815 657.402 868.886 657.424C868.958 657.447 869.033 657.455 869.108 657.448C869.183 657.441 869.255 657.419 869.321 657.384C869.388 657.348 869.446 657.3 869.493 657.241C869.54 657.183 869.575 657.116 869.596 657.043C869.617 656.971 869.623 656.896 869.614 656.821C869.605 656.747 869.581 656.674 869.544 656.609C868.801 655.219 868.616 653.598 869.027 652.076C869.438 650.555 870.415 649.247 871.757 648.421C873.1 647.595 874.707 647.312 876.25 647.631C877.794 647.949 879.158 648.845 880.064 650.135C879.165 650.16 878.281 650.369 877.466 650.75C876.651 651.13 875.924 651.674 875.328 652.348C875.277 652.403 875.238 652.467 875.212 652.538C875.187 652.608 875.176 652.683 875.18 652.758C875.184 652.833 875.202 652.906 875.235 652.973C875.267 653.041 875.313 653.101 875.369 653.151C875.425 653.2 875.491 653.238 875.562 653.262C875.633 653.286 875.708 653.295 875.783 653.29C875.857 653.284 875.93 653.264 875.997 653.23C876.064 653.196 876.123 653.149 876.171 653.092C876.772 652.41 877.534 651.89 878.388 651.579C879.242 651.268 880.16 651.175 881.058 651.311C881.957 651.446 882.807 651.804 883.532 652.352C884.256 652.901 884.832 653.622 885.206 654.45C885.579 655.278 885.74 656.187 885.672 657.093C885.604 657.999 885.311 658.874 884.818 659.637C884.325 660.4 883.649 661.028 882.851 661.463C882.053 661.897 881.159 662.125 880.25 662.125Z" fill="#0F62FE"/>
<path d="M886.924 647.691C886.886 647.627 886.837 647.57 886.777 647.524C886.718 647.479 886.65 647.445 886.578 647.426C886.506 647.407 886.431 647.402 886.357 647.412C886.283 647.421 886.211 647.446 886.146 647.483L883.881 648.791C883.815 648.827 883.756 648.877 883.709 648.936C883.662 648.995 883.627 649.063 883.607 649.136C883.586 649.209 883.58 649.286 883.59 649.361C883.599 649.436 883.624 649.509 883.662 649.574C883.699 649.64 883.75 649.698 883.811 649.743C883.871 649.789 883.94 649.823 884.013 649.841C884.087 649.86 884.163 649.864 884.238 649.853C884.313 649.842 884.385 649.816 884.45 649.776L886.715 648.469C886.846 648.393 886.941 648.269 886.98 648.123C887.019 647.977 886.999 647.822 886.924 647.691Z" fill="#0F62FE"/>
<path d="M880.007 645.903C880.072 645.94 880.143 645.964 880.218 645.974C880.292 645.984 880.367 645.979 880.439 645.96C880.511 645.94 880.579 645.907 880.638 645.861C880.698 645.816 880.747 645.759 880.785 645.694L882.092 643.429C882.167 643.299 882.186 643.144 882.147 642.999C882.107 642.854 882.012 642.731 881.882 642.656C881.752 642.581 881.598 642.56 881.452 642.598C881.307 642.637 881.183 642.731 881.107 642.86L879.799 645.125C879.724 645.256 879.703 645.411 879.742 645.557C879.781 645.703 879.877 645.827 880.007 645.903Z" fill="#0F62FE"/>
<path d="M875 644.561C875.151 644.561 875.296 644.501 875.402 644.394C875.509 644.288 875.569 644.143 875.569 643.992V641.376C875.57 641.301 875.556 641.226 875.528 641.156C875.499 641.087 875.458 641.023 875.405 640.97C875.352 640.916 875.289 640.873 875.219 640.844C875.15 640.815 875.075 640.801 875 640.801C874.925 640.801 874.85 640.815 874.781 640.844C874.711 640.873 874.648 640.916 874.595 640.97C874.542 641.023 874.501 641.087 874.472 641.156C874.444 641.226 874.43 641.301 874.431 641.376V643.992C874.431 644.143 874.491 644.288 874.598 644.394C874.704 644.501 874.849 644.561 875 644.561Z" fill="#0F62FE"/>
<path d="M869.215 645.694C869.292 645.824 869.416 645.918 869.561 645.956C869.706 645.995 869.861 645.974 869.991 645.899C870.121 645.824 870.216 645.7 870.255 645.555C870.295 645.41 870.275 645.256 870.201 645.125L868.893 642.86C868.856 642.795 868.806 642.738 868.747 642.692C868.688 642.645 868.62 642.612 868.548 642.592C868.475 642.572 868.399 642.567 868.325 642.577C868.25 642.586 868.179 642.611 868.114 642.648C868.049 642.686 867.992 642.736 867.946 642.796C867.901 642.855 867.867 642.923 867.848 642.996C867.829 643.068 867.824 643.144 867.834 643.219C867.845 643.293 867.87 643.365 867.908 643.429L869.215 645.694Z" fill="#0F62FE"/>
<path d="M866.119 648.791L863.854 647.483C863.789 647.445 863.717 647.42 863.643 647.41C863.569 647.4 863.493 647.404 863.42 647.423C863.348 647.443 863.28 647.476 863.22 647.522C863.16 647.567 863.11 647.624 863.073 647.689C863.035 647.754 863.011 647.826 863.001 647.9C862.992 647.975 862.997 648.05 863.017 648.123C863.036 648.195 863.07 648.263 863.116 648.323C863.162 648.382 863.219 648.431 863.285 648.469L865.55 649.776C865.615 649.814 865.686 649.839 865.761 649.85C865.835 649.86 865.911 649.855 865.983 649.836C866.056 649.817 866.124 649.783 866.184 649.738C866.243 649.692 866.293 649.635 866.331 649.57C866.369 649.505 866.393 649.434 866.403 649.359C866.412 649.285 866.407 649.209 866.387 649.136C866.368 649.064 866.334 648.996 866.288 648.937C866.242 648.878 866.184 648.828 866.119 648.791Z" fill="#0F62FE"/>
</g>
<rect x="407" y="773" width="423" height="314" rx="3" fill="#EDF5FF"/>
<rect x="407" y="773" width="423" height="314" rx="3" stroke="#A6C8FF" stroke-width="2"/>
<text fill="#161616" xml:space="preserve" style="white-space: pre" font-family="IBM Plex Sans" font-size="18" letter-spacing="0px"><tspan x="422" y="838.75">IBM Cloud Networking&#10;</tspan><tspan x="449" y="862.75">VPC Networking&#10;</tspan><tspan x="476" y="886.75">Floating IP&#10;</tspan><tspan x="476" y="910.75">Publick Address Range&#10;</tspan><tspan x="476" y="934.75">BYOIP&#10;</tspan><tspan x="449" y="958.75">Direct Link&#10;</tspan><tspan x="449" y="982.75">Transit Gateway&#10;</tspan><tspan x="449" y="1006.75">VPNaaS&#10;</tspan><tspan x="476" y="1030.75">Site to Site&#10;</tspan><tspan x="476" y="1054.75">Client to Site&#10;</tspan></text>
<g clip-path="url(#clip8_17_2642)">
<rect width="24" height="24" transform="translate(422 788)" fill="white" fill-opacity="0.01"/>
<path d="M440.435 798.238C439.69 796.841 438.511 795.724 437.075 795.056C435.64 794.388 434.026 794.205 432.478 794.534C430.929 794.863 429.53 795.687 428.49 796.881C427.45 798.075 426.827 799.575 426.714 801.154C425.427 801.293 424.241 801.919 423.401 802.906C422.562 803.892 422.132 805.162 422.2 806.456C422.269 807.749 422.831 808.967 423.77 809.859C424.709 810.751 425.955 811.249 427.25 811.25H439.25C440.887 811.251 442.466 810.64 443.676 809.536C444.885 808.432 445.638 806.916 445.787 805.285C445.935 803.655 445.469 802.027 444.478 800.723C443.488 799.419 442.046 798.533 440.435 798.238ZM439.25 810.125H427.25C426.252 810.127 425.291 809.75 424.561 809.069C423.832 808.388 423.389 807.456 423.322 806.46C423.255 805.464 423.57 804.481 424.202 803.709C424.834 802.937 425.736 802.434 426.725 802.303C426.805 803.296 427.087 804.261 427.553 805.141C427.587 805.208 427.634 805.268 427.691 805.316C427.748 805.365 427.815 805.402 427.886 805.424C427.958 805.447 428.033 805.455 428.108 805.448C428.183 805.441 428.255 805.419 428.321 805.384C428.388 805.348 428.446 805.3 428.493 805.241C428.54 805.183 428.575 805.116 428.596 805.043C428.617 804.971 428.623 804.896 428.614 804.821C428.605 804.747 428.581 804.674 428.544 804.609C427.801 803.219 427.616 801.598 428.027 800.076C428.438 798.555 429.415 797.247 430.757 796.421C432.1 795.595 433.707 795.312 435.25 795.631C436.794 795.949 438.158 796.845 439.064 798.135C438.165 798.16 437.281 798.369 436.466 798.75C435.651 799.13 434.924 799.674 434.328 800.348C434.277 800.403 434.238 800.467 434.212 800.538C434.187 800.608 434.176 800.683 434.18 800.758C434.184 800.833 434.202 800.906 434.235 800.973C434.267 801.041 434.313 801.101 434.369 801.151C434.425 801.2 434.491 801.238 434.562 801.262C434.633 801.286 434.708 801.295 434.783 801.29C434.857 801.284 434.93 801.264 434.997 801.23C435.064 801.196 435.123 801.149 435.171 801.092C435.772 800.41 436.534 799.89 437.388 799.579C438.242 799.268 439.16 799.175 440.058 799.311C440.957 799.446 441.807 799.804 442.532 800.352C443.256 800.901 443.832 801.622 444.206 802.45C444.579 803.278 444.74 804.187 444.672 805.093C444.604 805.999 444.311 806.874 443.818 807.637C443.325 808.4 442.649 809.028 441.851 809.463C441.053 809.897 440.159 810.125 439.25 810.125Z" fill="#0F62FE"/>
<path d="M445.924 795.691C445.886 795.627 445.837 795.57 445.777 795.524C445.718 795.479 445.65 795.445 445.578 795.426C445.506 795.407 445.431 795.402 445.357 795.412C445.283 795.421 445.211 795.446 445.146 795.483L442.881 796.791C442.815 796.827 442.756 796.877 442.709 796.936C442.662 796.995 442.627 797.063 442.607 797.136C442.586 797.209 442.58 797.286 442.59 797.361C442.599 797.436 442.624 797.509 442.662 797.574C442.699 797.64 442.75 797.698 442.811 797.743C442.871 797.789 442.94 797.823 443.013 797.841C443.087 797.86 443.163 797.864 443.238 797.853C443.313 797.842 443.385 797.816 443.45 797.776L445.715 796.469C445.846 796.393 445.941 796.269 445.98 796.123C446.019 795.977 445.999 795.822 445.924 795.691Z" fill="#0F62FE"/>
<path d="M439.007 793.903C439.072 793.94 439.143 793.964 439.218 793.974C439.292 793.984 439.367 793.979 439.439 793.96C439.511 793.94 439.579 793.907 439.638 793.861C439.698 793.816 439.747 793.759 439.785 793.694L441.092 791.429C441.167 791.299 441.186 791.144 441.147 790.999C441.107 790.854 441.012 790.731 440.882 790.656C440.752 790.581 440.598 790.56 440.452 790.598C440.307 790.637 440.183 790.731 440.107 790.86L438.799 793.125C438.724 793.256 438.703 793.411 438.742 793.557C438.781 793.703 438.877 793.827 439.007 793.903Z" fill="#0F62FE"/>
<path d="M434 792.561C434.151 792.561 434.296 792.501 434.402 792.394C434.509 792.288 434.569 792.143 434.569 791.992V789.376C434.57 789.301 434.556 789.226 434.528 789.156C434.499 789.087 434.458 789.023 434.405 788.97C434.352 788.916 434.289 788.873 434.219 788.844C434.15 788.815 434.075 788.801 434 788.801C433.925 788.801 433.85 788.815 433.781 788.844C433.711 788.873 433.648 788.916 433.595 788.97C433.542 789.023 433.501 789.087 433.472 789.156C433.444 789.226 433.43 789.301 433.431 789.376V791.992C433.431 792.143 433.491 792.288 433.598 792.394C433.704 792.501 433.849 792.561 434 792.561Z" fill="#0F62FE"/>
<path d="M428.215 793.694C428.292 793.824 428.416 793.918 428.561 793.956C428.706 793.995 428.861 793.974 428.991 793.899C429.121 793.824 429.216 793.7 429.255 793.555C429.295 793.41 429.275 793.256 429.201 793.125L427.893 790.86C427.856 790.795 427.806 790.738 427.747 790.692C427.688 790.645 427.62 790.612 427.548 790.592C427.475 790.572 427.399 790.567 427.325 790.577C427.25 790.586 427.179 790.611 427.114 790.648C427.049 790.686 426.992 790.736 426.946 790.796C426.901 790.855 426.867 790.923 426.848 790.996C426.829 791.068 426.824 791.144 426.834 791.219C426.845 791.293 426.87 791.365 426.908 791.429L428.215 793.694Z" fill="#0F62FE"/>
<path d="M425.119 796.791L422.854 795.483C422.789 795.445 422.717 795.42 422.643 795.41C422.569 795.4 422.493 795.404 422.42 795.423C422.348 795.443 422.28 795.476 422.22 795.522C422.16 795.567 422.11 795.624 422.073 795.689C422.035 795.754 422.011 795.826 422.001 795.9C421.992 795.975 421.997 796.05 422.017 796.123C422.036 796.195 422.07 796.263 422.116 796.323C422.162 796.382 422.219 796.431 422.285 796.469L424.55 797.776C424.615 797.814 424.686 797.839 424.761 797.85C424.835 797.86 424.911 797.855 424.983 797.836C425.056 797.817 425.124 797.783 425.184 797.738C425.243 797.692 425.293 797.635 425.331 797.57C425.369 797.505 425.393 797.434 425.403 797.359C425.412 797.285 425.407 797.209 425.387 797.136C425.368 797.064 425.334 796.996 425.288 796.937C425.242 796.878 425.184 796.828 425.119 796.791Z" fill="#0F62FE"/>
</g>
<circle cx="435.5" cy="857.5" r="2.5" fill="#161616"/>
<circle cx="462.5" cy="881.5" r="2.5" fill="#161616"/>
<circle cx="462.5" cy="905.5" r="2.5" fill="#161616"/>
<circle cx="462.5" cy="929.5" r="2.5" fill="#161616"/>
<circle cx="435.5" cy="953.5" r="2.5" fill="#161616"/>
<circle cx="435.5" cy="977.5" r="2.5" fill="#161616"/>
<circle cx="435.5" cy="1001.5" r="2.5" fill="#161616"/>
<circle cx="462.5" cy="1025.5" r="2.5" fill="#161616"/>
<circle cx="462.5" cy="1049.5" r="2.5" fill="#161616"/>
<text fill="#161616" xml:space="preserve" style="white-space: pre" font-family="IBM Plex Sans" font-size="20" font-weight="600" letter-spacing="0px"><tspan x="1337" y="104.5">Security and Compliance</tspan></text>
<rect width="32" height="32" transform="translate(1337 48)" fill="white" fill-opacity="0.01"/>
<path d="M1367 66V71.5C1367 73 1366.1 74.3 1364.7 75L1363 75.8L1361.3 75C1359.9 74.4 1359 73 1359 71.5V66H1367ZM1369 64H1357V71.5C1357 73.7 1358.3 75.8 1360.4 76.8L1363 78L1365.6 76.8C1367.7 75.8 1369 73.8 1369 71.5V64Z" fill="#161616"/>
<path d="M1353 73H1344.5C1340.4 73 1337 69.6 1337 65.5C1337 61.8 1339.7 58.8 1343.2 58.1C1344.1 53.4 1348.2 50 1353 50C1358.5 50 1363 54.5 1363 60H1361C1361 55.6 1357.4 52 1353 52C1348.9 52 1345.5 55.1 1345 59.1V60H1344.1C1341.2 60.2 1339 62.6 1339 65.5C1339 68.5 1341.5 71 1344.5 71H1353V73Z" fill="#161616"/>
<rect x="1322" y="329" width="348" height="130" rx="3" fill="#EDF5FF"/>
<rect x="1322" y="329" width="348" height="130" rx="3" stroke="#A6C8FF" stroke-width="2"/>
<text fill="#161616" xml:space="preserve" style="white-space: pre" font-family="IBM Plex Sans" font-size="18" letter-spacing="0px"><tspan x="1337" y="394.75">IBM Cloud&#x2028;</tspan><tspan x="1337" y="418.75">Security and Compliance Center </tspan><tspan x="1337" y="442.75">Workload Protection</tspan></text>
<g clip-path="url(#clip9_17_2642)">
<rect width="24" height="24" transform="translate(1337 344)" fill="white" fill-opacity="0.01"/>
<path d="M1355.44 354.238C1354.69 352.841 1353.51 351.724 1352.08 351.056C1350.64 350.388 1349.03 350.205 1347.48 350.534C1345.93 350.863 1344.53 351.687 1343.49 352.881C1342.45 354.075 1341.83 355.575 1341.71 357.154C1340.43 357.293 1339.24 357.919 1338.4 358.906C1337.56 359.892 1337.13 361.162 1337.2 362.456C1337.27 363.749 1337.83 364.967 1338.77 365.859C1339.71 366.751 1340.95 367.249 1342.25 367.25H1354.25C1355.89 367.251 1357.47 366.64 1358.68 365.536C1359.89 364.432 1360.64 362.916 1360.79 361.285C1360.94 359.655 1360.47 358.027 1359.48 356.723C1358.49 355.419 1357.05 354.533 1355.44 354.238ZM1354.25 366.125H1342.25C1341.25 366.127 1340.29 365.75 1339.56 365.069C1338.83 364.388 1338.39 363.456 1338.32 362.46C1338.26 361.464 1338.57 360.481 1339.2 359.709C1339.83 358.937 1340.74 358.434 1341.73 358.303C1341.8 359.296 1342.09 360.261 1342.55 361.141C1342.59 361.208 1342.63 361.268 1342.69 361.316C1342.75 361.365 1342.81 361.402 1342.89 361.424C1342.96 361.447 1343.03 361.455 1343.11 361.448C1343.18 361.441 1343.26 361.419 1343.32 361.384C1343.39 361.348 1343.45 361.3 1343.49 361.241C1343.54 361.183 1343.58 361.116 1343.6 361.043C1343.62 360.971 1343.62 360.896 1343.61 360.821C1343.61 360.747 1343.58 360.674 1343.54 360.609C1342.8 359.219 1342.62 357.598 1343.03 356.076C1343.44 354.555 1344.41 353.247 1345.76 352.421C1347.1 351.595 1348.71 351.312 1350.25 351.631C1351.79 351.949 1353.16 352.845 1354.06 354.135C1353.17 354.16 1352.28 354.369 1351.47 354.75C1350.65 355.13 1349.92 355.674 1349.33 356.348C1349.28 356.403 1349.24 356.467 1349.21 356.538C1349.19 356.608 1349.18 356.683 1349.18 356.758C1349.18 356.833 1349.2 356.906 1349.23 356.973C1349.27 357.041 1349.31 357.101 1349.37 357.151C1349.43 357.2 1349.49 357.238 1349.56 357.262C1349.63 357.286 1349.71 357.295 1349.78 357.29C1349.86 357.284 1349.93 357.264 1350 357.23C1350.06 357.196 1350.12 357.149 1350.17 357.092C1350.77 356.41 1351.53 355.89 1352.39 355.579C1353.24 355.268 1354.16 355.175 1355.06 355.311C1355.96 355.446 1356.81 355.804 1357.53 356.352C1358.26 356.901 1358.83 357.622 1359.21 358.45C1359.58 359.278 1359.74 360.187 1359.67 361.093C1359.6 361.999 1359.31 362.874 1358.82 363.637C1358.33 364.4 1357.65 365.028 1356.85 365.463C1356.05 365.897 1355.16 366.125 1354.25 366.125Z" fill="#0F62FE"/>
<path d="M1360.92 351.691C1360.89 351.627 1360.84 351.57 1360.78 351.524C1360.72 351.479 1360.65 351.445 1360.58 351.426C1360.51 351.407 1360.43 351.402 1360.36 351.412C1360.28 351.421 1360.21 351.446 1360.15 351.483L1357.88 352.791C1357.81 352.827 1357.76 352.877 1357.71 352.936C1357.66 352.995 1357.63 353.063 1357.61 353.136C1357.59 353.209 1357.58 353.286 1357.59 353.361C1357.6 353.436 1357.62 353.509 1357.66 353.574C1357.7 353.64 1357.75 353.698 1357.81 353.743C1357.87 353.789 1357.94 353.823 1358.01 353.841C1358.09 353.86 1358.16 353.864 1358.24 353.853C1358.31 353.842 1358.39 353.816 1358.45 353.776L1360.71 352.469C1360.85 352.393 1360.94 352.269 1360.98 352.123C1361.02 351.977 1361 351.822 1360.92 351.691Z" fill="#0F62FE"/>
<path d="M1354.01 349.903C1354.07 349.94 1354.14 349.964 1354.22 349.974C1354.29 349.984 1354.37 349.979 1354.44 349.96C1354.51 349.94 1354.58 349.907 1354.64 349.861C1354.7 349.816 1354.75 349.759 1354.78 349.694L1356.09 347.429C1356.17 347.299 1356.19 347.144 1356.15 346.999C1356.11 346.854 1356.01 346.731 1355.88 346.656C1355.75 346.581 1355.6 346.56 1355.45 346.598C1355.31 346.637 1355.18 346.731 1355.11 346.86L1353.8 349.125C1353.72 349.256 1353.7 349.411 1353.74 349.557C1353.78 349.703 1353.88 349.827 1354.01 349.903Z" fill="#0F62FE"/>
<path d="M1349 348.561C1349.15 348.561 1349.3 348.501 1349.4 348.394C1349.51 348.288 1349.57 348.143 1349.57 347.992V345.376C1349.57 345.301 1349.56 345.226 1349.53 345.156C1349.5 345.087 1349.46 345.023 1349.4 344.97C1349.35 344.916 1349.29 344.873 1349.22 344.844C1349.15 344.815 1349.08 344.801 1349 344.801C1348.92 344.801 1348.85 344.815 1348.78 344.844C1348.71 344.873 1348.65 344.916 1348.6 344.97C1348.54 345.023 1348.5 345.087 1348.47 345.156C1348.44 345.226 1348.43 345.301 1348.43 345.376V347.992C1348.43 348.143 1348.49 348.288 1348.6 348.394C1348.7 348.501 1348.85 348.561 1349 348.561Z" fill="#0F62FE"/>
<path d="M1343.22 349.694C1343.29 349.824 1343.42 349.918 1343.56 349.956C1343.71 349.995 1343.86 349.974 1343.99 349.899C1344.12 349.824 1344.22 349.7 1344.26 349.555C1344.29 349.41 1344.28 349.256 1344.2 349.125L1342.89 346.86C1342.86 346.795 1342.81 346.738 1342.75 346.692C1342.69 346.645 1342.62 346.612 1342.55 346.592C1342.48 346.572 1342.4 346.567 1342.32 346.577C1342.25 346.586 1342.18 346.611 1342.11 346.648C1342.05 346.686 1341.99 346.736 1341.95 346.796C1341.9 346.855 1341.87 346.923 1341.85 346.996C1341.83 347.068 1341.82 347.144 1341.83 347.219C1341.84 347.293 1341.87 347.365 1341.91 347.429L1343.22 349.694Z" fill="#0F62FE"/>
<path d="M1340.12 352.791L1337.85 351.483C1337.79 351.445 1337.72 351.42 1337.64 351.41C1337.57 351.4 1337.49 351.404 1337.42 351.423C1337.35 351.443 1337.28 351.476 1337.22 351.522C1337.16 351.567 1337.11 351.624 1337.07 351.689C1337.04 351.754 1337.01 351.826 1337 351.9C1336.99 351.975 1337 352.05 1337.02 352.123C1337.04 352.195 1337.07 352.263 1337.12 352.323C1337.16 352.382 1337.22 352.431 1337.28 352.469L1339.55 353.776C1339.61 353.814 1339.69 353.839 1339.76 353.85C1339.84 353.86 1339.91 353.855 1339.98 353.836C1340.06 353.817 1340.12 353.783 1340.18 353.738C1340.24 353.692 1340.29 353.635 1340.33 353.57C1340.37 353.505 1340.39 353.434 1340.4 353.359C1340.41 353.285 1340.41 353.209 1340.39 353.136C1340.37 353.064 1340.33 352.996 1340.29 352.937C1340.24 352.878 1340.18 352.828 1340.12 352.791Z" fill="#0F62FE"/>
</g>
<rect x="1322" y="477" width="348" height="130" rx="3" fill="#EDF5FF"/>
<rect x="1322" y="477" width="348" height="130" rx="3" stroke="#A6C8FF" stroke-width="2"/>
<text fill="#161616" xml:space="preserve" style="white-space: pre" font-family="IBM Plex Sans" font-size="18" letter-spacing="0px"><tspan x="1337" y="542.75">IBM Cloud&#x2028;</tspan><tspan x="1337" y="566.75">Key Protect (BYOK/ KYOK)</tspan></text>
<g clip-path="url(#clip10_17_2642)">
<rect width="24" height="24" transform="translate(1337 492)" fill="white" fill-opacity="0.01"/>
<path d="M1355.44 502.238C1354.69 500.841 1353.51 499.724 1352.08 499.056C1350.64 498.388 1349.03 498.205 1347.48 498.534C1345.93 498.863 1344.53 499.687 1343.49 500.881C1342.45 502.075 1341.83 503.575 1341.71 505.154C1340.43 505.293 1339.24 505.919 1338.4 506.906C1337.56 507.892 1337.13 509.162 1337.2 510.456C1337.27 511.749 1337.83 512.967 1338.77 513.859C1339.71 514.751 1340.95 515.249 1342.25 515.25H1354.25C1355.89 515.251 1357.47 514.64 1358.68 513.536C1359.89 512.432 1360.64 510.916 1360.79 509.285C1360.94 507.655 1360.47 506.027 1359.48 504.723C1358.49 503.419 1357.05 502.533 1355.44 502.238ZM1354.25 514.125H1342.25C1341.25 514.127 1340.29 513.75 1339.56 513.069C1338.83 512.388 1338.39 511.456 1338.32 510.46C1338.26 509.464 1338.57 508.481 1339.2 507.709C1339.83 506.937 1340.74 506.434 1341.73 506.303C1341.8 507.296 1342.09 508.261 1342.55 509.141C1342.59 509.208 1342.63 509.268 1342.69 509.316C1342.75 509.365 1342.81 509.402 1342.89 509.424C1342.96 509.447 1343.03 509.455 1343.11 509.448C1343.18 509.441 1343.26 509.419 1343.32 509.384C1343.39 509.348 1343.45 509.3 1343.49 509.241C1343.54 509.183 1343.58 509.116 1343.6 509.043C1343.62 508.971 1343.62 508.896 1343.61 508.821C1343.61 508.747 1343.58 508.674 1343.54 508.609C1342.8 507.219 1342.62 505.598 1343.03 504.076C1343.44 502.555 1344.41 501.247 1345.76 500.421C1347.1 499.595 1348.71 499.312 1350.25 499.631C1351.79 499.949 1353.16 500.845 1354.06 502.135C1353.17 502.16 1352.28 502.369 1351.47 502.75C1350.65 503.13 1349.92 503.674 1349.33 504.348C1349.28 504.403 1349.24 504.467 1349.21 504.538C1349.19 504.608 1349.18 504.683 1349.18 504.758C1349.18 504.833 1349.2 504.906 1349.23 504.973C1349.27 505.041 1349.31 505.101 1349.37 505.151C1349.43 505.2 1349.49 505.238 1349.56 505.262C1349.63 505.286 1349.71 505.295 1349.78 505.29C1349.86 505.284 1349.93 505.264 1350 505.23C1350.06 505.196 1350.12 505.149 1350.17 505.092C1350.77 504.41 1351.53 503.89 1352.39 503.579C1353.24 503.268 1354.16 503.175 1355.06 503.311C1355.96 503.446 1356.81 503.804 1357.53 504.352C1358.26 504.901 1358.83 505.622 1359.21 506.45C1359.58 507.278 1359.74 508.187 1359.67 509.093C1359.6 509.999 1359.31 510.874 1358.82 511.637C1358.33 512.4 1357.65 513.028 1356.85 513.463C1356.05 513.897 1355.16 514.125 1354.25 514.125Z" fill="#0F62FE"/>
<path d="M1360.92 499.691C1360.89 499.627 1360.84 499.57 1360.78 499.524C1360.72 499.479 1360.65 499.445 1360.58 499.426C1360.51 499.407 1360.43 499.402 1360.36 499.412C1360.28 499.421 1360.21 499.446 1360.15 499.483L1357.88 500.791C1357.81 500.827 1357.76 500.877 1357.71 500.936C1357.66 500.995 1357.63 501.063 1357.61 501.136C1357.59 501.209 1357.58 501.286 1357.59 501.361C1357.6 501.436 1357.62 501.509 1357.66 501.574C1357.7 501.64 1357.75 501.698 1357.81 501.743C1357.87 501.789 1357.94 501.823 1358.01 501.841C1358.09 501.86 1358.16 501.864 1358.24 501.853C1358.31 501.842 1358.39 501.816 1358.45 501.776L1360.71 500.469C1360.85 500.393 1360.94 500.269 1360.98 500.123C1361.02 499.977 1361 499.822 1360.92 499.691Z" fill="#0F62FE"/>
<path d="M1354.01 497.903C1354.07 497.94 1354.14 497.964 1354.22 497.974C1354.29 497.984 1354.37 497.979 1354.44 497.96C1354.51 497.94 1354.58 497.907 1354.64 497.861C1354.7 497.816 1354.75 497.759 1354.78 497.694L1356.09 495.429C1356.17 495.299 1356.19 495.144 1356.15 494.999C1356.11 494.854 1356.01 494.731 1355.88 494.656C1355.75 494.581 1355.6 494.56 1355.45 494.598C1355.31 494.637 1355.18 494.731 1355.11 494.86L1353.8 497.125C1353.72 497.256 1353.7 497.411 1353.74 497.557C1353.78 497.703 1353.88 497.827 1354.01 497.903Z" fill="#0F62FE"/>
<path d="M1349 496.561C1349.15 496.561 1349.3 496.501 1349.4 496.394C1349.51 496.288 1349.57 496.143 1349.57 495.992V493.376C1349.57 493.301 1349.56 493.226 1349.53 493.156C1349.5 493.087 1349.46 493.023 1349.4 492.97C1349.35 492.916 1349.29 492.873 1349.22 492.844C1349.15 492.815 1349.08 492.801 1349 492.801C1348.92 492.801 1348.85 492.815 1348.78 492.844C1348.71 492.873 1348.65 492.916 1348.6 492.97C1348.54 493.023 1348.5 493.087 1348.47 493.156C1348.44 493.226 1348.43 493.301 1348.43 493.376V495.992C1348.43 496.143 1348.49 496.288 1348.6 496.394C1348.7 496.501 1348.85 496.561 1349 496.561Z" fill="#0F62FE"/>
<path d="M1343.22 497.694C1343.29 497.824 1343.42 497.918 1343.56 497.956C1343.71 497.995 1343.86 497.974 1343.99 497.899C1344.12 497.824 1344.22 497.7 1344.26 497.555C1344.29 497.41 1344.28 497.256 1344.2 497.125L1342.89 494.86C1342.86 494.795 1342.81 494.738 1342.75 494.692C1342.69 494.645 1342.62 494.612 1342.55 494.592C1342.48 494.572 1342.4 494.567 1342.32 494.577C1342.25 494.586 1342.18 494.611 1342.11 494.648C1342.05 494.686 1341.99 494.736 1341.95 494.796C1341.9 494.855 1341.87 494.923 1341.85 494.996C1341.83 495.068 1341.82 495.144 1341.83 495.219C1341.84 495.293 1341.87 495.365 1341.91 495.429L1343.22 497.694Z" fill="#0F62FE"/>
<path d="M1340.12 500.791L1337.85 499.483C1337.79 499.445 1337.72 499.42 1337.64 499.41C1337.57 499.4 1337.49 499.404 1337.42 499.423C1337.35 499.443 1337.28 499.476 1337.22 499.522C1337.16 499.567 1337.11 499.624 1337.07 499.689C1337.04 499.754 1337.01 499.826 1337 499.9C1336.99 499.975 1337 500.05 1337.02 500.123C1337.04 500.195 1337.07 500.263 1337.12 500.323C1337.16 500.382 1337.22 500.431 1337.28 500.469L1339.55 501.776C1339.61 501.814 1339.69 501.839 1339.76 501.85C1339.84 501.86 1339.91 501.855 1339.98 501.836C1340.06 501.817 1340.12 501.783 1340.18 501.738C1340.24 501.692 1340.29 501.635 1340.33 501.57C1340.37 501.505 1340.39 501.434 1340.4 501.359C1340.41 501.285 1340.41 501.209 1340.39 501.136C1340.37 501.064 1340.33 500.996 1340.29 500.937C1340.24 500.878 1340.18 500.828 1340.12 500.791Z" fill="#0F62FE"/>
</g>
<rect x="1322" y="773" width="348" height="130" rx="3" fill="#F4F4F4"/>
<rect x="1322" y="773" width="348" height="130" rx="3" stroke="#E0E0E0" stroke-width="2"/>
<text fill="#161616" xml:space="preserve" style="white-space: pre" font-family="IBM Plex Sans" font-size="18" letter-spacing="0px"><tspan x="1337" y="806.75">3rd Party&#xa0;Virtual&#xa0;Network&#xa0;&#10;</tspan><tspan x="1337" y="832.75">Functions (VNFs)&#x2028;</tspan><tspan x="1337" y="858.75">RYO / BYOL</tspan></text>
<rect width="1" height="1056" transform="translate(1296 32)" fill="#E0E0E0"/>
<path opacity="0.7" d="M1703 1120H0V0H1703V1120ZM20 174V317H1286V174H20Z" fill="white"/>
</g>
<defs>
<clipPath id="clip0_17_2642">
<rect width="1703" height="1120" fill="white"/>
</clipPath>
<clipPath id="clip1_17_2642">
<rect width="24" height="24" fill="white" transform="translate(422 48)"/>
</clipPath>
<clipPath id="clip2_17_2642">
<rect width="24" height="24" fill="white" transform="translate(422 196)"/>
</clipPath>
<clipPath id="clip3_17_2642">
<rect width="24" height="24" fill="white" transform="translate(422 344)"/>
</clipPath>
<clipPath id="clip4_17_2642">
<rect width="24" height="24" fill="white" transform="translate(422 492)"/>
</clipPath>
<clipPath id="clip5_17_2642">
<rect width="24" height="24" fill="white" transform="translate(863 492)"/>
</clipPath>
<clipPath id="clip6_17_2642">
<rect width="24" height="24" fill="white" transform="translate(422 640)"/>
</clipPath>
<clipPath id="clip7_17_2642">
<rect width="24" height="24" fill="white" transform="translate(863 640)"/>
</clipPath>
<clipPath id="clip8_17_2642">
<rect width="24" height="24" fill="white" transform="translate(422 788)"/>
</clipPath>
<clipPath id="clip9_17_2642">
<rect width="24" height="24" fill="white" transform="translate(1337 344)"/>
</clipPath>
<clipPath id="clip10_17_2642">
<rect width="24" height="24" fill="white" transform="translate(1337 492)"/>
</clipPath>
</defs>
</svg>
