<svg width="1920" height="1080" viewBox="0 0 1920 1080" fill="none" xmlns="http://www.w3.org/2000/svg">
<rect width="1920" height="1080" fill="#F5F5F5"/>
<path d="M-13968 -78C-13968 -79.1046 -13967.1 -80 -13966 -80H1998C1999.1 -80 2000 -79.1046 2000 -78V1158C2000 1159.1 1999.1 1160 1998 1160H-13966C-13967.1 1160 -13968 1159.1 -13968 1158V-78Z" fill="#E8E8E8"/>
<path d="M-13966 -80V-79H1998V-80V-81H-13966V-80ZM2000 -78H1999V1158H2000H2001V-78H2000ZM1998 1160V1159H-13966V1160V1161H1998V1160ZM-13968 1158H-13967V-78H-13968H-13969V1158H-13968ZM-13966 1160V1159C-13966.6 1159 -13967 1158.55 -13967 1158H-13968H-13969C-13969 1159.66 -13967.7 1161 -13966 1161V1160ZM2000 1158H1999C1999 1158.55 1998.55 1159 1998 1159V1160V1161C1999.66 1161 2001 1159.66 2001 1158H2000ZM1998 -80V-79C1998.55 -79 1999 -78.5525 1999 -78H2000H2001C2001 -79.6566 1999.66 -81 1998 -81V-80ZM-13966 -80V-81C-13967.7 -81 -13969 -79.6569 -13969 -78H-13968H-13967C-13967 -78.5523 -13966.6 -79 -13966 -79V-80Z" fill="black" fill-opacity="0.1"/>
<g clip-path="url(#clip0_17_2642)">
<rect width="1920" height="1080" fill="white"/>
<mask id="path-3-inside-1_17_2642" fill="white">
<path d="M32 32H390V172H32V32Z"/>
</mask>
<path d="M390 172V171H32V172V173H390V172Z" fill="#E0E0E0" mask="url(#path-3-inside-1_17_2642)"/>
<text fill="#161616" xml:space="preserve" style="white-space: pre" font-family="IBM Plex Sans" font-size="20" font-weight="600" letter-spacing="0px"><tspan x="48" y="104.5">Workload Migration</tspan></text>
<rect width="32" height="32" transform="translate(48 48)" fill="white" fill-opacity="0.01"/>
<path d="M70 78H58C56.9 78 56 77.1 56 76V73H58V76H70V73H72V76C72 77.1 71.1 78 70 78Z" fill="#161616"/>
<path d="M63 62.8V73H65V62.8L67.6 65.4L69 64L64 59L59 64L60.4 65.4L63 62.8Z" fill="#161616"/>
<path d="M72.8 57.1C71.9 53 68.3 50 64 50C59.7 50 56.1 53 55.2 57.1C52.2 57.7 50 60.4 50 63.5C50 67.1 52.9 70 56.5 70H60V68H56.5C54 68 52 66 52 63.5C52 61.2 53.8 59.2 56.1 59H57L57.1 58.2C57.5 54.6 60.5 52 64 52C67.5 52 70.5 54.6 70.9 58.1L71 59L71.8 59.1C74.1 59.3 75.9 61.3 75.9 63.6C75.9 66.1 73.9 68.1 71.4 68.1H68V70.1H71.5C75.1 70.1 78 67.2 78 63.6C78 60.4 75.8 57.7 72.8 57.1Z" fill="#161616"/>
<mask id="path-7-inside-2_17_2642" fill="white">
<path d="M32 180H390V320H32V180Z"/>
</mask>
<path d="M390 320V319H32V320V321H390V320Z" fill="#E0E0E0" mask="url(#path-7-inside-2_17_2642)"/>
<text fill="#161616" xml:space="preserve" style="white-space: pre" font-family="IBM Plex Sans" font-size="20" font-weight="600" letter-spacing="0px"><tspan x="48" y="252.5">Resiliency, backup and &#10;</tspan><tspan x="48" y="278.5">disaster recovery </tspan></text>
<rect width="32" height="32" transform="translate(48 196)" fill="white" fill-opacity="0.01"/>
<path d="M63 220V222H55.5C51.3 222 48 218.6 48 214.5C48 210.9 50.6 207.8 54.1 207.1C54.1 207.1 54.7 207 55 207H55.2L53.6 205.4L55 204L59 208L55 212L53.6 210.6L55.2 209H55C52.6 209.2 50.4 211.3 50.1 213.7C49.6 217.1 52.2 220 55.5 220H63ZM66 220C65.5 220 65 220.5 65 221C65 221.5 65.5 222 66 222C66.5 222 67 221.5 67 221C67 220.5 66.5 220 66 220ZM73.9 207.1L73.8 207C73 203 69.9 199.9 65.9 199.2C65.3 199 64.6 199 64 199C61.1 199 58.4 200.3 56.6 202.3L58.1 203.8C59.3 202.4 61 201.3 63 201.1C64 201 64.9 201 65.9 201.2C69.1 201.9 71.4 204.6 72 207.7L72.2 208.7C72.2 208.767 72.2333 208.8 72.3 208.8L73.4 209C74.6 209.2 75.7 209.7 76.5 210.5C77.8 211.8 78.4 213.6 78 215.4C77.5 217.9 75.5 219.7 73 219.9L74.5 218.3L73 217L69 221L73 225L74.4 223.6L72.8 222C76.3 221.8 79.2 219.3 79.9 215.9C80 215.4 80 215 80 214.6C80 210.9 77.5 207.8 73.9 207.1Z" fill="#161616"/>
<mask id="path-11-inside-3_17_2642" fill="white">
<path d="M32 328H390V468H32V328Z"/>
</mask>
<path d="M390 468V467H32V468V469H390V468Z" fill="#E0E0E0" mask="url(#path-11-inside-3_17_2642)"/>
<text fill="#161616" xml:space="preserve" style="white-space: pre" font-family="IBM Plex Sans" font-size="20" font-weight="600" letter-spacing="0px"><tspan x="48" y="400.5">Management and Observability</tspan></text>
<rect width="32" height="32" transform="translate(48 344)" fill="white" fill-opacity="0.01"/>
<path d="M76 360V366H52V350H59V348H52C51.4696 348 50.9609 348.211 50.5858 348.586C50.2107 348.961 50 349.47 50 350V366C50 366.531 50.2107 367.039 50.5858 367.414C50.9609 367.789 51.4696 368 52 368H60V372H56V374H72V372H68V368H76C76.5304 368 77.0391 367.789 77.4142 367.414C77.7893 367.039 78 366.531 78 366V360H76ZM66 372H62V368H66V372Z" fill="#161616"/>
<path d="M66 362H65.99C65.7745 361.998 65.5654 361.926 65.3941 361.795C65.2227 361.665 65.0981 361.482 65.0389 361.275L63.2456 355H59V353H64C64.2173 353 64.4287 353.071 64.6022 353.202C64.7756 353.333 64.9018 353.516 64.9615 353.725L66.0357 357.484L69.0445 347.706C69.1093 347.503 69.2366 347.325 69.4081 347.198C69.5796 347.072 69.7868 347.002 70 347C70.2106 346.997 70.4166 347.062 70.5875 347.185C70.7584 347.308 70.8851 347.483 70.9487 347.684L72.7207 353H78V355H72C71.7901 355 71.5855 354.934 71.4153 354.811C71.245 354.689 71.1177 354.515 71.0513 354.316L70.0381 351.276L66.9556 361.294C66.8927 361.499 66.766 361.677 66.594 361.804C66.422 361.932 66.2138 362 66 362Z" fill="#161616"/>
<mask id="path-15-inside-4_17_2642" fill="white">
<path d="M32 476H390V616H32V476Z"/>
</mask>
<path d="M390 616V615H32V616V617H390V616Z" fill="#E0E0E0" mask="url(#path-15-inside-4_17_2642)"/>
<text fill="#161616" xml:space="preserve" style="white-space: pre" font-family="IBM Plex Sans" font-size="20" font-weight="600" letter-spacing="0px"><tspan x="48" y="548.5">Storage</tspan></text>
<rect width="32" height="32" transform="translate(48 492)" fill="white" fill-opacity="0.01"/>
<path d="M57 504V502H52C51.4696 502 50.9609 502.211 50.5858 502.586C50.2107 502.961 50 503.47 50 504V520C50 520.53 50.2107 521.039 50.5858 521.414C50.9609 521.789 51.4696 522 52 522H68C68.5304 522 69.0391 521.789 69.4142 521.414C69.7893 521.039 70 520.53 70 520V511H68V520H52V504" fill="#161616"/>
<path d="M70 504H62V496H70V504ZM60 496V504C60 504.53 60.2107 505.039 60.5858 505.414C60.9609 505.789 61.4696 506 62 506H70C70.5304 506 71.0391 505.789 71.4142 505.414C71.7893 505.039 72 504.53 72 504V496C72 495.47 71.7893 494.961 71.4142 494.586C71.0391 494.211 70.5304 494 70 494H62C61.4696 494 60.9609 494.211 60.5858 494.586C60.2107 494.961 60 495.47 60 496Z" fill="#161616"/>
<path d="M62 510V514H58V510H62ZM56 510V514C56 514.53 56.2107 515.039 56.5858 515.414C56.9609 515.789 57.4696 516 58 516H62C62.5304 516 63.0391 515.789 63.4142 515.414C63.7893 515.039 64 514.53 64 514V510C64 509.47 63.7893 508.961 63.4142 508.586C63.0391 508.211 62.5304 508 62 508H58C57.4696 508 56.9609 508.211 56.5858 508.586C56.2107 508.961 56 509.47 56 510Z" fill="#161616"/>
<path d="M76 509V511H74V509H76ZM72 508V512C72 512.265 72.1054 512.52 72.2929 512.707C72.4804 512.895 72.7348 513 73 513H77C77.2652 513 77.5196 512.895 77.7071 512.707C77.8946 512.52 78 512.265 78 512V508C78 507.735 77.8946 507.48 77.7071 507.293C77.5196 507.105 77.2652 507 77 507H73C72.7348 507 72.4804 507.105 72.2929 507.293C72.1054 507.48 72 507.735 72 508Z" fill="#161616"/>
<mask id="path-19-inside-5_17_2642" fill="white">
<path d="M32 624H390V764H32V624Z"/>
</mask>
<path d="M390 764V763H32V764V765H390V764Z" fill="#E0E0E0" mask="url(#path-19-inside-5_17_2642)"/>
<text fill="#161616" xml:space="preserve" style="white-space: pre" font-family="IBM Plex Sans" font-size="20" font-weight="600" letter-spacing="0px"><tspan x="48" y="696.5">Compute</tspan></text>
<rect width="32" height="32" transform="translate(48 640)" fill="white" fill-opacity="0.01"/>
<path d="M59 651V661H69V651H59ZM67 659H61V653H67V659Z" fill="#161616"/>
<path d="M78 653V651H74V648C74 647.47 73.7893 646.961 73.4142 646.586C73.0391 646.211 72.5304 646 72 646H69V642H67V646H61V642H59V646H56C55.4696 646 54.9609 646.211 54.5858 646.586C54.2107 646.961 54 647.47 54 648V651H50V653H54V659H50V661H54V664C54 664.53 54.2107 665.039 54.5858 665.414C54.9609 665.789 55.4696 666 56 666H59V670H61V666H67V670H69V666H72C72.5304 666 73.0391 665.789 73.4142 665.414C73.7893 665.039 74 664.53 74 664V661H78V659H74V653H78ZM72 664H56V648H72V664Z" fill="#161616"/>
<text fill="#161616" xml:space="preserve" style="white-space: pre" font-family="IBM Plex Sans" font-size="20" font-weight="600" letter-spacing="0px"><tspan x="48" y="844.5">Network and Interconnectivity</tspan></text>
<rect width="32" height="32" transform="translate(48 788)" fill="white" fill-opacity="0.01"/>
<path d="M65.0004 805H70.1425C70.3859 805.943 70.9648 806.764 71.7705 807.311C72.5763 807.857 73.5537 808.091 74.5195 807.968C75.4853 807.845 76.3733 807.375 77.0169 806.644C77.6604 805.914 78.0155 804.974 78.0155 804C78.0155 803.026 77.6604 802.086 77.0169 801.356C76.3733 800.625 75.4853 800.155 74.5195 800.032C73.5537 799.909 72.5763 800.143 71.7705 800.689C70.9648 801.236 70.3859 802.057 70.1425 803H65.0004V795H70.1425C70.3859 795.943 70.9648 796.764 71.7705 797.311C72.5763 797.857 73.5537 798.091 74.5195 797.968C75.4853 797.845 76.3733 797.375 77.0169 796.644C77.6604 795.914 78.0155 794.974 78.0155 794C78.0155 793.026 77.6604 792.086 77.0169 791.356C76.3733 790.625 75.4853 790.155 74.5195 790.032C73.5537 789.909 72.5763 790.143 71.7705 790.689C70.9648 791.236 70.3859 792.057 70.1425 793H65.0004C64.4702 793.001 63.9618 793.212 63.5869 793.586C63.212 793.961 63.001 794.47 63.0004 795V803H57.8583C57.6149 802.057 57.0361 801.236 56.2303 800.689C55.4245 800.143 54.4471 799.909 53.4813 800.032C52.5155 800.155 51.6276 800.625 50.984 801.356C50.3404 802.086 49.9854 803.026 49.9854 804C49.9854 804.974 50.3404 805.914 50.984 806.644C51.6276 807.375 52.5155 807.845 53.4813 807.968C54.4471 808.091 55.4245 807.857 56.2303 807.311C57.0361 806.764 57.6149 805.943 57.8583 805H63.0004V813C63.001 813.53 63.212 814.039 63.5869 814.414C63.9618 814.788 64.4702 814.999 65.0004 815H70.1425C70.3859 815.943 70.9648 816.764 71.7705 817.311C72.5763 817.857 73.5537 818.091 74.5195 817.968C75.4853 817.845 76.3733 817.375 77.0169 816.644C77.6604 815.914 78.0155 814.974 78.0155 814C78.0155 813.026 77.6604 812.086 77.0169 811.356C76.3733 810.625 75.4853 810.155 74.5195 810.032C73.5537 809.909 72.5763 810.143 71.7705 810.689C70.9648 811.236 70.3859 812.057 70.1425 813H65.0004V805ZM74.0004 802C74.396 802 74.7827 802.117 75.1116 802.337C75.4405 802.557 75.6968 802.869 75.8482 803.235C75.9996 803.6 76.0392 804.002 75.962 804.39C75.8848 804.778 75.6944 805.135 75.4146 805.414C75.1349 805.694 74.7786 805.884 74.3906 805.962C74.0027 806.039 73.6005 805.999 73.2351 805.848C72.8696 805.696 72.5573 805.44 72.3375 805.111C72.1177 804.782 72.0004 804.396 72.0004 804C72.001 803.47 72.212 802.961 72.5869 802.586C72.9618 802.212 73.4702 802.001 74.0004 802ZM74.0004 792C74.396 792 74.7827 792.117 75.1116 792.337C75.4405 792.557 75.6968 792.869 75.8482 793.235C75.9996 793.6 76.0392 794.002 75.962 794.39C75.8848 794.778 75.6944 795.135 75.4146 795.414C75.1349 795.694 74.7786 795.884 74.3906 795.962C74.0027 796.039 73.6005 795.999 73.2351 795.848C72.8696 795.696 72.5573 795.44 72.3375 795.111C72.1177 794.782 72.0004 794.396 72.0004 794C72.001 793.47 72.212 792.961 72.5869 792.586C72.9618 792.212 73.4702 792.001 74.0004 792ZM54.0004 806C53.6049 806 53.2182 805.883 52.8893 805.663C52.5604 805.443 52.3041 805.131 52.1527 804.765C52.0013 804.4 51.9617 803.998 52.0389 803.61C52.116 803.222 52.3065 802.866 52.5862 802.586C52.8659 802.306 53.2223 802.116 53.6103 802.038C53.9982 801.961 54.4003 802.001 54.7658 802.152C55.1313 802.304 55.4436 802.56 55.6634 802.889C55.8831 803.218 56.0004 803.604 56.0004 804C55.9998 804.53 55.7889 805.039 55.414 805.414C55.039 805.788 54.5307 805.999 54.0004 806ZM74.0004 812C74.396 812 74.7827 812.117 75.1116 812.337C75.4405 812.557 75.6968 812.869 75.8482 813.235C75.9996 813.6 76.0392 814.002 75.962 814.39C75.8848 814.778 75.6944 815.135 75.4146 815.414C75.1349 815.694 74.7786 815.884 74.3906 815.962C74.0027 816.039 73.6005 815.999 73.2351 815.848C72.8696 815.696 72.5573 815.44 72.3375 815.111C72.1177 814.782 72.0004 814.396 72.0004 814C72.001 813.47 72.212 812.961 72.5869 812.586C72.9618 812.212 73.4702 812.001 74.0004 812Z" fill="#161616"/>
<rect x="407" y="329" width="348" height="130" rx="3" fill="#FFF1F1"/>
<rect x="407" y="329" width="348" height="130" rx="3" stroke="#FFB3B8" stroke-width="2"/>
<text fill="#161616" xml:space="preserve" style="white-space: pre" font-family="IBM Plex Sans" font-size="18" letter-spacing="0px"><tspan x="422" y="394.75">Red Hat Advanced Cluster </tspan><tspan x="422" y="418.75">Management (RHACM)</tspan></text>
<g clip-path="url(#clip1_17_2642)">
<path d="M428.975 354.875L425.15 356.3C425.15 356.9 425.3 357.575 425.45 358.175L429.125 356.825C428.975 356.225 428.975 355.55 428.975 354.875ZM446 350.525C445.7 349.925 445.4 349.4 445.025 348.875L441.2 350.3C441.65 350.75 442.025 351.275 442.325 351.875L446 350.525Z" fill="#A30000"/>
<path d="M437.525 349.4C438.275 349.775 439.025 350.3 439.625 350.9L443.45 349.475C439.925 344.375 433.025 343.25 428.075 346.85C424.925 349.1 423.2 352.925 423.5 356.9L427.325 355.475C427.625 351.425 431.075 348.425 434.975 348.725C435.875 348.725 436.7 349.025 437.525 349.4ZM425.675 358.025L422 359.375C422.3 360.725 422.9 362.075 423.725 363.2L427.55 361.775C426.575 360.725 425.9 359.45 425.675 358.025Z" fill="#CC0000"/>
<path d="M441.65 356.6C441.65 357.5 441.35 358.325 440.975 359.15C439.325 362.825 435.05 364.4 431.45 362.675C430.7 362.3 429.95 361.775 429.35 361.175L425.525 362.6C426.575 364.175 428.075 365.45 429.8 366.275C435.35 368.9 441.875 366.5 444.425 360.8C445.25 359.075 445.55 357.125 445.4 355.175L441.575 356.6H441.65Z" fill="#CC0000"/>
<path d="M442.625 351.725L438.95 353.075C439.625 354.35 439.925 355.775 439.85 357.2L443.675 355.775C443.525 354.35 443.15 353 442.55 351.725" fill="#CC0000"/>
<path d="M428.975 355.625C428.975 355.325 428.975 355.1 428.975 354.8L425.15 356.225C425.15 356.45 425.15 356.75 425.225 356.975L428.975 355.55V355.625ZM445.475 349.475C445.325 349.25 445.25 349.1 445.1 348.875L441.275 350.3C441.425 350.45 441.575 350.675 441.725 350.9L445.475 349.475Z" fill="#820000"/>
<path d="M425.525 362.6C425.825 363.05 426.125 363.425 426.5 363.8L430.7 362.225C430.25 361.925 429.8 361.55 429.35 361.1L425.525 362.525V362.6ZM445.475 355.175L441.65 356.6C441.65 357.2 441.5 357.725 441.35 358.25L445.55 356.675C445.55 356.15 445.55 355.625 445.55 355.1" fill="#A30000"/>
</g>
<rect x="773" y="329" width="348" height="130" rx="3" fill="#FFF1F1"/>
<rect x="773" y="329" width="348" height="130" rx="3" stroke="#FFB3B8" stroke-width="2"/>
<text fill="#161616" xml:space="preserve" style="white-space: pre" font-family="IBM Plex Sans" font-size="18" letter-spacing="0px"><tspan x="788" y="394.75">Red Hat OpenShift Observability</tspan></text>
<g clip-path="url(#clip2_17_2642)">
<path d="M794.975 354.875L791.15 356.3C791.15 356.9 791.3 357.575 791.45 358.175L795.125 356.825C794.975 356.225 794.975 355.55 794.975 354.875ZM812 350.525C811.7 349.925 811.4 349.4 811.025 348.875L807.2 350.3C807.65 350.75 808.025 351.275 808.325 351.875L812 350.525Z" fill="#A30000"/>
<path d="M803.525 349.4C804.275 349.775 805.025 350.3 805.625 350.9L809.45 349.475C805.925 344.375 799.025 343.25 794.075 346.85C790.925 349.1 789.2 352.925 789.5 356.9L793.325 355.475C793.625 351.425 797.075 348.425 800.975 348.725C801.875 348.725 802.7 349.025 803.525 349.4ZM791.675 358.025L788 359.375C788.3 360.725 788.9 362.075 789.725 363.2L793.55 361.775C792.575 360.725 791.9 359.45 791.675 358.025Z" fill="#CC0000"/>
<path d="M807.65 356.6C807.65 357.5 807.35 358.325 806.975 359.15C805.325 362.825 801.05 364.4 797.45 362.675C796.7 362.3 795.95 361.775 795.35 361.175L791.525 362.6C792.575 364.175 794.075 365.45 795.8 366.275C801.35 368.9 807.875 366.5 810.425 360.8C811.25 359.075 811.55 357.125 811.4 355.175L807.575 356.6H807.65Z" fill="#CC0000"/>
<path d="M808.625 351.725L804.95 353.075C805.625 354.35 805.925 355.775 805.85 357.2L809.675 355.775C809.525 354.35 809.15 353 808.55 351.725" fill="#CC0000"/>
<path d="M794.975 355.625C794.975 355.325 794.975 355.1 794.975 354.8L791.15 356.225C791.15 356.45 791.15 356.75 791.225 356.975L794.975 355.55V355.625ZM811.475 349.475C811.325 349.25 811.25 349.1 811.1 348.875L807.275 350.3C807.425 350.45 807.575 350.675 807.725 350.9L811.475 349.475Z" fill="#820000"/>
<path d="M791.525 362.6C791.825 363.05 792.125 363.425 792.5 363.8L796.7 362.225C796.25 361.925 795.8 361.55 795.35 361.1L791.525 362.525V362.6ZM811.475 355.175L807.65 356.6C807.65 357.2 807.5 357.725 807.35 358.25L811.55 356.675C811.55 356.15 811.55 355.625 811.55 355.1" fill="#A30000"/>
</g>
<rect x="1139" y="329" width="348" height="130" rx="3" fill="#EDF5FF"/>
<rect x="1139" y="329" width="348" height="130" rx="3" stroke="#A6C8FF" stroke-width="2"/>
<text fill="#161616" xml:space="preserve" style="white-space: pre" font-family="IBM Plex Sans" font-size="18" letter-spacing="0px"><tspan x="1154" y="394.75">IBM Cloud&#10;</tspan><tspan x="1154" y="418.75">Monitoring and Logs</tspan></text>
<g clip-path="url(#clip3_17_2642)">
<rect width="24" height="24" transform="translate(1154 344)" fill="white" fill-opacity="0.01"/>
<path d="M1172.44 354.238C1171.69 352.841 1170.51 351.724 1169.08 351.056C1167.64 350.388 1166.03 350.205 1164.48 350.534C1162.93 350.863 1161.53 351.687 1160.49 352.881C1159.45 354.075 1158.83 355.575 1158.71 357.154C1157.43 357.293 1156.24 357.919 1155.4 358.906C1154.56 359.892 1154.13 361.162 1154.2 362.456C1154.27 363.749 1154.83 364.967 1155.77 365.859C1156.71 366.751 1157.96 367.249 1159.25 367.25H1171.25C1172.89 367.251 1174.47 366.64 1175.68 365.536C1176.89 364.432 1177.64 362.916 1177.79 361.285C1177.94 359.655 1177.47 358.027 1176.48 356.723C1175.49 355.419 1174.05 354.533 1172.44 354.238ZM1171.25 366.125H1159.25C1158.25 366.127 1157.29 365.75 1156.56 365.069C1155.83 364.388 1155.39 363.456 1155.32 362.46C1155.26 361.464 1155.57 360.481 1156.2 359.709C1156.83 358.937 1157.74 358.434 1158.73 358.303C1158.81 359.296 1159.09 360.261 1159.55 361.141C1159.59 361.208 1159.63 361.268 1159.69 361.316C1159.75 361.365 1159.82 361.402 1159.89 361.424C1159.96 361.447 1160.03 361.455 1160.11 361.448C1160.18 361.441 1160.26 361.419 1160.32 361.384C1160.39 361.348 1160.45 361.3 1160.49 361.241C1160.54 361.183 1160.58 361.116 1160.6 361.043C1160.62 360.971 1160.62 360.896 1160.61 360.821C1160.61 360.747 1160.58 360.674 1160.54 360.609C1159.8 359.219 1159.62 357.598 1160.03 356.076C1160.44 354.555 1161.42 353.247 1162.76 352.421C1164.1 351.595 1165.71 351.312 1167.25 351.631C1168.79 351.949 1170.16 352.845 1171.06 354.135C1170.17 354.16 1169.28 354.369 1168.47 354.75C1167.65 355.13 1166.92 355.674 1166.33 356.348C1166.28 356.403 1166.24 356.467 1166.21 356.538C1166.19 356.608 1166.18 356.683 1166.18 356.758C1166.18 356.833 1166.2 356.906 1166.24 356.973C1166.27 357.041 1166.31 357.101 1166.37 357.151C1166.43 357.2 1166.49 357.238 1166.56 357.262C1166.63 357.286 1166.71 357.295 1166.78 357.29C1166.86 357.284 1166.93 357.264 1167 357.23C1167.06 357.196 1167.12 357.149 1167.17 357.092C1167.77 356.41 1168.53 355.89 1169.39 355.579C1170.24 355.268 1171.16 355.175 1172.06 355.311C1172.96 355.446 1173.81 355.804 1174.53 356.352C1175.26 356.901 1175.83 357.622 1176.21 358.45C1176.58 359.278 1176.74 360.187 1176.67 361.093C1176.6 361.999 1176.31 362.874 1175.82 363.637C1175.33 364.4 1174.65 365.028 1173.85 365.463C1173.05 365.897 1172.16 366.125 1171.25 366.125Z" fill="#0F62FE"/>
<path d="M1177.92 351.691C1177.89 351.627 1177.84 351.57 1177.78 351.524C1177.72 351.479 1177.65 351.445 1177.58 351.426C1177.51 351.407 1177.43 351.402 1177.36 351.412C1177.28 351.421 1177.21 351.446 1177.15 351.483L1174.88 352.791C1174.82 352.827 1174.76 352.877 1174.71 352.936C1174.66 352.995 1174.63 353.063 1174.61 353.136C1174.59 353.209 1174.58 353.286 1174.59 353.361C1174.6 353.436 1174.62 353.509 1174.66 353.574C1174.7 353.64 1174.75 353.698 1174.81 353.743C1174.87 353.789 1174.94 353.823 1175.01 353.841C1175.09 353.86 1175.16 353.864 1175.24 353.853C1175.31 353.842 1175.39 353.816 1175.45 353.776L1177.72 352.469C1177.85 352.393 1177.94 352.269 1177.98 352.123C1178.02 351.977 1178 351.822 1177.92 351.691Z" fill="#0F62FE"/>
<path d="M1171.01 349.903C1171.07 349.94 1171.14 349.964 1171.22 349.974C1171.29 349.984 1171.37 349.979 1171.44 349.96C1171.51 349.94 1171.58 349.907 1171.64 349.861C1171.7 349.816 1171.75 349.759 1171.79 349.694L1173.09 347.429C1173.17 347.299 1173.19 347.144 1173.15 346.999C1173.11 346.854 1173.01 346.731 1172.88 346.656C1172.75 346.581 1172.6 346.56 1172.45 346.598C1172.31 346.637 1172.18 346.731 1172.11 346.86L1170.8 349.125C1170.72 349.256 1170.7 349.411 1170.74 349.557C1170.78 349.703 1170.88 349.827 1171.01 349.903Z" fill="#0F62FE"/>
<path d="M1166 348.561C1166.15 348.561 1166.3 348.501 1166.4 348.394C1166.51 348.288 1166.57 348.143 1166.57 347.992V345.376C1166.57 345.301 1166.56 345.226 1166.53 345.156C1166.5 345.087 1166.46 345.023 1166.41 344.97C1166.35 344.916 1166.29 344.873 1166.22 344.844C1166.15 344.815 1166.08 344.801 1166 344.801C1165.93 344.801 1165.85 344.815 1165.78 344.844C1165.71 344.873 1165.65 344.916 1165.6 344.97C1165.54 345.023 1165.5 345.087 1165.47 345.156C1165.44 345.226 1165.43 345.301 1165.43 345.376V347.992C1165.43 348.143 1165.49 348.288 1165.6 348.394C1165.7 348.501 1165.85 348.561 1166 348.561Z" fill="#0F62FE"/>
<path d="M1160.22 349.694C1160.29 349.824 1160.42 349.918 1160.56 349.956C1160.71 349.995 1160.86 349.974 1160.99 349.899C1161.12 349.824 1161.22 349.7 1161.26 349.555C1161.3 349.41 1161.28 349.256 1161.2 349.125L1159.89 346.86C1159.86 346.795 1159.81 346.738 1159.75 346.692C1159.69 346.645 1159.62 346.612 1159.55 346.592C1159.48 346.572 1159.4 346.567 1159.33 346.577C1159.25 346.586 1159.18 346.611 1159.11 346.648C1159.05 346.686 1158.99 346.736 1158.95 346.796C1158.9 346.855 1158.87 346.923 1158.85 346.996C1158.83 347.068 1158.82 347.144 1158.83 347.219C1158.85 347.293 1158.87 347.365 1158.91 347.429L1160.22 349.694Z" fill="#0F62FE"/>
<path d="M1157.12 352.791L1154.85 351.483C1154.79 351.445 1154.72 351.42 1154.64 351.41C1154.57 351.4 1154.49 351.404 1154.42 351.423C1154.35 351.443 1154.28 351.476 1154.22 351.522C1154.16 351.567 1154.11 351.624 1154.07 351.689C1154.04 351.754 1154.01 351.826 1154 351.9C1153.99 351.975 1154 352.05 1154.02 352.123C1154.04 352.195 1154.07 352.263 1154.12 352.323C1154.16 352.382 1154.22 352.431 1154.29 352.469L1156.55 353.776C1156.62 353.814 1156.69 353.839 1156.76 353.85C1156.84 353.86 1156.91 353.855 1156.98 353.836C1157.06 353.817 1157.12 353.783 1157.18 353.738C1157.24 353.692 1157.29 353.635 1157.33 353.57C1157.37 353.505 1157.39 353.434 1157.4 353.359C1157.41 353.285 1157.41 353.209 1157.39 353.136C1157.37 353.064 1157.33 352.996 1157.29 352.937C1157.24 352.878 1157.18 352.828 1157.12 352.791Z" fill="#0F62FE"/>
</g>
<rect x="407" y="33" width="348" height="130" rx="3" fill="#FFF1F1"/>
<rect x="407" y="33" width="348" height="130" rx="3" stroke="#FFB3B8" stroke-width="2"/>
<text fill="#161616" xml:space="preserve" style="white-space: pre" font-family="IBM Plex Sans" font-size="18" letter-spacing="0px"><tspan x="422" y="98.75">Red Hat OpenShift &#x2028;</tspan><tspan x="422" y="122.75">Migration Toolkit for Virtualization </tspan><tspan x="422" y="146.75">(MTV)</tspan></text>
<g clip-path="url(#clip4_17_2642)">
<path d="M428.975 58.875L425.15 60.3C425.15 60.9 425.3 61.575 425.45 62.175L429.125 60.825C428.975 60.225 428.975 59.55 428.975 58.875ZM446 54.525C445.7 53.925 445.4 53.4 445.025 52.875L441.2 54.3C441.65 54.75 442.025 55.275 442.325 55.875L446 54.525Z" fill="#A30000"/>
<path d="M437.525 53.4C438.275 53.775 439.025 54.3 439.625 54.9L443.45 53.475C439.925 48.375 433.025 47.25 428.075 50.85C424.925 53.1 423.2 56.925 423.5 60.9L427.325 59.475C427.625 55.425 431.075 52.425 434.975 52.725C435.875 52.725 436.7 53.025 437.525 53.4ZM425.675 62.025L422 63.375C422.3 64.725 422.9 66.075 423.725 67.2L427.55 65.775C426.575 64.725 425.9 63.45 425.675 62.025Z" fill="#CC0000"/>
<path d="M441.65 60.6C441.65 61.5 441.35 62.325 440.975 63.15C439.325 66.825 435.05 68.4 431.45 66.675C430.7 66.3 429.95 65.775 429.35 65.175L425.525 66.6C426.575 68.175 428.075 69.45 429.8 70.275C435.35 72.9 441.875 70.5 444.425 64.8C445.25 63.075 445.55 61.125 445.4 59.175L441.575 60.6H441.65Z" fill="#CC0000"/>
<path d="M442.625 55.725L438.95 57.075C439.625 58.35 439.925 59.775 439.85 61.2L443.675 59.775C443.525 58.35 443.15 57 442.55 55.725" fill="#CC0000"/>
<path d="M428.975 59.625C428.975 59.325 428.975 59.1 428.975 58.8L425.15 60.225C425.15 60.45 425.15 60.75 425.225 60.975L428.975 59.55V59.625ZM445.475 53.475C445.325 53.25 445.25 53.1 445.1 52.875L441.275 54.3C441.425 54.45 441.575 54.675 441.725 54.9L445.475 53.475Z" fill="#820000"/>
<path d="M425.525 66.6C425.825 67.05 426.125 67.425 426.5 67.8L430.7 66.225C430.25 65.925 429.8 65.55 429.35 65.1L425.525 66.525V66.6ZM445.475 59.175L441.65 60.6C441.65 61.2 441.5 61.725 441.35 62.25L445.55 60.675C445.55 60.15 445.55 59.625 445.55 59.1" fill="#A30000"/>
</g>
<rect x="773" y="33" width="348" height="130" rx="3" fill="#EDF5FF"/>
<rect x="773" y="33" width="348" height="130" rx="3" stroke="#A6C8FF" stroke-width="2"/>
<text fill="#161616" xml:space="preserve" style="white-space: pre" font-family="IBM Plex Sans" font-size="18" letter-spacing="0px"><tspan x="788" y="98.75">IBM Consulting / Expert Labs</tspan></text>
<g clip-path="url(#clip5_17_2642)">
<rect width="24" height="24" transform="translate(788 48)" fill="white" fill-opacity="0.01"/>
<path d="M806.436 58.2375C805.69 56.8408 804.511 55.7242 803.076 55.0562C801.64 54.3882 800.027 54.205 798.478 54.5342C796.93 54.8634 795.53 55.6871 794.491 56.8811C793.451 58.0752 792.828 59.5749 792.715 61.154C791.427 61.2925 790.241 61.9194 789.402 62.9055C788.562 63.8917 788.132 65.1622 788.201 66.4557C788.269 67.7491 788.831 68.967 789.771 69.8588C790.71 70.7507 791.955 71.2485 793.25 71.25H805.25C806.888 71.251 808.467 70.6396 809.676 69.5359C810.886 68.4322 811.639 66.916 811.787 65.2853C811.936 63.6545 811.469 62.0272 810.479 60.7231C809.489 59.419 808.047 58.5324 806.436 58.2375ZM805.25 70.125H793.25C792.253 70.1273 791.291 69.7498 790.562 69.069C789.832 68.3883 789.389 67.4554 789.322 66.4598C789.255 65.4642 789.57 64.4806 790.202 63.7085C790.834 62.9365 791.737 62.434 792.726 62.303C792.805 63.2956 793.087 64.2613 793.554 65.1409C793.587 65.2079 793.634 65.2676 793.692 65.3162C793.749 65.3649 793.815 65.4016 793.887 65.4242C793.958 65.4468 794.034 65.4548 794.108 65.4478C794.183 65.4408 794.256 65.4189 794.322 65.3834C794.388 65.3479 794.447 65.2995 794.494 65.2411C794.541 65.1827 794.576 65.1154 794.597 65.0432C794.617 64.9711 794.623 64.8955 794.615 64.8209C794.606 64.7464 794.582 64.6744 794.545 64.6091C793.801 63.2192 793.616 61.598 794.027 60.0763C794.439 58.5546 795.415 57.2473 796.758 56.4211C798.1 55.595 799.707 55.3123 801.251 55.6308C802.795 55.9493 804.159 56.845 805.064 58.135C804.166 58.1598 803.281 58.369 802.467 58.7495C801.652 59.1301 800.924 59.674 800.328 60.3475C800.277 60.4026 800.238 60.4672 800.213 60.5377C800.187 60.6081 800.176 60.6829 800.18 60.7577C800.184 60.8325 800.203 60.9057 800.235 60.9732C800.268 61.0406 800.314 61.1009 800.37 61.1504C800.426 61.2 800.491 61.2378 800.562 61.2617C800.633 61.2856 800.708 61.2951 800.783 61.2896C800.858 61.2842 800.931 61.2638 800.997 61.2298C801.064 61.1958 801.123 61.1489 801.172 61.0916C801.772 60.4101 802.535 59.8899 803.388 59.5788C804.242 59.2676 805.16 59.1754 806.059 59.3104C806.957 59.4455 807.808 59.8036 808.532 60.3521C809.257 60.9005 809.832 61.6217 810.206 62.4498C810.58 63.278 810.74 64.1866 810.673 65.0928C810.605 65.9989 810.311 66.8736 809.818 67.637C809.326 68.4003 808.649 69.028 807.851 69.4626C807.053 69.8973 806.159 70.125 805.25 70.125Z" fill="#0F62FE"/>
<path d="M811.924 55.6911C811.887 55.6264 811.837 55.5696 811.778 55.5241C811.719 55.4786 811.651 55.4452 811.579 55.4259C811.507 55.4066 811.431 55.4016 811.357 55.4114C811.283 55.4212 811.212 55.4455 811.147 55.4829L808.882 56.7908C808.815 56.8272 808.757 56.8765 808.71 56.9358C808.662 56.9951 808.628 57.0633 808.607 57.1363C808.587 57.2093 808.581 57.2857 808.59 57.3609C808.6 57.4361 808.624 57.5087 808.662 57.5744C808.7 57.64 808.751 57.6975 808.811 57.7433C808.871 57.7891 808.94 57.8224 809.014 57.8412C809.087 57.86 809.164 57.864 809.239 57.8528C809.314 57.8417 809.386 57.8156 809.45 57.7763L811.715 56.4684C811.846 56.393 811.942 56.2688 811.981 56.123C812.02 55.9772 812 55.8219 811.924 55.6911Z" fill="#0F62FE"/>
<path d="M805.008 53.9025C805.072 53.9399 805.144 53.9642 805.218 53.974C805.292 53.9838 805.367 53.9789 805.44 53.9595C805.512 53.9402 805.579 53.9068 805.639 53.8613C805.698 53.8158 805.748 53.7591 805.785 53.6943L807.093 51.4293C807.167 51.2987 807.187 51.1441 807.147 50.9992C807.108 50.8543 807.013 50.7308 806.883 50.6557C806.753 50.5806 806.598 50.56 806.453 50.5983C806.308 50.6366 806.183 50.7307 806.107 50.8602L804.8 53.1252C804.724 53.2559 804.704 53.4112 804.743 53.557C804.782 53.7027 804.877 53.827 805.008 53.9025Z" fill="#0F62FE"/>
<path d="M800 52.5608C800.151 52.5608 800.296 52.5008 800.403 52.3941C800.51 52.2874 800.57 52.1427 800.57 51.9917V49.376C800.57 49.3008 800.556 49.2261 800.528 49.1563C800.5 49.0865 800.458 49.023 800.405 48.9694C800.352 48.9159 800.289 48.8734 800.22 48.8444C800.15 48.8154 800.076 48.8004 800.001 48.8004C799.925 48.8004 799.851 48.8154 799.781 48.8444C799.712 48.8734 799.649 48.9159 799.596 48.9694C799.543 49.023 799.501 49.0865 799.473 49.1563C799.445 49.2261 799.431 49.3008 799.431 49.376V51.9917C799.431 52.1427 799.491 52.2874 799.598 52.3941C799.705 52.5008 799.85 52.5608 800 52.5608Z" fill="#0F62FE"/>
<path d="M794.216 53.6942C794.292 53.8237 794.416 53.9178 794.561 53.9561C794.707 53.9944 794.861 53.9738 794.991 53.8987C795.121 53.8236 795.216 53.7001 795.256 53.5552C795.295 53.4103 795.276 53.2557 795.201 53.1251L793.894 50.8601C793.857 50.7948 793.807 50.7375 793.748 50.6914C793.688 50.6454 793.62 50.6115 793.548 50.5918C793.476 50.5721 793.4 50.567 793.325 50.5766C793.251 50.5863 793.179 50.6106 793.114 50.6482C793.049 50.6857 792.992 50.7358 792.947 50.7954C792.901 50.8551 792.868 50.9232 792.849 50.9958C792.829 51.0684 792.825 51.144 792.835 51.2184C792.845 51.2928 792.87 51.3644 792.908 51.4292L794.216 53.6942Z" fill="#0F62FE"/>
<path d="M791.119 56.7908L788.854 55.4829C788.79 55.4449 788.718 55.42 788.644 55.4098C788.569 55.3996 788.494 55.4042 788.421 55.4233C788.348 55.4425 788.28 55.4758 788.221 55.5214C788.161 55.567 788.111 55.624 788.073 55.689C788.036 55.754 788.011 55.8258 788.002 55.9003C787.992 55.9747 787.997 56.0504 788.017 56.1228C788.037 56.1953 788.071 56.2631 788.117 56.3224C788.163 56.3817 788.22 56.4314 788.285 56.4684L790.55 57.7763C790.615 57.8143 790.687 57.8392 790.761 57.8494C790.836 57.8596 790.911 57.855 790.984 57.8359C791.056 57.8167 791.125 57.7834 791.184 57.7378C791.244 57.6922 791.294 57.6352 791.331 57.5702C791.369 57.5052 791.393 57.4334 791.403 57.3589C791.413 57.2845 791.407 57.2088 791.388 57.1364C791.368 57.0639 791.334 56.9961 791.288 56.9368C791.242 56.8774 791.185 56.8278 791.119 56.7908Z" fill="#0F62FE"/>
</g>
<rect x="1139" y="33" width="348" height="60" rx="3" fill="#F4F4F4"/>
<rect x="1139" y="33" width="348" height="60" rx="3" stroke="#E0E0E0" stroke-width="2"/>
<text fill="#161616" xml:space="preserve" style="white-space: pre" font-family="IBM Plex Sans" font-size="18" letter-spacing="0px"><tspan x="1154" y="66.75">Customer Self-Serve</tspan></text>
<rect x="1139" y="103" width="348" height="60" rx="3" fill="#F4F4F4"/>
<rect x="1139" y="103" width="348" height="60" rx="3" stroke="#E0E0E0" stroke-width="2"/>
<text fill="#161616" xml:space="preserve" style="white-space: pre" font-family="IBM Plex Sans" font-size="18" letter-spacing="0px"><tspan x="1154" y="136.75">Migration Services Partners</tspan></text>
<rect x="407" y="181" width="348" height="130" rx="3" fill="#FFF1F1"/>
<rect x="407" y="181" width="348" height="130" rx="3" stroke="#FFB3B8" stroke-width="2"/>
<text fill="#161616" xml:space="preserve" style="white-space: pre" font-family="IBM Plex Sans" font-size="18" letter-spacing="0px"><tspan x="422" y="246.75">RHACM + ODF Data Replication </tspan><tspan x="422" y="270.75">Regional DR (Async)</tspan></text>
<g clip-path="url(#clip6_17_2642)">
<path d="M428.975 206.875L425.15 208.3C425.15 208.9 425.3 209.575 425.45 210.175L429.125 208.825C428.975 208.225 428.975 207.55 428.975 206.875ZM446 202.525C445.7 201.925 445.4 201.4 445.025 200.875L441.2 202.3C441.65 202.75 442.025 203.275 442.325 203.875L446 202.525Z" fill="#A30000"/>
<path d="M437.525 201.4C438.275 201.775 439.025 202.3 439.625 202.9L443.45 201.475C439.925 196.375 433.025 195.25 428.075 198.85C424.925 201.1 423.2 204.925 423.5 208.9L427.325 207.475C427.625 203.425 431.075 200.425 434.975 200.725C435.875 200.725 436.7 201.025 437.525 201.4ZM425.675 210.025L422 211.375C422.3 212.725 422.9 214.075 423.725 215.2L427.55 213.775C426.575 212.725 425.9 211.45 425.675 210.025Z" fill="#CC0000"/>
<path d="M441.65 208.6C441.65 209.5 441.35 210.325 440.975 211.15C439.325 214.825 435.05 216.4 431.45 214.675C430.7 214.3 429.95 213.775 429.35 213.175L425.525 214.6C426.575 216.175 428.075 217.45 429.8 218.275C435.35 220.9 441.875 218.5 444.425 212.8C445.25 211.075 445.55 209.125 445.4 207.175L441.575 208.6H441.65Z" fill="#CC0000"/>
<path d="M442.625 203.725L438.95 205.075C439.625 206.35 439.925 207.775 439.85 209.2L443.675 207.775C443.525 206.35 443.15 205 442.55 203.725" fill="#CC0000"/>
<path d="M428.975 207.625C428.975 207.325 428.975 207.1 428.975 206.8L425.15 208.225C425.15 208.45 425.15 208.75 425.225 208.975L428.975 207.55V207.625ZM445.475 201.475C445.325 201.25 445.25 201.1 445.1 200.875L441.275 202.3C441.425 202.45 441.575 202.675 441.725 202.9L445.475 201.475Z" fill="#820000"/>
<path d="M425.525 214.6C425.825 215.05 426.125 215.425 426.5 215.8L430.7 214.225C430.25 213.925 429.8 213.55 429.35 213.1L425.525 214.525V214.6ZM445.475 207.175L441.65 208.6C441.65 209.2 441.5 209.725 441.35 210.25L445.55 208.675C445.55 208.15 445.55 207.625 445.55 207.1" fill="#A30000"/>
</g>
<rect x="773" y="181" width="348" height="130" rx="3" fill="#F4F4F4"/>
<rect x="773" y="181" width="348" height="130" rx="3" stroke="#E0E0E0" stroke-width="2"/>
<text fill="#161616" xml:space="preserve" style="white-space: pre" font-family="IBM Plex Sans" font-size="18" letter-spacing="0px"><tspan x="788" y="214.75">3rd party Backup Solutions&#x2028;</tspan><tspan x="788" y="240.75">Self Serve RYO/BYOL</tspan></text>
<rect x="407" y="477" width="348" height="130" rx="3" fill="#FFF1F1"/>
<rect x="407" y="477" width="348" height="130" rx="3" stroke="#FFB3B8" stroke-width="2"/>
<text fill="#161616" xml:space="preserve" style="white-space: pre" font-family="IBM Plex Sans" font-size="18" letter-spacing="0px"><tspan x="422" y="542.75">Red Hat OpenShift Data Foundation </tspan><tspan x="422" y="566.75">(ODF)</tspan></text>
<g clip-path="url(#clip7_17_2642)">
<path d="M428.975 502.875L425.15 504.3C425.15 504.9 425.3 505.575 425.45 506.175L429.125 504.825C428.975 504.225 428.975 503.55 428.975 502.875ZM446 498.525C445.7 497.925 445.4 497.4 445.025 496.875L441.2 498.3C441.65 498.75 442.025 499.275 442.325 499.875L446 498.525Z" fill="#A30000"/>
<path d="M437.525 497.4C438.275 497.775 439.025 498.3 439.625 498.9L443.45 497.475C439.925 492.375 433.025 491.25 428.075 494.85C424.925 497.1 423.2 500.925 423.5 504.9L427.325 503.475C427.625 499.425 431.075 496.425 434.975 496.725C435.875 496.725 436.7 497.025 437.525 497.4ZM425.675 506.025L422 507.375C422.3 508.725 422.9 510.075 423.725 511.2L427.55 509.775C426.575 508.725 425.9 507.45 425.675 506.025Z" fill="#CC0000"/>
<path d="M441.65 504.6C441.65 505.5 441.35 506.325 440.975 507.15C439.325 510.825 435.05 512.4 431.45 510.675C430.7 510.3 429.95 509.775 429.35 509.175L425.525 510.6C426.575 512.175 428.075 513.45 429.8 514.275C435.35 516.9 441.875 514.5 444.425 508.8C445.25 507.075 445.55 505.125 445.4 503.175L441.575 504.6H441.65Z" fill="#CC0000"/>
<path d="M442.625 499.725L438.95 501.075C439.625 502.35 439.925 503.775 439.85 505.2L443.675 503.775C443.525 502.35 443.15 501 442.55 499.725" fill="#CC0000"/>
<path d="M428.975 503.625C428.975 503.325 428.975 503.1 428.975 502.8L425.15 504.225C425.15 504.45 425.15 504.75 425.225 504.975L428.975 503.55V503.625ZM445.475 497.475C445.325 497.25 445.25 497.1 445.1 496.875L441.275 498.3C441.425 498.45 441.575 498.675 441.725 498.9L445.475 497.475Z" fill="#820000"/>
<path d="M425.525 510.6C425.825 511.05 426.125 511.425 426.5 511.8L430.7 510.225C430.25 509.925 429.8 509.55 429.35 509.1L425.525 510.525V510.6ZM445.475 503.175L441.65 504.6C441.65 505.2 441.5 505.725 441.35 506.25L445.55 504.675C445.55 504.15 445.55 503.625 445.55 503.1" fill="#A30000"/>
</g>
<rect x="773" y="477" width="348" height="130" rx="3" fill="#EDF5FF"/>
<rect x="773" y="477" width="348" height="130" rx="3" stroke="#A6C8FF" stroke-width="2"/>
<text fill="#161616" xml:space="preserve" style="white-space: pre" font-family="IBM Plex Sans" font-size="18" letter-spacing="0px"><tspan x="788" y="542.75">IBM Cloud&#10;</tspan><tspan x="788" y="566.75">Object Storage</tspan></text>
<g clip-path="url(#clip8_17_2642)">
<rect width="24" height="24" transform="translate(788 492)" fill="white" fill-opacity="0.01"/>
<path d="M806.436 502.238C805.69 500.841 804.511 499.724 803.076 499.056C801.64 498.388 800.027 498.205 798.478 498.534C796.93 498.863 795.53 499.687 794.491 500.881C793.451 502.075 792.828 503.575 792.715 505.154C791.427 505.293 790.241 505.919 789.402 506.906C788.562 507.892 788.132 509.162 788.201 510.456C788.269 511.749 788.831 512.967 789.771 513.859C790.71 514.751 791.955 515.249 793.25 515.25H805.25C806.888 515.251 808.467 514.64 809.676 513.536C810.886 512.432 811.639 510.916 811.787 509.285C811.936 507.655 811.469 506.027 810.479 504.723C809.489 503.419 808.047 502.533 806.436 502.238ZM805.25 514.125H793.25C792.253 514.127 791.291 513.75 790.562 513.069C789.832 512.388 789.389 511.456 789.322 510.46C789.255 509.464 789.57 508.481 790.202 507.709C790.834 506.937 791.737 506.434 792.726 506.303C792.805 507.296 793.087 508.261 793.554 509.141C793.587 509.208 793.634 509.268 793.692 509.316C793.749 509.365 793.815 509.402 793.887 509.424C793.958 509.447 794.034 509.455 794.108 509.448C794.183 509.441 794.256 509.419 794.322 509.384C794.388 509.348 794.447 509.3 794.494 509.241C794.541 509.183 794.576 509.116 794.597 509.043C794.617 508.971 794.623 508.896 794.615 508.821C794.606 508.747 794.582 508.674 794.545 508.609C793.801 507.219 793.616 505.598 794.027 504.076C794.439 502.555 795.415 501.247 796.758 500.421C798.1 499.595 799.707 499.312 801.251 499.631C802.795 499.949 804.159 500.845 805.064 502.135C804.166 502.16 803.281 502.369 802.467 502.75C801.652 503.13 800.924 503.674 800.328 504.348C800.277 504.403 800.238 504.467 800.213 504.538C800.187 504.608 800.176 504.683 800.18 504.758C800.184 504.833 800.203 504.906 800.235 504.973C800.268 505.041 800.314 505.101 800.37 505.151C800.426 505.2 800.491 505.238 800.562 505.262C800.633 505.286 800.708 505.295 800.783 505.29C800.858 505.284 800.931 505.264 800.997 505.23C801.064 505.196 801.123 505.149 801.172 505.092C801.772 504.41 802.535 503.89 803.388 503.579C804.242 503.268 805.16 503.175 806.059 503.311C806.957 503.446 807.808 503.804 808.532 504.352C809.257 504.901 809.832 505.622 810.206 506.45C810.58 507.278 810.74 508.187 810.673 509.093C810.605 509.999 810.311 510.874 809.818 511.637C809.326 512.4 808.649 513.028 807.851 513.463C807.053 513.897 806.159 514.125 805.25 514.125Z" fill="#0F62FE"/>
<path d="M811.924 499.691C811.887 499.627 811.837 499.57 811.778 499.524C811.719 499.479 811.651 499.445 811.579 499.426C811.507 499.407 811.431 499.402 811.357 499.412C811.283 499.421 811.212 499.446 811.147 499.483L808.882 500.791C808.815 500.827 808.757 500.877 808.71 500.936C808.662 500.995 808.628 501.063 808.607 501.136C808.587 501.209 808.581 501.286 808.59 501.361C808.6 501.436 808.624 501.509 808.662 501.574C808.7 501.64 808.751 501.698 808.811 501.743C808.871 501.789 808.94 501.823 809.014 501.841C809.087 501.86 809.164 501.864 809.239 501.853C809.314 501.842 809.386 501.816 809.45 501.776L811.715 500.469C811.846 500.393 811.942 500.269 811.981 500.123C812.02 499.977 812 499.822 811.924 499.691Z" fill="#0F62FE"/>
<path d="M805.008 497.903C805.072 497.94 805.144 497.964 805.218 497.974C805.292 497.984 805.367 497.979 805.44 497.96C805.512 497.94 805.579 497.907 805.639 497.861C805.698 497.816 805.748 497.759 805.785 497.694L807.093 495.429C807.167 495.299 807.187 495.144 807.147 494.999C807.108 494.854 807.013 494.731 806.883 494.656C806.753 494.581 806.598 494.56 806.453 494.598C806.308 494.637 806.183 494.731 806.107 494.86L804.8 497.125C804.724 497.256 804.704 497.411 804.743 497.557C804.782 497.703 804.877 497.827 805.008 497.903Z" fill="#0F62FE"/>
<path d="M800 496.561C800.151 496.561 800.296 496.501 800.403 496.394C800.51 496.288 800.57 496.143 800.57 495.992V493.376C800.57 493.301 800.556 493.226 800.528 493.156C800.5 493.087 800.458 493.023 800.405 492.97C800.352 492.916 800.289 492.873 800.22 492.844C800.15 492.815 800.076 492.801 800.001 492.801C799.925 492.801 799.851 492.815 799.781 492.844C799.712 492.873 799.649 492.916 799.596 492.97C799.543 493.023 799.501 493.087 799.473 493.156C799.445 493.226 799.431 493.301 799.431 493.376V495.992C799.431 496.143 799.491 496.288 799.598 496.394C799.705 496.501 799.85 496.561 800 496.561Z" fill="#0F62FE"/>
<path d="M794.216 497.694C794.292 497.824 794.416 497.918 794.561 497.956C794.707 497.995 794.861 497.974 794.991 497.899C795.121 497.824 795.216 497.7 795.256 497.555C795.295 497.41 795.276 497.256 795.201 497.125L793.894 494.86C793.857 494.795 793.807 494.738 793.748 494.692C793.688 494.645 793.62 494.612 793.548 494.592C793.476 494.572 793.4 494.567 793.325 494.577C793.251 494.586 793.179 494.611 793.114 494.648C793.049 494.686 792.992 494.736 792.947 494.796C792.901 494.855 792.868 494.923 792.849 494.996C792.829 495.068 792.825 495.144 792.835 495.219C792.845 495.293 792.87 495.365 792.908 495.429L794.216 497.694Z" fill="#0F62FE"/>
<path d="M791.119 500.791L788.854 499.483C788.79 499.445 788.718 499.42 788.644 499.41C788.569 499.4 788.494 499.404 788.421 499.423C788.348 499.443 788.28 499.476 788.221 499.522C788.161 499.567 788.111 499.624 788.073 499.689C788.036 499.754 788.011 499.826 788.002 499.9C787.992 499.975 787.997 500.05 788.017 500.123C788.037 500.195 788.071 500.263 788.117 500.323C788.163 500.382 788.22 500.431 788.285 500.469L790.55 501.776C790.615 501.814 790.687 501.839 790.761 501.85C790.836 501.86 790.911 501.855 790.984 501.836C791.056 501.817 791.125 501.783 791.184 501.738C791.244 501.692 791.294 501.635 791.331 501.57C791.369 501.505 791.393 501.434 791.403 501.359C791.413 501.285 791.407 501.209 791.388 501.136C791.368 501.064 791.334 500.996 791.288 500.937C791.242 500.878 791.185 500.828 791.119 500.791Z" fill="#0F62FE"/>
</g>
<rect x="1139" y="477" width="348" height="130" rx="3" fill="#EDF5FF"/>
<rect x="1139" y="477" width="348" height="130" rx="3" stroke="#A6C8FF" stroke-width="2"/>
<text fill="#161616" xml:space="preserve" style="white-space: pre" font-family="IBM Plex Sans" font-size="18" letter-spacing="0px"><tspan x="1154" y="542.75">IBM Cloud&#10;</tspan><tspan x="1154" y="566.75">File Storage for VPC</tspan></text>
<g clip-path="url(#clip9_17_2642)">
<rect width="24" height="24" transform="translate(1154 492)" fill="white" fill-opacity="0.01"/>
<path d="M1172.44 502.238C1171.69 500.841 1170.51 499.724 1169.08 499.056C1167.64 498.388 1166.03 498.205 1164.48 498.534C1162.93 498.863 1161.53 499.687 1160.49 500.881C1159.45 502.075 1158.83 503.575 1158.71 505.154C1157.43 505.293 1156.24 505.919 1155.4 506.906C1154.56 507.892 1154.13 509.162 1154.2 510.456C1154.27 511.749 1154.83 512.967 1155.77 513.859C1156.71 514.751 1157.96 515.249 1159.25 515.25H1171.25C1172.89 515.251 1174.47 514.64 1175.68 513.536C1176.89 512.432 1177.64 510.916 1177.79 509.285C1177.94 507.655 1177.47 506.027 1176.48 504.723C1175.49 503.419 1174.05 502.533 1172.44 502.238ZM1171.25 514.125H1159.25C1158.25 514.127 1157.29 513.75 1156.56 513.069C1155.83 512.388 1155.39 511.456 1155.32 510.46C1155.26 509.464 1155.57 508.481 1156.2 507.709C1156.83 506.937 1157.74 506.434 1158.73 506.303C1158.81 507.296 1159.09 508.261 1159.55 509.141C1159.59 509.208 1159.63 509.268 1159.69 509.316C1159.75 509.365 1159.82 509.402 1159.89 509.424C1159.96 509.447 1160.03 509.455 1160.11 509.448C1160.18 509.441 1160.26 509.419 1160.32 509.384C1160.39 509.348 1160.45 509.3 1160.49 509.241C1160.54 509.183 1160.58 509.116 1160.6 509.043C1160.62 508.971 1160.62 508.896 1160.61 508.821C1160.61 508.747 1160.58 508.674 1160.54 508.609C1159.8 507.219 1159.62 505.598 1160.03 504.076C1160.44 502.555 1161.42 501.247 1162.76 500.421C1164.1 499.595 1165.71 499.312 1167.25 499.631C1168.79 499.949 1170.16 500.845 1171.06 502.135C1170.17 502.16 1169.28 502.369 1168.47 502.75C1167.65 503.13 1166.92 503.674 1166.33 504.348C1166.28 504.403 1166.24 504.467 1166.21 504.538C1166.19 504.608 1166.18 504.683 1166.18 504.758C1166.18 504.833 1166.2 504.906 1166.24 504.973C1166.27 505.041 1166.31 505.101 1166.37 505.151C1166.43 505.2 1166.49 505.238 1166.56 505.262C1166.63 505.286 1166.71 505.295 1166.78 505.29C1166.86 505.284 1166.93 505.264 1167 505.23C1167.06 505.196 1167.12 505.149 1167.17 505.092C1167.77 504.41 1168.53 503.89 1169.39 503.579C1170.24 503.268 1171.16 503.175 1172.06 503.311C1172.96 503.446 1173.81 503.804 1174.53 504.352C1175.26 504.901 1175.83 505.622 1176.21 506.45C1176.58 507.278 1176.74 508.187 1176.67 509.093C1176.6 509.999 1176.31 510.874 1175.82 511.637C1175.33 512.4 1174.65 513.028 1173.85 513.463C1173.05 513.897 1172.16 514.125 1171.25 514.125Z" fill="#0F62FE"/>
<path d="M1177.92 499.691C1177.89 499.627 1177.84 499.57 1177.78 499.524C1177.72 499.479 1177.65 499.445 1177.58 499.426C1177.51 499.407 1177.43 499.402 1177.36 499.412C1177.28 499.421 1177.21 499.446 1177.15 499.483L1174.88 500.791C1174.82 500.827 1174.76 500.877 1174.71 500.936C1174.66 500.995 1174.63 501.063 1174.61 501.136C1174.59 501.209 1174.58 501.286 1174.59 501.361C1174.6 501.436 1174.62 501.509 1174.66 501.574C1174.7 501.64 1174.75 501.698 1174.81 501.743C1174.87 501.789 1174.94 501.823 1175.01 501.841C1175.09 501.86 1175.16 501.864 1175.24 501.853C1175.31 501.842 1175.39 501.816 1175.45 501.776L1177.72 500.469C1177.85 500.393 1177.94 500.269 1177.98 500.123C1178.02 499.977 1178 499.822 1177.92 499.691Z" fill="#0F62FE"/>
<path d="M1171.01 497.903C1171.07 497.94 1171.14 497.964 1171.22 497.974C1171.29 497.984 1171.37 497.979 1171.44 497.96C1171.51 497.94 1171.58 497.907 1171.64 497.861C1171.7 497.816 1171.75 497.759 1171.79 497.694L1173.09 495.429C1173.17 495.299 1173.19 495.144 1173.15 494.999C1173.11 494.854 1173.01 494.731 1172.88 494.656C1172.75 494.581 1172.6 494.56 1172.45 494.598C1172.31 494.637 1172.18 494.731 1172.11 494.86L1170.8 497.125C1170.72 497.256 1170.7 497.411 1170.74 497.557C1170.78 497.703 1170.88 497.827 1171.01 497.903Z" fill="#0F62FE"/>
<path d="M1166 496.561C1166.15 496.561 1166.3 496.501 1166.4 496.394C1166.51 496.288 1166.57 496.143 1166.57 495.992V493.376C1166.57 493.301 1166.56 493.226 1166.53 493.156C1166.5 493.087 1166.46 493.023 1166.41 492.97C1166.35 492.916 1166.29 492.873 1166.22 492.844C1166.15 492.815 1166.08 492.801 1166 492.801C1165.93 492.801 1165.85 492.815 1165.78 492.844C1165.71 492.873 1165.65 492.916 1165.6 492.97C1165.54 493.023 1165.5 493.087 1165.47 493.156C1165.44 493.226 1165.43 493.301 1165.43 493.376V495.992C1165.43 496.143 1165.49 496.288 1165.6 496.394C1165.7 496.501 1165.85 496.561 1166 496.561Z" fill="#0F62FE"/>
<path d="M1160.22 497.694C1160.29 497.824 1160.42 497.918 1160.56 497.956C1160.71 497.995 1160.86 497.974 1160.99 497.899C1161.12 497.824 1161.22 497.7 1161.26 497.555C1161.3 497.41 1161.28 497.256 1161.2 497.125L1159.89 494.86C1159.86 494.795 1159.81 494.738 1159.75 494.692C1159.69 494.645 1159.62 494.612 1159.55 494.592C1159.48 494.572 1159.4 494.567 1159.33 494.577C1159.25 494.586 1159.18 494.611 1159.11 494.648C1159.05 494.686 1158.99 494.736 1158.95 494.796C1158.9 494.855 1158.87 494.923 1158.85 494.996C1158.83 495.068 1158.82 495.144 1158.83 495.219C1158.85 495.293 1158.87 495.365 1158.91 495.429L1160.22 497.694Z" fill="#0F62FE"/>
<path d="M1157.12 500.791L1154.85 499.483C1154.79 499.445 1154.72 499.42 1154.64 499.41C1154.57 499.4 1154.49 499.404 1154.42 499.423C1154.35 499.443 1154.28 499.476 1154.22 499.522C1154.16 499.567 1154.11 499.624 1154.07 499.689C1154.04 499.754 1154.01 499.826 1154 499.9C1153.99 499.975 1154 500.05 1154.02 500.123C1154.04 500.195 1154.07 500.263 1154.12 500.323C1154.16 500.382 1154.22 500.431 1154.29 500.469L1156.55 501.776C1156.62 501.814 1156.69 501.839 1156.76 501.85C1156.84 501.86 1156.91 501.855 1156.98 501.836C1157.06 501.817 1157.12 501.783 1157.18 501.738C1157.24 501.692 1157.29 501.635 1157.33 501.57C1157.37 501.505 1157.39 501.434 1157.4 501.359C1157.41 501.285 1157.41 501.209 1157.39 501.136C1157.37 501.064 1157.33 500.996 1157.29 500.937C1157.24 500.878 1157.18 500.828 1157.12 500.791Z" fill="#0F62FE"/>
</g>
<rect x="407" y="625" width="348" height="130" rx="3" fill="#FFF1F1"/>
<rect x="407" y="625" width="348" height="130" rx="3" stroke="#FFB3B8" stroke-width="2"/>
<text fill="#161616" xml:space="preserve" style="white-space: pre" font-family="IBM Plex Sans" font-size="18" letter-spacing="0px"><tspan x="422" y="690.75">Red Hat OpenShift Worker Nodes / </tspan><tspan x="422" y="714.75">Virtualization</tspan></text>
<g clip-path="url(#clip10_17_2642)">
<path d="M428.975 650.875L425.15 652.3C425.15 652.9 425.3 653.575 425.45 654.175L429.125 652.825C428.975 652.225 428.975 651.55 428.975 650.875ZM446 646.525C445.7 645.925 445.4 645.4 445.025 644.875L441.2 646.3C441.65 646.75 442.025 647.275 442.325 647.875L446 646.525Z" fill="#A30000"/>
<path d="M437.525 645.4C438.275 645.775 439.025 646.3 439.625 646.9L443.45 645.475C439.925 640.375 433.025 639.25 428.075 642.85C424.925 645.1 423.2 648.925 423.5 652.9L427.325 651.475C427.625 647.425 431.075 644.425 434.975 644.725C435.875 644.725 436.7 645.025 437.525 645.4ZM425.675 654.025L422 655.375C422.3 656.725 422.9 658.075 423.725 659.2L427.55 657.775C426.575 656.725 425.9 655.45 425.675 654.025Z" fill="#CC0000"/>
<path d="M441.65 652.6C441.65 653.5 441.35 654.325 440.975 655.15C439.325 658.825 435.05 660.4 431.45 658.675C430.7 658.3 429.95 657.775 429.35 657.175L425.525 658.6C426.575 660.175 428.075 661.45 429.8 662.275C435.35 664.9 441.875 662.5 444.425 656.8C445.25 655.075 445.55 653.125 445.4 651.175L441.575 652.6H441.65Z" fill="#CC0000"/>
<path d="M442.625 647.725L438.95 649.075C439.625 650.35 439.925 651.775 439.85 653.2L443.675 651.775C443.525 650.35 443.15 649 442.55 647.725" fill="#CC0000"/>
<path d="M428.975 651.625C428.975 651.325 428.975 651.1 428.975 650.8L425.15 652.225C425.15 652.45 425.15 652.75 425.225 652.975L428.975 651.55V651.625ZM445.475 645.475C445.325 645.25 445.25 645.1 445.1 644.875L441.275 646.3C441.425 646.45 441.575 646.675 441.725 646.9L445.475 645.475Z" fill="#820000"/>
<path d="M425.525 658.6C425.825 659.05 426.125 659.425 426.5 659.8L430.7 658.225C430.25 657.925 429.8 657.55 429.35 657.1L425.525 658.525V658.6ZM445.475 651.175L441.65 652.6C441.65 653.2 441.5 653.725 441.35 654.25L445.55 652.675C445.55 652.15 445.55 651.625 445.55 651.1" fill="#A30000"/>
</g>
<rect x="773" y="625" width="348" height="130" rx="3" fill="#EDF5FF"/>
<rect x="773" y="625" width="348" height="130" rx="3" stroke="#A6C8FF" stroke-width="2"/>
<text fill="#161616" xml:space="preserve" style="white-space: pre" font-family="IBM Plex Sans" font-size="18" letter-spacing="0px"><tspan x="788" y="690.75">IBM Cloud &#x2028;</tspan><tspan x="788" y="714.75">VPC Virtual Server Instances </tspan></text>
<g clip-path="url(#clip11_17_2642)">
<rect width="24" height="24" transform="translate(788 640)" fill="white" fill-opacity="0.01"/>
<path d="M806.436 650.238C805.69 648.841 804.511 647.724 803.076 647.056C801.64 646.388 800.027 646.205 798.478 646.534C796.93 646.863 795.53 647.687 794.491 648.881C793.451 650.075 792.828 651.575 792.715 653.154C791.427 653.293 790.241 653.919 789.402 654.906C788.562 655.892 788.132 657.162 788.201 658.456C788.269 659.749 788.831 660.967 789.771 661.859C790.71 662.751 791.955 663.249 793.25 663.25H805.25C806.888 663.251 808.467 662.64 809.676 661.536C810.886 660.432 811.639 658.916 811.787 657.285C811.936 655.655 811.469 654.027 810.479 652.723C809.489 651.419 808.047 650.533 806.436 650.238ZM805.25 662.125H793.25C792.253 662.127 791.291 661.75 790.562 661.069C789.832 660.388 789.389 659.456 789.322 658.46C789.255 657.464 789.57 656.481 790.202 655.709C790.834 654.937 791.737 654.434 792.726 654.303C792.805 655.296 793.087 656.261 793.554 657.141C793.587 657.208 793.634 657.268 793.692 657.316C793.749 657.365 793.815 657.402 793.887 657.424C793.958 657.447 794.034 657.455 794.108 657.448C794.183 657.441 794.256 657.419 794.322 657.384C794.388 657.348 794.447 657.3 794.494 657.241C794.541 657.183 794.576 657.116 794.597 657.043C794.617 656.971 794.623 656.896 794.615 656.821C794.606 656.747 794.582 656.674 794.545 656.609C793.801 655.219 793.616 653.598 794.027 652.076C794.439 650.555 795.415 649.247 796.758 648.421C798.1 647.595 799.707 647.312 801.251 647.631C802.795 647.949 804.159 648.845 805.064 650.135C804.166 650.16 803.281 650.369 802.467 650.75C801.652 651.13 800.924 651.674 800.328 652.348C800.277 652.403 800.238 652.467 800.213 652.538C800.187 652.608 800.176 652.683 800.18 652.758C800.184 652.833 800.203 652.906 800.235 652.973C800.268 653.041 800.314 653.101 800.37 653.151C800.426 653.2 800.491 653.238 800.562 653.262C800.633 653.286 800.708 653.295 800.783 653.29C800.858 653.284 800.931 653.264 800.997 653.23C801.064 653.196 801.123 653.149 801.172 653.092C801.772 652.41 802.535 651.89 803.388 651.579C804.242 651.268 805.16 651.175 806.059 651.311C806.957 651.446 807.808 651.804 808.532 652.352C809.257 652.901 809.832 653.622 810.206 654.45C810.58 655.278 810.74 656.187 810.673 657.093C810.605 657.999 810.311 658.874 809.818 659.637C809.326 660.4 808.649 661.028 807.851 661.463C807.053 661.897 806.159 662.125 805.25 662.125Z" fill="#0F62FE"/>
<path d="M811.924 647.691C811.887 647.627 811.837 647.57 811.778 647.524C811.719 647.479 811.651 647.445 811.579 647.426C811.507 647.407 811.431 647.402 811.357 647.412C811.283 647.421 811.212 647.446 811.147 647.483L808.882 648.791C808.815 648.827 808.757 648.877 808.71 648.936C808.662 648.995 808.628 649.063 808.607 649.136C808.587 649.209 808.581 649.286 808.59 649.361C808.6 649.436 808.624 649.509 808.662 649.574C808.7 649.64 808.751 649.698 808.811 649.743C808.871 649.789 808.94 649.823 809.014 649.841C809.087 649.86 809.164 649.864 809.239 649.853C809.314 649.842 809.386 649.816 809.45 649.776L811.715 648.469C811.846 648.393 811.942 648.269 811.981 648.123C812.02 647.977 812 647.822 811.924 647.691Z" fill="#0F62FE"/>
<path d="M805.008 645.903C805.072 645.94 805.144 645.964 805.218 645.974C805.292 645.984 805.367 645.979 805.44 645.96C805.512 645.94 805.579 645.907 805.639 645.861C805.698 645.816 805.748 645.759 805.785 645.694L807.093 643.429C807.167 643.299 807.187 643.144 807.147 642.999C807.108 642.854 807.013 642.731 806.883 642.656C806.753 642.581 806.598 642.56 806.453 642.598C806.308 642.637 806.183 642.731 806.107 642.86L804.8 645.125C804.724 645.256 804.704 645.411 804.743 645.557C804.782 645.703 804.877 645.827 805.008 645.903Z" fill="#0F62FE"/>
<path d="M800 644.561C800.151 644.561 800.296 644.501 800.403 644.394C800.51 644.288 800.57 644.143 800.57 643.992V641.376C800.57 641.301 800.556 641.226 800.528 641.156C800.5 641.087 800.458 641.023 800.405 640.97C800.352 640.916 800.289 640.873 800.22 640.844C800.15 640.815 800.076 640.801 800.001 640.801C799.925 640.801 799.851 640.815 799.781 640.844C799.712 640.873 799.649 640.916 799.596 640.97C799.543 641.023 799.501 641.087 799.473 641.156C799.445 641.226 799.431 641.301 799.431 641.376V643.992C799.431 644.143 799.491 644.288 799.598 644.394C799.705 644.501 799.85 644.561 800 644.561Z" fill="#0F62FE"/>
<path d="M794.216 645.694C794.292 645.824 794.416 645.918 794.561 645.956C794.707 645.995 794.861 645.974 794.991 645.899C795.121 645.824 795.216 645.7 795.256 645.555C795.295 645.41 795.276 645.256 795.201 645.125L793.894 642.86C793.857 642.795 793.807 642.738 793.748 642.692C793.688 642.645 793.62 642.612 793.548 642.592C793.476 642.572 793.4 642.567 793.325 642.577C793.251 642.586 793.179 642.611 793.114 642.648C793.049 642.686 792.992 642.736 792.947 642.796C792.901 642.855 792.868 642.923 792.849 642.996C792.829 643.068 792.825 643.144 792.835 643.219C792.845 643.293 792.87 643.365 792.908 643.429L794.216 645.694Z" fill="#0F62FE"/>
<path d="M791.119 648.791L788.854 647.483C788.79 647.445 788.718 647.42 788.644 647.41C788.569 647.4 788.494 647.404 788.421 647.423C788.348 647.443 788.28 647.476 788.221 647.522C788.161 647.567 788.111 647.624 788.073 647.689C788.036 647.754 788.011 647.826 788.002 647.9C787.992 647.975 787.997 648.05 788.017 648.123C788.037 648.195 788.071 648.263 788.117 648.323C788.163 648.382 788.22 648.431 788.285 648.469L790.55 649.776C790.615 649.814 790.687 649.839 790.761 649.85C790.836 649.86 790.911 649.855 790.984 649.836C791.056 649.817 791.125 649.783 791.184 649.738C791.244 649.692 791.294 649.635 791.331 649.57C791.369 649.505 791.393 649.434 791.403 649.359C791.413 649.285 791.407 649.209 791.388 649.136C791.368 649.064 791.334 648.996 791.288 648.937C791.242 648.878 791.185 648.828 791.119 648.791Z" fill="#0F62FE"/>
</g>
<rect x="1139" y="625" width="348" height="130" rx="3" fill="#EDF5FF"/>
<rect x="1139" y="625" width="348" height="130" rx="3" stroke="#A6C8FF" stroke-width="2"/>
<text fill="#161616" xml:space="preserve" style="white-space: pre" font-family="IBM Plex Sans" font-size="18" letter-spacing="0px"><tspan x="1154" y="690.75">IBM Cloud &#x2028;</tspan><tspan x="1154" y="714.75">VPC Bare Metal Servers</tspan></text>
<g clip-path="url(#clip12_17_2642)">
<rect width="24" height="24" transform="translate(1154 640)" fill="white" fill-opacity="0.01"/>
<path d="M1172.44 650.238C1171.69 648.841 1170.51 647.724 1169.08 647.056C1167.64 646.388 1166.03 646.205 1164.48 646.534C1162.93 646.863 1161.53 647.687 1160.49 648.881C1159.45 650.075 1158.83 651.575 1158.71 653.154C1157.43 653.293 1156.24 653.919 1155.4 654.906C1154.56 655.892 1154.13 657.162 1154.2 658.456C1154.27 659.749 1154.83 660.967 1155.77 661.859C1156.71 662.751 1157.96 663.249 1159.25 663.25H1171.25C1172.89 663.251 1174.47 662.64 1175.68 661.536C1176.89 660.432 1177.64 658.916 1177.79 657.285C1177.94 655.655 1177.47 654.027 1176.48 652.723C1175.49 651.419 1174.05 650.533 1172.44 650.238ZM1171.25 662.125H1159.25C1158.25 662.127 1157.29 661.75 1156.56 661.069C1155.83 660.388 1155.39 659.456 1155.32 658.46C1155.26 657.464 1155.57 656.481 1156.2 655.709C1156.83 654.937 1157.74 654.434 1158.73 654.303C1158.81 655.296 1159.09 656.261 1159.55 657.141C1159.59 657.208 1159.63 657.268 1159.69 657.316C1159.75 657.365 1159.82 657.402 1159.89 657.424C1159.96 657.447 1160.03 657.455 1160.11 657.448C1160.18 657.441 1160.26 657.419 1160.32 657.384C1160.39 657.348 1160.45 657.3 1160.49 657.241C1160.54 657.183 1160.58 657.116 1160.6 657.043C1160.62 656.971 1160.62 656.896 1160.61 656.821C1160.61 656.747 1160.58 656.674 1160.54 656.609C1159.8 655.219 1159.62 653.598 1160.03 652.076C1160.44 650.555 1161.42 649.247 1162.76 648.421C1164.1 647.595 1165.71 647.312 1167.25 647.631C1168.79 647.949 1170.16 648.845 1171.06 650.135C1170.17 650.16 1169.28 650.369 1168.47 650.75C1167.65 651.13 1166.92 651.674 1166.33 652.348C1166.28 652.403 1166.24 652.467 1166.21 652.538C1166.19 652.608 1166.18 652.683 1166.18 652.758C1166.18 652.833 1166.2 652.906 1166.24 652.973C1166.27 653.041 1166.31 653.101 1166.37 653.151C1166.43 653.2 1166.49 653.238 1166.56 653.262C1166.63 653.286 1166.71 653.295 1166.78 653.29C1166.86 653.284 1166.93 653.264 1167 653.23C1167.06 653.196 1167.12 653.149 1167.17 653.092C1167.77 652.41 1168.53 651.89 1169.39 651.579C1170.24 651.268 1171.16 651.175 1172.06 651.311C1172.96 651.446 1173.81 651.804 1174.53 652.352C1175.26 652.901 1175.83 653.622 1176.21 654.45C1176.58 655.278 1176.74 656.187 1176.67 657.093C1176.6 657.999 1176.31 658.874 1175.82 659.637C1175.33 660.4 1174.65 661.028 1173.85 661.463C1173.05 661.897 1172.16 662.125 1171.25 662.125Z" fill="#0F62FE"/>
<path d="M1177.92 647.691C1177.89 647.627 1177.84 647.57 1177.78 647.524C1177.72 647.479 1177.65 647.445 1177.58 647.426C1177.51 647.407 1177.43 647.402 1177.36 647.412C1177.28 647.421 1177.21 647.446 1177.15 647.483L1174.88 648.791C1174.82 648.827 1174.76 648.877 1174.71 648.936C1174.66 648.995 1174.63 649.063 1174.61 649.136C1174.59 649.209 1174.58 649.286 1174.59 649.361C1174.6 649.436 1174.62 649.509 1174.66 649.574C1174.7 649.64 1174.75 649.698 1174.81 649.743C1174.87 649.789 1174.94 649.823 1175.01 649.841C1175.09 649.86 1175.16 649.864 1175.24 649.853C1175.31 649.842 1175.39 649.816 1175.45 649.776L1177.72 648.469C1177.85 648.393 1177.94 648.269 1177.98 648.123C1178.02 647.977 1178 647.822 1177.92 647.691Z" fill="#0F62FE"/>
<path d="M1171.01 645.903C1171.07 645.94 1171.14 645.964 1171.22 645.974C1171.29 645.984 1171.37 645.979 1171.44 645.96C1171.51 645.94 1171.58 645.907 1171.64 645.861C1171.7 645.816 1171.75 645.759 1171.79 645.694L1173.09 643.429C1173.17 643.299 1173.19 643.144 1173.15 642.999C1173.11 642.854 1173.01 642.731 1172.88 642.656C1172.75 642.581 1172.6 642.56 1172.45 642.598C1172.31 642.637 1172.18 642.731 1172.11 642.86L1170.8 645.125C1170.72 645.256 1170.7 645.411 1170.74 645.557C1170.78 645.703 1170.88 645.827 1171.01 645.903Z" fill="#0F62FE"/>
<path d="M1166 644.561C1166.15 644.561 1166.3 644.501 1166.4 644.394C1166.51 644.288 1166.57 644.143 1166.57 643.992V641.376C1166.57 641.301 1166.56 641.226 1166.53 641.156C1166.5 641.087 1166.46 641.023 1166.41 640.97C1166.35 640.916 1166.29 640.873 1166.22 640.844C1166.15 640.815 1166.08 640.801 1166 640.801C1165.93 640.801 1165.85 640.815 1165.78 640.844C1165.71 640.873 1165.65 640.916 1165.6 640.97C1165.54 641.023 1165.5 641.087 1165.47 641.156C1165.44 641.226 1165.43 641.301 1165.43 641.376V643.992C1165.43 644.143 1165.49 644.288 1165.6 644.394C1165.7 644.501 1165.85 644.561 1166 644.561Z" fill="#0F62FE"/>
<path d="M1160.22 645.694C1160.29 645.824 1160.42 645.918 1160.56 645.956C1160.71 645.995 1160.86 645.974 1160.99 645.899C1161.12 645.824 1161.22 645.7 1161.26 645.555C1161.3 645.41 1161.28 645.256 1161.2 645.125L1159.89 642.86C1159.86 642.795 1159.81 642.738 1159.75 642.692C1159.69 642.645 1159.62 642.612 1159.55 642.592C1159.48 642.572 1159.4 642.567 1159.33 642.577C1159.25 642.586 1159.18 642.611 1159.11 642.648C1159.05 642.686 1158.99 642.736 1158.95 642.796C1158.9 642.855 1158.87 642.923 1158.85 642.996C1158.83 643.068 1158.82 643.144 1158.83 643.219C1158.85 643.293 1158.87 643.365 1158.91 643.429L1160.22 645.694Z" fill="#0F62FE"/>
<path d="M1157.12 648.791L1154.85 647.483C1154.79 647.445 1154.72 647.42 1154.64 647.41C1154.57 647.4 1154.49 647.404 1154.42 647.423C1154.35 647.443 1154.28 647.476 1154.22 647.522C1154.16 647.567 1154.11 647.624 1154.07 647.689C1154.04 647.754 1154.01 647.826 1154 647.9C1153.99 647.975 1154 648.05 1154.02 648.123C1154.04 648.195 1154.07 648.263 1154.12 648.323C1154.16 648.382 1154.22 648.431 1154.29 648.469L1156.55 649.776C1156.62 649.814 1156.69 649.839 1156.76 649.85C1156.84 649.86 1156.91 649.855 1156.98 649.836C1157.06 649.817 1157.12 649.783 1157.18 649.738C1157.24 649.692 1157.29 649.635 1157.33 649.57C1157.37 649.505 1157.39 649.434 1157.4 649.359C1157.41 649.285 1157.41 649.209 1157.39 649.136C1157.37 649.064 1157.33 648.996 1157.29 648.937C1157.24 648.878 1157.18 648.828 1157.12 648.791Z" fill="#0F62FE"/>
</g>
<rect x="407" y="773" width="348" height="278" rx="3" fill="#FFF1F1"/>
<rect x="407" y="773" width="348" height="278" rx="3" stroke="#FFB3B8" stroke-width="2"/>
<text fill="#161616" xml:space="preserve" style="white-space: pre" font-family="IBM Plex Sans" font-size="18" letter-spacing="0px"><tspan x="422" y="838.75">Open Virtual Network (OVN) &#10;</tspan><tspan x="449" y="862.75">OVN-Kubernetes&#10;</tspan><tspan x="449" y="886.75">User Defined Networks&#10;</tspan><tspan x="449" y="910.75">Network Policies</tspan></text>
<g clip-path="url(#clip13_17_2642)">
<path d="M428.975 798.875L425.15 800.3C425.15 800.9 425.3 801.575 425.45 802.175L429.125 800.825C428.975 800.225 428.975 799.55 428.975 798.875ZM446 794.525C445.7 793.925 445.4 793.4 445.025 792.875L441.2 794.3C441.65 794.75 442.025 795.275 442.325 795.875L446 794.525Z" fill="#A30000"/>
<path d="M437.525 793.4C438.275 793.775 439.025 794.3 439.625 794.9L443.45 793.475C439.925 788.375 433.025 787.25 428.075 790.85C424.925 793.1 423.2 796.925 423.5 800.9L427.325 799.475C427.625 795.425 431.075 792.425 434.975 792.725C435.875 792.725 436.7 793.025 437.525 793.4ZM425.675 802.025L422 803.375C422.3 804.725 422.9 806.075 423.725 807.2L427.55 805.775C426.575 804.725 425.9 803.45 425.675 802.025Z" fill="#CC0000"/>
<path d="M441.65 800.6C441.65 801.5 441.35 802.325 440.975 803.15C439.325 806.825 435.05 808.4 431.45 806.675C430.7 806.3 429.95 805.775 429.35 805.175L425.525 806.6C426.575 808.175 428.075 809.45 429.8 810.275C435.35 812.9 441.875 810.5 444.425 804.8C445.25 803.075 445.55 801.125 445.4 799.175L441.575 800.6H441.65Z" fill="#CC0000"/>
<path d="M442.625 795.725L438.95 797.075C439.625 798.35 439.925 799.775 439.85 801.2L443.675 799.775C443.525 798.35 443.15 797 442.55 795.725" fill="#CC0000"/>
<path d="M428.975 799.625C428.975 799.325 428.975 799.1 428.975 798.8L425.15 800.225C425.15 800.45 425.15 800.75 425.225 800.975L428.975 799.55V799.625ZM445.475 793.475C445.325 793.25 445.25 793.1 445.1 792.875L441.275 794.3C441.425 794.45 441.575 794.675 441.725 794.9L445.475 793.475Z" fill="#820000"/>
<path d="M425.525 806.6C425.825 807.05 426.125 807.425 426.5 807.8L430.7 806.225C430.25 805.925 429.8 805.55 429.35 805.1L425.525 806.525V806.6ZM445.475 799.175L441.65 800.6C441.65 801.2 441.5 801.725 441.35 802.25L445.55 800.675C445.55 800.15 445.55 799.625 445.55 799.1" fill="#A30000"/>
</g>
<rect x="773" y="773" width="348" height="278" rx="3" fill="#EDF5FF"/>
<rect x="773" y="773" width="348" height="278" rx="3" stroke="#A6C8FF" stroke-width="2"/>
<text fill="#161616" xml:space="preserve" style="white-space: pre" font-family="IBM Plex Sans" font-size="18" letter-spacing="0px"><tspan x="788" y="838.75">IBM Cloud Networking&#10;</tspan><tspan x="815" y="862.75">VPC Networking&#10;</tspan><tspan x="815" y="886.75">Direct Link&#10;</tspan><tspan x="815" y="910.75">Transit Gateway&#10;</tspan><tspan x="815" y="934.75">VPNaaS&#10;</tspan><tspan x="842" y="958.75">Site to Site&#10;</tspan><tspan x="842" y="982.75">Client to Site&#10;</tspan></text>
<g clip-path="url(#clip14_17_2642)">
<rect width="24" height="24" transform="translate(788 788)" fill="white" fill-opacity="0.01"/>
<path d="M806.436 798.238C805.69 796.841 804.511 795.724 803.076 795.056C801.64 794.388 800.027 794.205 798.478 794.534C796.93 794.863 795.53 795.687 794.491 796.881C793.451 798.075 792.828 799.575 792.715 801.154C791.427 801.293 790.241 801.919 789.402 802.906C788.562 803.892 788.132 805.162 788.201 806.456C788.269 807.749 788.831 808.967 789.771 809.859C790.71 810.751 791.955 811.249 793.25 811.25H805.25C806.888 811.251 808.467 810.64 809.676 809.536C810.886 808.432 811.639 806.916 811.787 805.285C811.936 803.655 811.469 802.027 810.479 800.723C809.489 799.419 808.047 798.533 806.436 798.238ZM805.25 810.125H793.25C792.253 810.127 791.291 809.75 790.562 809.069C789.832 808.388 789.389 807.456 789.322 806.46C789.255 805.464 789.57 804.481 790.202 803.709C790.834 802.937 791.737 802.434 792.726 802.303C792.805 803.296 793.087 804.261 793.554 805.141C793.587 805.208 793.634 805.268 793.692 805.316C793.749 805.365 793.815 805.402 793.887 805.424C793.958 805.447 794.034 805.455 794.108 805.448C794.183 805.441 794.256 805.419 794.322 805.384C794.388 805.348 794.447 805.3 794.494 805.241C794.541 805.183 794.576 805.116 794.597 805.043C794.617 804.971 794.623 804.896 794.615 804.821C794.606 804.747 794.582 804.674 794.545 804.609C793.801 803.219 793.616 801.598 794.027 800.076C794.439 798.555 795.415 797.247 796.758 796.421C798.1 795.595 799.707 795.312 801.251 795.631C802.795 795.949 804.159 796.845 805.064 798.135C804.166 798.16 803.281 798.369 802.467 798.75C801.652 799.13 800.924 799.674 800.328 800.348C800.277 800.403 800.238 800.467 800.213 800.538C800.187 800.608 800.176 800.683 800.18 800.758C800.184 800.833 800.203 800.906 800.235 800.973C800.268 801.041 800.314 801.101 800.37 801.151C800.426 801.2 800.491 801.238 800.562 801.262C800.633 801.286 800.708 801.295 800.783 801.29C800.858 801.284 800.931 801.264 800.997 801.23C801.064 801.196 801.123 801.149 801.172 801.092C801.772 800.41 802.535 799.89 803.388 799.579C804.242 799.268 805.16 799.175 806.059 799.311C806.957 799.446 807.808 799.804 808.532 800.352C809.257 800.901 809.832 801.622 810.206 802.45C810.58 803.278 810.74 804.187 810.673 805.093C810.605 805.999 810.311 806.874 809.818 807.637C809.326 808.4 808.649 809.028 807.851 809.463C807.053 809.897 806.159 810.125 805.25 810.125Z" fill="#0F62FE"/>
<path d="M811.924 795.691C811.887 795.627 811.837 795.57 811.778 795.524C811.719 795.479 811.651 795.445 811.579 795.426C811.507 795.407 811.431 795.402 811.357 795.412C811.283 795.421 811.212 795.446 811.147 795.483L808.882 796.791C808.815 796.827 808.757 796.877 808.71 796.936C808.662 796.995 808.628 797.063 808.607 797.136C808.587 797.209 808.581 797.286 808.59 797.361C808.6 797.436 808.624 797.509 808.662 797.574C808.7 797.64 808.751 797.698 808.811 797.743C808.871 797.789 808.94 797.823 809.014 797.841C809.087 797.86 809.164 797.864 809.239 797.853C809.314 797.842 809.386 797.816 809.45 797.776L811.715 796.469C811.846 796.393 811.942 796.269 811.981 796.123C812.02 795.977 812 795.822 811.924 795.691Z" fill="#0F62FE"/>
<path d="M805.008 793.903C805.072 793.94 805.144 793.964 805.218 793.974C805.292 793.984 805.367 793.979 805.44 793.96C805.512 793.94 805.579 793.907 805.639 793.861C805.698 793.816 805.748 793.759 805.785 793.694L807.093 791.429C807.167 791.299 807.187 791.144 807.147 790.999C807.108 790.854 807.013 790.731 806.883 790.656C806.753 790.581 806.598 790.56 806.453 790.598C806.308 790.637 806.183 790.731 806.107 790.86L804.8 793.125C804.724 793.256 804.704 793.411 804.743 793.557C804.782 793.703 804.877 793.827 805.008 793.903Z" fill="#0F62FE"/>
<path d="M800 792.561C800.151 792.561 800.296 792.501 800.403 792.394C800.51 792.288 800.57 792.143 800.57 791.992V789.376C800.57 789.301 800.556 789.226 800.528 789.156C800.5 789.087 800.458 789.023 800.405 788.97C800.352 788.916 800.289 788.873 800.22 788.844C800.15 788.815 800.076 788.801 800.001 788.801C799.925 788.801 799.851 788.815 799.781 788.844C799.712 788.873 799.649 788.916 799.596 788.97C799.543 789.023 799.501 789.087 799.473 789.156C799.445 789.226 799.431 789.301 799.431 789.376V791.992C799.431 792.143 799.491 792.288 799.598 792.394C799.705 792.501 799.85 792.561 800 792.561Z" fill="#0F62FE"/>
<path d="M794.216 793.694C794.292 793.824 794.416 793.918 794.561 793.956C794.707 793.995 794.861 793.974 794.991 793.899C795.121 793.824 795.216 793.7 795.256 793.555C795.295 793.41 795.276 793.256 795.201 793.125L793.894 790.86C793.857 790.795 793.807 790.738 793.748 790.692C793.688 790.645 793.62 790.612 793.548 790.592C793.476 790.572 793.4 790.567 793.325 790.577C793.251 790.586 793.179 790.611 793.114 790.648C793.049 790.686 792.992 790.736 792.947 790.796C792.901 790.855 792.868 790.923 792.849 790.996C792.829 791.068 792.825 791.144 792.835 791.219C792.845 791.293 792.87 791.365 792.908 791.429L794.216 793.694Z" fill="#0F62FE"/>
<path d="M791.119 796.791L788.854 795.483C788.79 795.445 788.718 795.42 788.644 795.41C788.569 795.4 788.494 795.404 788.421 795.423C788.348 795.443 788.28 795.476 788.221 795.522C788.161 795.567 788.111 795.624 788.073 795.689C788.036 795.754 788.011 795.826 788.002 795.9C787.992 795.975 787.997 796.05 788.017 796.123C788.037 796.195 788.071 796.263 788.117 796.323C788.163 796.382 788.22 796.431 788.285 796.469L790.55 797.776C790.615 797.814 790.687 797.839 790.761 797.85C790.836 797.86 790.911 797.855 790.984 797.836C791.056 797.817 791.125 797.783 791.184 797.738C791.244 797.692 791.294 797.635 791.331 797.57C791.369 797.505 791.393 797.434 791.403 797.359C791.413 797.285 791.407 797.209 791.388 797.136C791.368 797.064 791.334 796.996 791.288 796.937C791.242 796.878 791.185 796.828 791.119 796.791Z" fill="#0F62FE"/>
</g>
<circle cx="435.5" cy="857.5" r="2.5" fill="#161616"/>
<circle cx="801.5" cy="857.5" r="2.5" fill="#161616"/>
<circle cx="435.5" cy="881.5" r="2.5" fill="#161616"/>
<circle cx="801.5" cy="881.5" r="2.5" fill="#161616"/>
<circle cx="435.5" cy="905.5" r="2.5" fill="#161616"/>
<circle cx="801.5" cy="905.5" r="2.5" fill="#161616"/>
<circle cx="801.5" cy="929.5" r="2.5" fill="#161616"/>
<circle cx="828.5" cy="953.5" r="2.5" fill="#161616"/>
<circle cx="828.5" cy="977.5" r="2.5" fill="#161616"/>
<text fill="#161616" xml:space="preserve" style="white-space: pre" font-family="IBM Plex Sans" font-size="20" font-weight="600" letter-spacing="0px"><tspan x="1553" y="104.5">Security and Compliance</tspan></text>
<rect width="32" height="32" transform="translate(1553 48)" fill="white" fill-opacity="0.01"/>
<path d="M1583 66V71.5C1583 73 1582.1 74.3 1580.7 75L1579 75.8L1577.3 75C1575.9 74.4 1575 73 1575 71.5V66H1583ZM1585 64H1573V71.5C1573 73.7 1574.3 75.8 1576.4 76.8L1579 78L1581.6 76.8C1583.7 75.8 1585 73.8 1585 71.5V64Z" fill="#161616"/>
<path d="M1569 73H1560.5C1556.4 73 1553 69.6 1553 65.5C1553 61.8 1555.7 58.8 1559.2 58.1C1560.1 53.4 1564.2 50 1569 50C1574.5 50 1579 54.5 1579 60H1577C1577 55.6 1573.4 52 1569 52C1564.9 52 1561.5 55.1 1561 59.1V60H1560.1C1557.2 60.2 1555 62.6 1555 65.5C1555 68.5 1557.5 71 1560.5 71H1569V73Z" fill="#161616"/>
<rect x="1538" y="329" width="348" height="130" rx="3" fill="#EDF5FF"/>
<rect x="1538" y="329" width="348" height="130" rx="3" stroke="#A6C8FF" stroke-width="2"/>
<text fill="#161616" xml:space="preserve" style="white-space: pre" font-family="IBM Plex Sans" font-size="18" letter-spacing="0px"><tspan x="1553" y="394.75">IBM Cloud&#x2028;</tspan><tspan x="1553" y="418.75">Security and Compliance Center </tspan><tspan x="1553" y="442.75">Workload Protection</tspan></text>
<g clip-path="url(#clip15_17_2642)">
<rect width="24" height="24" transform="translate(1553 344)" fill="white" fill-opacity="0.01"/>
<path d="M1571.44 354.238C1570.69 352.841 1569.51 351.724 1568.08 351.056C1566.64 350.388 1565.03 350.205 1563.48 350.534C1561.93 350.863 1560.53 351.687 1559.49 352.881C1558.45 354.075 1557.83 355.575 1557.71 357.154C1556.43 357.293 1555.24 357.919 1554.4 358.906C1553.56 359.892 1553.13 361.162 1553.2 362.456C1553.27 363.749 1553.83 364.967 1554.77 365.859C1555.71 366.751 1556.96 367.249 1558.25 367.25H1570.25C1571.89 367.251 1573.47 366.64 1574.68 365.536C1575.89 364.432 1576.64 362.916 1576.79 361.285C1576.94 359.655 1576.47 358.027 1575.48 356.723C1574.49 355.419 1573.05 354.533 1571.44 354.238ZM1570.25 366.125H1558.25C1557.25 366.127 1556.29 365.75 1555.56 365.069C1554.83 364.388 1554.39 363.456 1554.32 362.46C1554.26 361.464 1554.57 360.481 1555.2 359.709C1555.83 358.937 1556.74 358.434 1557.73 358.303C1557.81 359.296 1558.09 360.261 1558.55 361.141C1558.59 361.208 1558.63 361.268 1558.69 361.316C1558.75 361.365 1558.82 361.402 1558.89 361.424C1558.96 361.447 1559.03 361.455 1559.11 361.448C1559.18 361.441 1559.26 361.419 1559.32 361.384C1559.39 361.348 1559.45 361.3 1559.49 361.241C1559.54 361.183 1559.58 361.116 1559.6 361.043C1559.62 360.971 1559.62 360.896 1559.61 360.821C1559.61 360.747 1559.58 360.674 1559.54 360.609C1558.8 359.219 1558.62 357.598 1559.03 356.076C1559.44 354.555 1560.42 353.247 1561.76 352.421C1563.1 351.595 1564.71 351.312 1566.25 351.631C1567.79 351.949 1569.16 352.845 1570.06 354.135C1569.17 354.16 1568.28 354.369 1567.47 354.75C1566.65 355.13 1565.92 355.674 1565.33 356.348C1565.28 356.403 1565.24 356.467 1565.21 356.538C1565.19 356.608 1565.18 356.683 1565.18 356.758C1565.18 356.833 1565.2 356.906 1565.24 356.973C1565.27 357.041 1565.31 357.101 1565.37 357.151C1565.43 357.2 1565.49 357.238 1565.56 357.262C1565.63 357.286 1565.71 357.295 1565.78 357.29C1565.86 357.284 1565.93 357.264 1566 357.23C1566.06 357.196 1566.12 357.149 1566.17 357.092C1566.77 356.41 1567.53 355.89 1568.39 355.579C1569.24 355.268 1570.16 355.175 1571.06 355.311C1571.96 355.446 1572.81 355.804 1573.53 356.352C1574.26 356.901 1574.83 357.622 1575.21 358.45C1575.58 359.278 1575.74 360.187 1575.67 361.093C1575.6 361.999 1575.31 362.874 1574.82 363.637C1574.33 364.4 1573.65 365.028 1572.85 365.463C1572.05 365.897 1571.16 366.125 1570.25 366.125Z" fill="#0F62FE"/>
<path d="M1576.92 351.691C1576.89 351.627 1576.84 351.57 1576.78 351.524C1576.72 351.479 1576.65 351.445 1576.58 351.426C1576.51 351.407 1576.43 351.402 1576.36 351.412C1576.28 351.421 1576.21 351.446 1576.15 351.483L1573.88 352.791C1573.82 352.827 1573.76 352.877 1573.71 352.936C1573.66 352.995 1573.63 353.063 1573.61 353.136C1573.59 353.209 1573.58 353.286 1573.59 353.361C1573.6 353.436 1573.62 353.509 1573.66 353.574C1573.7 353.64 1573.75 353.698 1573.81 353.743C1573.87 353.789 1573.94 353.823 1574.01 353.841C1574.09 353.86 1574.16 353.864 1574.24 353.853C1574.31 353.842 1574.39 353.816 1574.45 353.776L1576.72 352.469C1576.85 352.393 1576.94 352.269 1576.98 352.123C1577.02 351.977 1577 351.822 1576.92 351.691Z" fill="#0F62FE"/>
<path d="M1570.01 349.903C1570.07 349.94 1570.14 349.964 1570.22 349.974C1570.29 349.984 1570.37 349.979 1570.44 349.96C1570.51 349.94 1570.58 349.907 1570.64 349.861C1570.7 349.816 1570.75 349.759 1570.79 349.694L1572.09 347.429C1572.17 347.299 1572.19 347.144 1572.15 346.999C1572.11 346.854 1572.01 346.731 1571.88 346.656C1571.75 346.581 1571.6 346.56 1571.45 346.598C1571.31 346.637 1571.18 346.731 1571.11 346.86L1569.8 349.125C1569.72 349.256 1569.7 349.411 1569.74 349.557C1569.78 349.703 1569.88 349.827 1570.01 349.903Z" fill="#0F62FE"/>
<path d="M1565 348.561C1565.15 348.561 1565.3 348.501 1565.4 348.394C1565.51 348.288 1565.57 348.143 1565.57 347.992V345.376C1565.57 345.301 1565.56 345.226 1565.53 345.156C1565.5 345.087 1565.46 345.023 1565.41 344.97C1565.35 344.916 1565.29 344.873 1565.22 344.844C1565.15 344.815 1565.08 344.801 1565 344.801C1564.93 344.801 1564.85 344.815 1564.78 344.844C1564.71 344.873 1564.65 344.916 1564.6 344.97C1564.54 345.023 1564.5 345.087 1564.47 345.156C1564.44 345.226 1564.43 345.301 1564.43 345.376V347.992C1564.43 348.143 1564.49 348.288 1564.6 348.394C1564.7 348.501 1564.85 348.561 1565 348.561Z" fill="#0F62FE"/>
<path d="M1559.22 349.694C1559.29 349.824 1559.42 349.918 1559.56 349.956C1559.71 349.995 1559.86 349.974 1559.99 349.899C1560.12 349.824 1560.22 349.7 1560.26 349.555C1560.3 349.41 1560.28 349.256 1560.2 349.125L1558.89 346.86C1558.86 346.795 1558.81 346.738 1558.75 346.692C1558.69 346.645 1558.62 346.612 1558.55 346.592C1558.48 346.572 1558.4 346.567 1558.33 346.577C1558.25 346.586 1558.18 346.611 1558.11 346.648C1558.05 346.686 1557.99 346.736 1557.95 346.796C1557.9 346.855 1557.87 346.923 1557.85 346.996C1557.83 347.068 1557.82 347.144 1557.83 347.219C1557.85 347.293 1557.87 347.365 1557.91 347.429L1559.22 349.694Z" fill="#0F62FE"/>
<path d="M1556.12 352.791L1553.85 351.483C1553.79 351.445 1553.72 351.42 1553.64 351.41C1553.57 351.4 1553.49 351.404 1553.42 351.423C1553.35 351.443 1553.28 351.476 1553.22 351.522C1553.16 351.567 1553.11 351.624 1553.07 351.689C1553.04 351.754 1553.01 351.826 1553 351.9C1552.99 351.975 1553 352.05 1553.02 352.123C1553.04 352.195 1553.07 352.263 1553.12 352.323C1553.16 352.382 1553.22 352.431 1553.29 352.469L1555.55 353.776C1555.62 353.814 1555.69 353.839 1555.76 353.85C1555.84 353.86 1555.91 353.855 1555.98 353.836C1556.06 353.817 1556.12 353.783 1556.18 353.738C1556.24 353.692 1556.29 353.635 1556.33 353.57C1556.37 353.505 1556.39 353.434 1556.4 353.359C1556.41 353.285 1556.41 353.209 1556.39 353.136C1556.37 353.064 1556.33 352.996 1556.29 352.937C1556.24 352.878 1556.18 352.828 1556.12 352.791Z" fill="#0F62FE"/>
</g>
<rect x="1538" y="477" width="348" height="130" rx="3" fill="#EDF5FF"/>
<rect x="1538" y="477" width="348" height="130" rx="3" stroke="#A6C8FF" stroke-width="2"/>
<text fill="#161616" xml:space="preserve" style="white-space: pre" font-family="IBM Plex Sans" font-size="18" letter-spacing="0px"><tspan x="1553" y="542.75">IBM Cloud&#x2028;</tspan><tspan x="1553" y="566.75">Key Protect (BYOK/ KYOK)</tspan></text>
<g clip-path="url(#clip16_17_2642)">
<rect width="24" height="24" transform="translate(1553 492)" fill="white" fill-opacity="0.01"/>
<path d="M1571.44 502.238C1570.69 500.841 1569.51 499.724 1568.08 499.056C1566.64 498.388 1565.03 498.205 1563.48 498.534C1561.93 498.863 1560.53 499.687 1559.49 500.881C1558.45 502.075 1557.83 503.575 1557.71 505.154C1556.43 505.293 1555.24 505.919 1554.4 506.906C1553.56 507.892 1553.13 509.162 1553.2 510.456C1553.27 511.749 1553.83 512.967 1554.77 513.859C1555.71 514.751 1556.96 515.249 1558.25 515.25H1570.25C1571.89 515.251 1573.47 514.64 1574.68 513.536C1575.89 512.432 1576.64 510.916 1576.79 509.285C1576.94 507.655 1576.47 506.027 1575.48 504.723C1574.49 503.419 1573.05 502.533 1571.44 502.238ZM1570.25 514.125H1558.25C1557.25 514.127 1556.29 513.75 1555.56 513.069C1554.83 512.388 1554.39 511.456 1554.32 510.46C1554.26 509.464 1554.57 508.481 1555.2 507.709C1555.83 506.937 1556.74 506.434 1557.73 506.303C1557.81 507.296 1558.09 508.261 1558.55 509.141C1558.59 509.208 1558.63 509.268 1558.69 509.316C1558.75 509.365 1558.82 509.402 1558.89 509.424C1558.96 509.447 1559.03 509.455 1559.11 509.448C1559.18 509.441 1559.26 509.419 1559.32 509.384C1559.39 509.348 1559.45 509.3 1559.49 509.241C1559.54 509.183 1559.58 509.116 1559.6 509.043C1559.62 508.971 1559.62 508.896 1559.61 508.821C1559.61 508.747 1559.58 508.674 1559.54 508.609C1558.8 507.219 1558.62 505.598 1559.03 504.076C1559.44 502.555 1560.42 501.247 1561.76 500.421C1563.1 499.595 1564.71 499.312 1566.25 499.631C1567.79 499.949 1569.16 500.845 1570.06 502.135C1569.17 502.16 1568.28 502.369 1567.47 502.75C1566.65 503.13 1565.92 503.674 1565.33 504.348C1565.28 504.403 1565.24 504.467 1565.21 504.538C1565.19 504.608 1565.18 504.683 1565.18 504.758C1565.18 504.833 1565.2 504.906 1565.24 504.973C1565.27 505.041 1565.31 505.101 1565.37 505.151C1565.43 505.2 1565.49 505.238 1565.56 505.262C1565.63 505.286 1565.71 505.295 1565.78 505.29C1565.86 505.284 1565.93 505.264 1566 505.23C1566.06 505.196 1566.12 505.149 1566.17 505.092C1566.77 504.41 1567.53 503.89 1568.39 503.579C1569.24 503.268 1570.16 503.175 1571.06 503.311C1571.96 503.446 1572.81 503.804 1573.53 504.352C1574.26 504.901 1574.83 505.622 1575.21 506.45C1575.58 507.278 1575.74 508.187 1575.67 509.093C1575.6 509.999 1575.31 510.874 1574.82 511.637C1574.33 512.4 1573.65 513.028 1572.85 513.463C1572.05 513.897 1571.16 514.125 1570.25 514.125Z" fill="#0F62FE"/>
<path d="M1576.92 499.691C1576.89 499.627 1576.84 499.57 1576.78 499.524C1576.72 499.479 1576.65 499.445 1576.58 499.426C1576.51 499.407 1576.43 499.402 1576.36 499.412C1576.28 499.421 1576.21 499.446 1576.15 499.483L1573.88 500.791C1573.82 500.827 1573.76 500.877 1573.71 500.936C1573.66 500.995 1573.63 501.063 1573.61 501.136C1573.59 501.209 1573.58 501.286 1573.59 501.361C1573.6 501.436 1573.62 501.509 1573.66 501.574C1573.7 501.64 1573.75 501.698 1573.81 501.743C1573.87 501.789 1573.94 501.823 1574.01 501.841C1574.09 501.86 1574.16 501.864 1574.24 501.853C1574.31 501.842 1574.39 501.816 1574.45 501.776L1576.72 500.469C1576.85 500.393 1576.94 500.269 1576.98 500.123C1577.02 499.977 1577 499.822 1576.92 499.691Z" fill="#0F62FE"/>
<path d="M1570.01 497.903C1570.07 497.94 1570.14 497.964 1570.22 497.974C1570.29 497.984 1570.37 497.979 1570.44 497.96C1570.51 497.94 1570.58 497.907 1570.64 497.861C1570.7 497.816 1570.75 497.759 1570.79 497.694L1572.09 495.429C1572.17 495.299 1572.19 495.144 1572.15 494.999C1572.11 494.854 1572.01 494.731 1571.88 494.656C1571.75 494.581 1571.6 494.56 1571.45 494.598C1571.31 494.637 1571.18 494.731 1571.11 494.86L1569.8 497.125C1569.72 497.256 1569.7 497.411 1569.74 497.557C1569.78 497.703 1569.88 497.827 1570.01 497.903Z" fill="#0F62FE"/>
<path d="M1565 496.561C1565.15 496.561 1565.3 496.501 1565.4 496.394C1565.51 496.288 1565.57 496.143 1565.57 495.992V493.376C1565.57 493.301 1565.56 493.226 1565.53 493.156C1565.5 493.087 1565.46 493.023 1565.41 492.97C1565.35 492.916 1565.29 492.873 1565.22 492.844C1565.15 492.815 1565.08 492.801 1565 492.801C1564.93 492.801 1564.85 492.815 1564.78 492.844C1564.71 492.873 1564.65 492.916 1564.6 492.97C1564.54 493.023 1564.5 493.087 1564.47 493.156C1564.44 493.226 1564.43 493.301 1564.43 493.376V495.992C1564.43 496.143 1564.49 496.288 1564.6 496.394C1564.7 496.501 1564.85 496.561 1565 496.561Z" fill="#0F62FE"/>
<path d="M1559.22 497.694C1559.29 497.824 1559.42 497.918 1559.56 497.956C1559.71 497.995 1559.86 497.974 1559.99 497.899C1560.12 497.824 1560.22 497.7 1560.26 497.555C1560.3 497.41 1560.28 497.256 1560.2 497.125L1558.89 494.86C1558.86 494.795 1558.81 494.738 1558.75 494.692C1558.69 494.645 1558.62 494.612 1558.55 494.592C1558.48 494.572 1558.4 494.567 1558.33 494.577C1558.25 494.586 1558.18 494.611 1558.11 494.648C1558.05 494.686 1557.99 494.736 1557.95 494.796C1557.9 494.855 1557.87 494.923 1557.85 494.996C1557.83 495.068 1557.82 495.144 1557.83 495.219C1557.85 495.293 1557.87 495.365 1557.91 495.429L1559.22 497.694Z" fill="#0F62FE"/>
<path d="M1556.12 500.791L1553.85 499.483C1553.79 499.445 1553.72 499.42 1553.64 499.41C1553.57 499.4 1553.49 499.404 1553.42 499.423C1553.35 499.443 1553.28 499.476 1553.22 499.522C1553.16 499.567 1553.11 499.624 1553.07 499.689C1553.04 499.754 1553.01 499.826 1553 499.9C1552.99 499.975 1553 500.05 1553.02 500.123C1553.04 500.195 1553.07 500.263 1553.12 500.323C1553.16 500.382 1553.22 500.431 1553.29 500.469L1555.55 501.776C1555.62 501.814 1555.69 501.839 1555.76 501.85C1555.84 501.86 1555.91 501.855 1555.98 501.836C1556.06 501.817 1556.12 501.783 1556.18 501.738C1556.24 501.692 1556.29 501.635 1556.33 501.57C1556.37 501.505 1556.39 501.434 1556.4 501.359C1556.41 501.285 1556.41 501.209 1556.39 501.136C1556.37 501.064 1556.33 500.996 1556.29 500.937C1556.24 500.878 1556.18 500.828 1556.12 500.791Z" fill="#0F62FE"/>
</g>
<rect x="1538" y="773" width="348" height="130" rx="3" fill="#F4F4F4"/>
<rect x="1538" y="773" width="348" height="130" rx="3" stroke="#E0E0E0" stroke-width="2"/>
<text fill="#161616" xml:space="preserve" style="white-space: pre" font-family="IBM Plex Sans" font-size="18" letter-spacing="0px"><tspan x="1553" y="806.75">3rd Party&#xa0;Virtual&#xa0;Network&#xa0;&#10;</tspan><tspan x="1553" y="832.75">Functions (VNFs)&#x2028;</tspan><tspan x="1553" y="858.75">RYO / BYOL</tspan></text>
<rect width="1" height="1020" transform="translate(1512 32)" fill="#E0E0E0"/>
<path opacity="0.7" d="M1920 1080H0V0H1920V1080ZM1510 18V1061H1914V18H1510Z" fill="white"/>
</g>
<defs>
<clipPath id="clip0_17_2642">
<rect width="1920" height="1080" fill="white"/>
</clipPath>
<clipPath id="clip1_17_2642">
<rect width="24" height="24" fill="white" transform="translate(422 344)"/>
</clipPath>
<clipPath id="clip2_17_2642">
<rect width="24" height="24" fill="white" transform="translate(788 344)"/>
</clipPath>
<clipPath id="clip3_17_2642">
<rect width="24" height="24" fill="white" transform="translate(1154 344)"/>
</clipPath>
<clipPath id="clip4_17_2642">
<rect width="24" height="24" fill="white" transform="translate(422 48)"/>
</clipPath>
<clipPath id="clip5_17_2642">
<rect width="24" height="24" fill="white" transform="translate(788 48)"/>
</clipPath>
<clipPath id="clip6_17_2642">
<rect width="24" height="24" fill="white" transform="translate(422 196)"/>
</clipPath>
<clipPath id="clip7_17_2642">
<rect width="24" height="24" fill="white" transform="translate(422 492)"/>
</clipPath>
<clipPath id="clip8_17_2642">
<rect width="24" height="24" fill="white" transform="translate(788 492)"/>
</clipPath>
<clipPath id="clip9_17_2642">
<rect width="24" height="24" fill="white" transform="translate(1154 492)"/>
</clipPath>
<clipPath id="clip10_17_2642">
<rect width="24" height="24" fill="white" transform="translate(422 640)"/>
</clipPath>
<clipPath id="clip11_17_2642">
<rect width="24" height="24" fill="white" transform="translate(788 640)"/>
</clipPath>
<clipPath id="clip12_17_2642">
<rect width="24" height="24" fill="white" transform="translate(1154 640)"/>
</clipPath>
<clipPath id="clip13_17_2642">
<rect width="24" height="24" fill="white" transform="translate(422 788)"/>
</clipPath>
<clipPath id="clip14_17_2642">
<rect width="24" height="24" fill="white" transform="translate(788 788)"/>
</clipPath>
<clipPath id="clip15_17_2642">
<rect width="24" height="24" fill="white" transform="translate(1553 344)"/>
</clipPath>
<clipPath id="clip16_17_2642">
<rect width="24" height="24" fill="white" transform="translate(1553 492)"/>
</clipPath>
</defs>
</svg>
