<svg width="1559" height="560" viewBox="0 0 1559 560" fill="none" xmlns="http://www.w3.org/2000/svg">
<rect width="1559" height="560" fill="#F5F5F5"/>
<rect width="1559" height="560" fill="white"/>
<text fill="#161616" xml:space="preserve" style="white-space: pre" font-family="IBM Plex Sans" font-size="20" font-weight="600" letter-spacing="0px"><tspan x="48" y="173.5">Workload Migration</tspan></text>
<rect width="32" height="32" transform="translate(48 117)" fill="white" fill-opacity="0.01"/>
<path d="M70 147H58C56.9 147 56 146.1 56 145V142H58V145H70V142H72V145C72 146.1 71.1 147 70 147Z" fill="#161616"/>
<path d="M63 131.8V142H65V131.8L67.6 134.4L69 133L64 128L59 133L60.4 134.4L63 131.8Z" fill="#161616"/>
<path d="M72.8 126.1C71.9 122 68.3 119 64 119C59.7 119 56.1 122 55.2 126.1C52.2 126.7 50 129.4 50 132.5C50 136.1 52.9 139 56.5 139H60V137H56.5C54 137 52 135 52 132.5C52 130.2 53.8 128.2 56.1 128H57L57.1 127.2C57.5 123.6 60.5 121 64 121C67.5 121 70.5 123.6 70.9 127.1L71 128L71.8 128.1C74.1 128.3 75.9 130.3 75.9 132.6C75.9 135.1 73.9 137.1 71.4 137.1H68V139.1H71.5C75.1 139.1 78 136.2 78 132.6C78 129.4 75.8 126.7 72.8 126.1Z" fill="#161616"/>
<rect x="1268" y="337" width="258" height="78" rx="3" fill="#F4F4F4"/>
<rect x="1268" y="337" width="258" height="78" rx="3" stroke="#E0E0E0" stroke-width="2"/>
<text fill="#161616" xml:space="preserve" style="white-space: pre" font-family="IBM Plex Sans" font-size="18" letter-spacing="0px"><tspan x="1283" y="370.75">Virtual Machine import</tspan></text>
<rect x="912" y="225" width="258" height="78" rx="3" fill="#FFF1F1"/>
<rect x="912" y="225" width="258" height="78" rx="3" stroke="#FFB3B8" stroke-width="2"/>
<text fill="#161616" xml:space="preserve" style="white-space: pre" font-family="IBM Plex Sans" font-size="18" letter-spacing="0px"><tspan x="927" y="258.75">Plan</tspan></text>
<rect x="33" y="200" width="423" height="130" rx="3" fill="#FFF1F1"/>
<rect x="33" y="200" width="423" height="130" rx="3" stroke="#FFB3B8" stroke-width="2"/>
<text fill="#161616" xml:space="preserve" style="white-space: pre" font-family="IBM Plex Sans" font-size="18" letter-spacing="0px"><tspan x="48" y="265.75">Red Hat OpenShift&#x2028;</tspan><tspan x="48" y="289.75">Migration Toolkit for Virtualization (MTV)</tspan></text>
<g clip-path="url(#clip0_17_2642)">
<path d="M54.9749 225.875L51.1499 227.3C51.1499 227.9 51.2999 228.575 51.4499 229.175L55.1249 227.825C54.9749 227.225 54.9749 226.55 54.9749 225.875ZM71.9999 221.525C71.6999 220.925 71.3999 220.4 71.0249 219.875L67.1999 221.3C67.6499 221.75 68.0249 222.275 68.3249 222.875L71.9999 221.525Z" fill="#A30000"/>
<path d="M63.525 220.4C64.275 220.775 65.025 221.3 65.625 221.9L69.45 220.475C65.925 215.375 59.025 214.25 54.075 217.85C50.925 220.1 49.2 223.925 49.5 227.9L53.325 226.475C53.625 222.425 57.075 219.425 60.975 219.725C61.875 219.725 62.7 220.025 63.525 220.4ZM51.675 229.025L48 230.375C48.3 231.725 48.9 233.075 49.725 234.2L53.55 232.775C52.575 231.725 51.9 230.45 51.675 229.025Z" fill="#CC0000"/>
<path d="M67.6499 227.6C67.6499 228.5 67.3499 229.325 66.9749 230.15C65.3249 233.825 61.0499 235.4 57.4499 233.675C56.6999 233.3 55.9499 232.775 55.3499 232.175L51.5249 233.6C52.5749 235.175 54.0749 236.45 55.7999 237.275C61.3499 239.9 67.8749 237.5 70.4249 231.8C71.2499 230.075 71.5499 228.125 71.3999 226.175L67.5749 227.6H67.6499Z" fill="#CC0000"/>
<path d="M68.625 222.725L64.95 224.075C65.625 225.35 65.925 226.775 65.85 228.2L69.675 226.775C69.525 225.35 69.15 224 68.55 222.725" fill="#CC0000"/>
<path d="M54.9749 226.625C54.9749 226.325 54.9749 226.1 54.9749 225.8L51.1499 227.225C51.1499 227.45 51.1499 227.75 51.2249 227.975L54.9749 226.55V226.625ZM71.4749 220.475C71.3249 220.25 71.2499 220.1 71.0999 219.875L67.2749 221.3C67.4249 221.45 67.5749 221.675 67.7249 221.9L71.4749 220.475Z" fill="#820000"/>
<path d="M51.5249 233.6C51.8249 234.05 52.1249 234.425 52.4999 234.8L56.6999 233.225C56.2499 232.925 55.7999 232.55 55.3499 232.1L51.5249 233.525V233.6ZM71.4749 226.175L67.6499 227.6C67.6499 228.2 67.4999 228.725 67.3499 229.25L71.5499 227.675C71.5499 227.15 71.5499 226.625 71.5499 226.1" fill="#A30000"/>
</g>
<rect x="912" y="337" width="258" height="78" rx="3" fill="#FFF1F1"/>
<rect x="912" y="337" width="258" height="78" rx="3" stroke="#FFB3B8" stroke-width="2"/>
<text fill="#161616" xml:space="preserve" style="white-space: pre" font-family="IBM Plex Sans" font-size="18" letter-spacing="0px"><tspan x="927" y="370.75">Migrate</tspan></text>
<rect width="36" height="8" transform="matrix(0 1 -1 0 1045 300)" fill="white" fill-opacity="0.01" style="mix-blend-mode:multiply"/>
<g clip-path="url(#clip1_17_2642)">
<rect width="22" height="0" transform="matrix(0 1 -1 0 1041 307)" fill="white" fill-opacity="0.01" style="mix-blend-mode:multiply"/>
<path d="M1041 307V329" stroke="black"/>
</g>
<rect width="8" height="8" transform="matrix(0 1 -1 0 1045 328)" fill="white" fill-opacity="0.01" style="mix-blend-mode:multiply"/>
<path d="M1045 328L1041 336L1037 328H1045Z" fill="black"/>
<rect width="8" height="8" transform="matrix(0 -1 -1 0 1045 308)" fill="white" fill-opacity="0.01" style="mix-blend-mode:multiply"/>
<circle cx="4" cy="4" r="4" transform="matrix(-1 0 0 1 1045 300)" fill="black"/>
<rect width="100" height="8" transform="translate(1167 372)" fill="white" fill-opacity="0.01" style="mix-blend-mode:multiply"/>
<rect width="86" height="0" transform="translate(1174 376)" fill="white" fill-opacity="0.01" style="mix-blend-mode:multiply"/>
<path d="M1174 376H1260" stroke="black"/>
<rect width="8" height="8" transform="translate(1259 372)" fill="white" fill-opacity="0.01" style="mix-blend-mode:multiply"/>
<path d="M1259 372L1267 376L1259 380V372Z" fill="black"/>
<rect width="8" height="8" transform="matrix(-1 0 0 1 1175 372)" fill="white" fill-opacity="0.01" style="mix-blend-mode:multiply"/>
<circle cx="4" cy="4" r="4" transform="matrix(0 1 1 0 1167 372)" fill="black"/>
<rect x="556" y="33" width="258" height="78" rx="3" fill="#F4F4F4"/>
<rect x="556" y="33" width="258" height="78" rx="3" stroke="#E0E0E0" stroke-width="2"/>
<text fill="#161616" xml:space="preserve" style="white-space: pre" font-family="IBM Plex Sans" font-size="18" letter-spacing="0px"><tspan x="571" y="66.75">Network mapping</tspan></text>
<rect x="556" y="129" width="258" height="78" rx="3" fill="#F4F4F4"/>
<rect x="556" y="129" width="258" height="78" rx="3" stroke="#E0E0E0" stroke-width="2"/>
<text fill="#161616" xml:space="preserve" style="white-space: pre" font-family="IBM Plex Sans" font-size="18" letter-spacing="0px"><tspan x="571" y="162.75">Storage mapping</tspan></text>
<rect x="556" y="225" width="258" height="78" rx="3" fill="#F4F4F4"/>
<rect x="556" y="225" width="258" height="78" rx="3" stroke="#E0E0E0" stroke-width="2"/>
<text fill="#161616" xml:space="preserve" style="white-space: pre" font-family="IBM Plex Sans" font-size="18" letter-spacing="0px"><tspan x="571" y="258.75">Source provider</tspan></text>
<rect x="556" y="321" width="258" height="78" rx="3" fill="#F4F4F4"/>
<rect x="556" y="321" width="258" height="78" rx="3" stroke="#E0E0E0" stroke-width="2"/>
<text fill="#161616" xml:space="preserve" style="white-space: pre" font-family="IBM Plex Sans" font-size="18" letter-spacing="0px"><tspan x="571" y="354.75">Target provider</tspan></text>
<rect x="556" y="417" width="258" height="78" rx="3" fill="#F4F4F4"/>
<rect x="556" y="417" width="258" height="78" rx="3" stroke="#E0E0E0" stroke-width="2"/>
<text fill="#161616" xml:space="preserve" style="white-space: pre" font-family="IBM Plex Sans" font-size="18" letter-spacing="0px"><tspan x="571" y="450.75">Virtual Machine</tspan></text>
<rect width="72" height="8" transform="translate(452 260)" fill="white" fill-opacity="0.01" style="mix-blend-mode:multiply"/>
<rect width="65" height="0" transform="translate(459 264)" fill="white" fill-opacity="0.01" style="mix-blend-mode:multiply"/>
<path d="M459 264H524" stroke="black"/>
<rect width="8" height="8" transform="matrix(-1 0 0 1 460 260)" fill="white" fill-opacity="0.01" style="mix-blend-mode:multiply"/>
<circle cx="4" cy="4" r="4" transform="matrix(0 1 1 0 452 260)" fill="black"/>
<rect width="68" height="8" transform="translate(842.5 260.5)" fill="white" fill-opacity="0.01" style="mix-blend-mode:multiply"/>
<g clip-path="url(#clip2_17_2642)">
<rect width="54" height="0" transform="translate(849.5 264.5)" fill="white" fill-opacity="0.01" style="mix-blend-mode:multiply"/>
<path d="M849.5 264.5H903.5" stroke="black"/>
</g>
<rect width="8" height="8" transform="translate(902.5 260.5)" fill="white" fill-opacity="0.01" style="mix-blend-mode:multiply"/>
<path d="M902.5 260.5L910.5 264.5L902.5 268.5V260.5Z" fill="black"/>
<rect width="8" height="8" transform="matrix(-1 0 0 1 850.5 260.5)" fill="white" fill-opacity="0.01" style="mix-blend-mode:multiply"/>
<circle cx="4" cy="4" r="4" transform="matrix(0 1 1 0 842.5 260.5)" fill="black"/>
<mask id="path-38-inside-1_17_2642" fill="white">
<path d="M524 73H556V456H524V73Z"/>
</mask>
<path d="M524 456H525V73H524H523V456H524Z" fill="black" mask="url(#path-38-inside-1_17_2642)"/>
<mask id="path-40-inside-2_17_2642" fill="white">
<path d="M815 73H847V456H815V73Z"/>
</mask>
<path d="M847 73H848V72H847V73ZM847 456V457H848V456H847ZM815 73V74H847V73V72H815V73ZM847 73H846V456H847H848V73H847ZM847 456V455H815V456V457H847V456Z" fill="black" mask="url(#path-40-inside-2_17_2642)"/>
<rect width="31" height="1" transform="translate(815 168)" fill="black"/>
<rect width="31" height="1" transform="translate(815 264)" fill="black"/>
<rect width="31" height="1" transform="translate(815 360)" fill="black"/>
<rect width="30" height="8" transform="translate(524 69)" fill="white" fill-opacity="0.01" style="mix-blend-mode:multiply"/>
<rect width="23" height="0" transform="translate(524 73)" fill="white" fill-opacity="0.01" style="mix-blend-mode:multiply"/>
<path d="M524 73H547" stroke="black"/>
<rect width="8" height="8" transform="translate(546 69)" fill="white" fill-opacity="0.01" style="mix-blend-mode:multiply"/>
<path d="M546 69L554 73L546 77V69Z" fill="black"/>
<rect width="30" height="8" transform="translate(524 164)" fill="white" fill-opacity="0.01" style="mix-blend-mode:multiply"/>
<rect width="23" height="0" transform="translate(524 168)" fill="white" fill-opacity="0.01" style="mix-blend-mode:multiply"/>
<path d="M524 168H547" stroke="black"/>
<rect width="8" height="8" transform="translate(546 164)" fill="white" fill-opacity="0.01" style="mix-blend-mode:multiply"/>
<path d="M546 164L554 168L546 172V164Z" fill="black"/>
<rect width="30" height="8" transform="translate(524 260)" fill="white" fill-opacity="0.01" style="mix-blend-mode:multiply"/>
<rect width="23" height="0" transform="translate(524 264)" fill="white" fill-opacity="0.01" style="mix-blend-mode:multiply"/>
<path d="M524 264H547" stroke="black"/>
<rect width="8" height="8" transform="translate(546 260)" fill="white" fill-opacity="0.01" style="mix-blend-mode:multiply"/>
<path d="M546 260L554 264L546 268V260Z" fill="black"/>
<rect width="30" height="8" transform="translate(524 260)" fill="white" fill-opacity="0.01" style="mix-blend-mode:multiply"/>
<rect width="23" height="0" transform="translate(524 264)" fill="white" fill-opacity="0.01" style="mix-blend-mode:multiply"/>
<path d="M524 264H547" stroke="black"/>
<rect width="8" height="8" transform="translate(546 260)" fill="white" fill-opacity="0.01" style="mix-blend-mode:multiply"/>
<path d="M546 260L554 264L546 268V260Z" fill="black"/>
<rect width="30" height="8" transform="translate(524 356)" fill="white" fill-opacity="0.01" style="mix-blend-mode:multiply"/>
<rect width="23" height="0" transform="translate(524 360)" fill="white" fill-opacity="0.01" style="mix-blend-mode:multiply"/>
<path d="M524 360H547" stroke="black"/>
<rect width="8" height="8" transform="translate(546 356)" fill="white" fill-opacity="0.01" style="mix-blend-mode:multiply"/>
<path d="M546 356L554 360L546 364V356Z" fill="black"/>
<rect width="30" height="8" transform="translate(524 452)" fill="white" fill-opacity="0.01" style="mix-blend-mode:multiply"/>
<rect width="23" height="0" transform="translate(524 456)" fill="white" fill-opacity="0.01" style="mix-blend-mode:multiply"/>
<path d="M524 456H547" stroke="black"/>
<rect width="8" height="8" transform="translate(546 452)" fill="white" fill-opacity="0.01" style="mix-blend-mode:multiply"/>
<path d="M546 452L554 456L546 460V452Z" fill="black"/>
<defs>
<clipPath id="clip0_17_2642">
<rect width="24" height="24" fill="white" transform="translate(48 215)"/>
</clipPath>
<clipPath id="clip1_17_2642">
<rect width="22" height="8" fill="white" transform="matrix(0 1 -1 0 1045 307)"/>
</clipPath>
<clipPath id="clip2_17_2642">
<rect width="54" height="8" fill="white" transform="translate(849.5 260.5)"/>
</clipPath>
</defs>
</svg>
